ChauncyRegular.ufo
<glyph name="exclam" format="2">
  <advance width="263"/>
  <unicode hex="0021"/>
  <outline>
    <contour>
      <point x="98" y="696" type="curve" smooth="yes"/>
      <point x="147" y="716" type="line" smooth="yes"/>
      <point x="158" y="719"/>
      <point x="166" y="723"/>
      <point x="174" y="723" type="curve" smooth="yes"/>
      <point x="185" y="723"/>
      <point x="194" y="714"/>
      <point x="194" y="702" type="curve" smooth="yes"/>
      <point x="194" y="697"/>
      <point x="193" y="689"/>
      <point x="193" y="684" type="curve" smooth="yes"/>
      <point x="159" y="229" type="line" smooth="yes"/>
      <point x="157.5516398216982" y="209.61753290802"/>
      <point x="150.0" y="200.0"/>
      <point x="136" y="200" type="curve" smooth="yes"/>
      <point x="122.0" y="200.0"/>
      <point x="114.86753859039962" y="209.7308104982266"/>
      <point x="113" y="231" type="curve" smooth="yes"/>
      <point x="77" y="641" type="line" smooth="yes"/>
      <point x="77" y="650"/>
      <point x="76" y="659"/>
      <point x="76" y="666" type="curve" smooth="yes"/>
      <point x="76" y="680"/>
      <point x="85" y="691"/>
    </contour>
    <component base="period" xScale="0.9329999999999999" yScale="0.9329999999999999" xOffset="7" yOffset="-1"/>
  </outline>
</glyph>
<glyph name="ampersand" format="2">
  <advance width="660"/>
  <unicode hex="0026"/>
  <outline>
    <contour>
      <point x="256" y="633" type="curve" smooth="yes"/>
      <point x="204" y="633"/>
      <point x="162" y="587"/>
      <point x="162" y="526" type="curve" smooth="yes"/>
      <point x="162" y="459"/>
      <point x="203" y="408"/>
      <point x="261" y="383" type="curve" smooth="yes"/>
      <point x="323" y="357"/>
      <point x="355" y="334"/>
      <point x="400" y="279" type="curve" smooth="yes"/>
      <point x="554" y="95" type="line" smooth="yes"/>
      <point x="574" y="71"/>
      <point x="592" y="50"/>
      <point x="625" y="44" type="curve" smooth="yes"/>
      <point x="648" y="39"/>
      <point x="657" y="34"/>
      <point x="657" y="20" type="curve" smooth="yes"/>
      <point x="657" y="6"/>
      <point x="646" y="-1"/>
      <point x="626" y="-1" type="curve" smooth="yes"/>
      <point x="550" y="-1" type="line" smooth="yes"/>
      <point x="518" y="-1"/>
      <point x="498" y="10"/>
      <point x="480" y="34" type="curve" smooth="yes"/>
      <point x="319" y="230" type="line" smooth="yes"/>
      <point x="280" y="278"/>
      <point x="254" y="301"/>
      <point x="201" y="324" type="curve" smooth="yes"/>
      <point x="127" y="354"/>
      <point x="76" y="413"/>
      <point x="76" y="491" type="curve" smooth="yes"/>
      <point x="76" y="595"/>
      <point x="164" y="676"/>
      <point x="269" y="676" type="curve" smooth="yes"/>
      <point x="375" y="676"/>
      <point x="438" y="614"/>
      <point x="438" y="525" type="curve" smooth="yes"/>
      <point x="438" y="444"/>
      <point x="377" y="379"/>
      <point x="274" y="352" type="curve"/>
      <point x="251" y="373" type="line"/>
      <point x="313" y="395"/>
      <point x="347" y="447"/>
      <point x="347" y="506" type="curve" smooth="yes"/>
      <point x="347" y="582"/>
      <point x="304" y="633"/>
    </contour>
    <contour>
      <point x="242" y="323" type="line"/>
      <point x="179" y="320"/>
      <point x="119" y="257"/>
      <point x="119" y="190" type="curve" smooth="yes"/>
      <point x="119" y="109"/>
      <point x="187" y="58"/>
      <point x="299" y="58" type="curve" smooth="yes"/>
      <point x="353" y="58"/>
      <point x="403" y="81"/>
      <point x="432" y="124" type="curve"/>
      <point x="458" y="99" type="line"/>
      <point x="390" y="15"/>
      <point x="323" y="-15"/>
      <point x="230" y="-15" type="curve" smooth="yes"/>
      <point x="103" y="-15"/>
      <point x="34" y="65"/>
      <point x="34" y="159" type="curve" smooth="yes"/>
      <point x="34" y="261"/>
      <point x="126" y="342"/>
      <point x="242" y="342" type="curve"/>
    </contour>
    <contour>
      <point x="470" y="178" type="line"/>
      <point x="515" y="255" type="line" smooth="yes"/>
      <point x="523" y="270"/>
      <point x="529" y="280"/>
      <point x="529" y="295" type="curve" smooth="yes"/>
      <point x="529" y="309"/>
      <point x="522" y="313"/>
      <point x="509" y="320" type="curve" smooth="yes"/>
      <point x="493" y="328" type="line" smooth="yes"/>
      <point x="475" y="337"/>
      <point x="467" y="339"/>
      <point x="467" y="352" type="curve" smooth="yes"/>
      <point x="467" y="366"/>
      <point x="481" y="369"/>
      <point x="504" y="369" type="curve" smooth="yes"/>
      <point x="524" y="369"/>
      <point x="610" y="369"/>
      <point x="636" y="369" type="curve" smooth="yes"/>
      <point x="650" y="369"/>
      <point x="661" y="363"/>
      <point x="661" y="350" type="curve" smooth="yes"/>
      <point x="661" y="340"/>
      <point x="649" y="336"/>
      <point x="635" y="330" type="curve" smooth="yes"/>
      <point x="608" y="319"/>
      <point x="590" y="299"/>
      <point x="571" y="270" type="curve" smooth="yes"/>
      <point x="497" y="152" type="line"/>
    </contour>
  </outline>
</glyph>
<glyph name="parenleft" format="2">
  <advance width="395"/>
  <unicode hex="0028"/>
  <outline>
    <contour>
      <point x="91" y="267" type="curve" smooth="yes"/>
      <point x="91" y="46"/>
      <point x="219" y="-120"/>
      <point x="361" y="-172" type="curve" smooth="yes"/>
      <point x="364" y="-173"/>
      <point x="366" y="-173"/>
      <point x="369" y="-173" type="curve" smooth="yes"/>
      <point x="378" y="-173"/>
      <point x="384" y="-165"/>
      <point x="384" y="-155" type="curve" smooth="yes"/>
      <point x="384" y="-149"/>
      <point x="381" y="-141"/>
      <point x="372" y="-138" type="curve" smooth="yes"/>
      <point x="253.51080781050365" y="-83.16202675527441"/>
      <point x="179.0" y="61.0"/>
      <point x="179" y="267" type="curve" smooth="yes"/>
      <point x="179.0" y="474.0"/>
      <point x="253.52675208011175" y="618.1485236727781"/>
      <point x="372" y="672" type="curve" smooth="yes"/>
      <point x="381" y="676"/>
      <point x="384" y="683"/>
      <point x="384" y="690" type="curve" smooth="yes"/>
      <point x="384" y="699"/>
      <point x="378" y="708"/>
      <point x="369" y="708" type="curve" smooth="yes"/>
      <point x="366" y="708"/>
      <point x="364" y="708"/>
      <point x="361" y="707" type="curve" smooth="yes"/>
      <point x="219" y="654"/>
      <point x="91" y="489"/>
    </contour>
  </outline>
</glyph>
<glyph name="comma" format="2">
  <advance width="284"/>
  <unicode hex="002C"/>
  <outline>
    <contour>
      <point x="126" y="-18" type="curve" smooth="yes"/>
      <point x="144" y="-18" type="line" smooth="yes"/>
      <point x="158" y="-18"/>
      <point x="164" y="-26"/>
      <point x="164" y="-40" type="curve" smooth="yes"/>
      <point x="164" y="-102"/>
      <point x="139" y="-137"/>
      <point x="102" y="-149" type="curve" smooth="yes"/>
      <point x="92" y="-151" type="line" smooth="yes"/>
      <point x="77" y="-156"/>
      <point x="70" y="-166"/>
      <point x="70" y="-179" type="curve" smooth="yes"/>
      <point x="70" y="-193"/>
      <point x="84" y="-205"/>
      <point x="106" y="-198" type="curve" smooth="yes"/>
      <point x="117" y="-195" type="line" smooth="yes"/>
      <point x="167" y="-181"/>
      <point x="218" y="-123"/>
      <point x="218" y="-4" type="curve" smooth="yes"/>
      <point x="218" y="77"/>
      <point x="182" y="113"/>
      <point x="133" y="113" type="curve" smooth="yes"/>
      <point x="96" y="113"/>
      <point x="65" y="84"/>
      <point x="65" y="49" type="curve" smooth="yes"/>
      <point x="65" y="10"/>
      <point x="91" y="-18"/>
    </contour>
  </outline>
</glyph>
<glyph name="hyphen" format="2">
  <advance width="395"/>
  <unicode hex="002D"/>
  <outline>
    <contour>
      <point x="50" y="242" type="curve" smooth="yes"/>
      <point x="50" y="221"/>
      <point x="59" y="207"/>
      <point x="75" y="207" type="curve" smooth="yes"/>
      <point x="319" y="207" type="line" smooth="yes"/>
      <point x="335" y="207"/>
      <point x="345" y="221"/>
      <point x="345" y="242" type="curve" smooth="yes"/>
      <point x="345" y="264"/>
      <point x="334" y="279"/>
      <point x="319" y="279" type="curve" smooth="yes"/>
      <point x="76" y="279" type="line" smooth="yes"/>
      <point x="61" y="279"/>
      <point x="50" y="264"/>
    </contour>
  </outline>
</glyph>
<glyph name="zero" format="2">
  <advance width="566"/>
  <unicode hex="0030"/>
  <outline>
    <contour>
      <point x="282" y="651" type="curve" smooth="yes"/>
      <point x="139" y="651"/>
      <point x="35" y="513"/>
      <point x="35" y="323" type="curve" smooth="yes"/>
      <point x="35" y="127"/>
      <point x="139" y="-15"/>
      <point x="282" y="-15" type="curve" smooth="yes"/>
      <point x="426" y="-15"/>
      <point x="531" y="126"/>
      <point x="531" y="323" type="curve" smooth="yes"/>
      <point x="531" y="514"/>
      <point x="426" y="651"/>
    </contour>
    <contour>
      <point x="361" y="595"/>
      <point x="424" y="468"/>
      <point x="424" y="282" type="curve" smooth="yes"/>
      <point x="424" y="142"/>
      <point x="370" y="41"/>
      <point x="297" y="41" type="curve" smooth="yes"/>
      <point x="205" y="41"/>
      <point x="140" y="169"/>
      <point x="140" y="357" type="curve" smooth="yes"/>
      <point x="140" y="493"/>
      <point x="195" y="595"/>
      <point x="270" y="595" type="curve" smooth="yes"/>
    </contour>
  </outline>
</glyph>
<glyph name="one" format="2">
  <advance width="550"/>
  <unicode hex="0031"/>
  <outline>
    <contour>
      <point x="103" y="543" type="line" smooth="yes"/>
      <point x="84.0" y="543.0"/>
      <point x="75" y="553"/>
      <point x="75" y="567" type="curve" smooth="yes"/>
      <point x="75" y="581"/>
      <point x="87" y="592"/>
      <point x="107" y="592" type="curve" smooth="yes"/>
      <point x="128" y="592" type="line" smooth="yes"/>
      <point x="185.38532110091745" y="592"/>
      <point x="230.19245581778256" y="600.3426915734768"/>
      <point x="267" y="636" type="curve" smooth="yes"/>
      <point x="278" y="649"/>
      <point x="289" y="655"/>
      <point x="305" y="655" type="curve" smooth="yes"/>
      <point x="322" y="655"/>
      <point x="332" y="646"/>
      <point x="332" y="623" type="curve" smooth="yes"/>
      <point x="332" y="103" type="line" smooth="yes"/>
      <point x="332" y="75"/>
      <point x="353" y="53"/>
      <point x="381" y="52" type="curve" smooth="yes"/>
      <point x="460" y="48" type="line" smooth="yes"/>
      <point x="477" y="47"/>
      <point x="489" y="39"/>
      <point x="489" y="26" type="curve" smooth="yes"/>
      <point x="489" y="8"/>
      <point x="479.0" y="0.0"/>
      <point x="460" y="0" type="curve" smooth="yes"/>
      <point x="97" y="0" type="line" smooth="yes"/>
      <point x="78" y="0"/>
      <point x="67" y="8"/>
      <point x="67" y="26" type="curve" smooth="yes"/>
      <point x="67" y="41"/>
      <point x="78" y="50"/>
      <point x="98" y="51" type="curve" smooth="yes"/>
      <point x="174" y="55" type="line" smooth="yes"/>
      <point x="206" y="57"/>
      <point x="233" y="74"/>
      <point x="233" y="103" type="curve" smooth="yes"/>
      <point x="233" y="486" type="line" smooth="yes"/>
      <point x="233" y="526"/>
      <point x="213" y="543"/>
      <point x="180" y="543" type="curve" smooth="yes"/>
    </contour>
  </outline>
</glyph>
<glyph name="two" format="2">
  <advance width="515"/>
  <unicode hex="0032"/>
  <outline>
    <contour>
      <point x="153" y="168" type="curve" smooth="yes"/>
      <point x="52" y="69" type="line" smooth="yes"/>
      <point x="34" y="51"/>
      <point x="24" y="36"/>
      <point x="24" y="24" type="curve" smooth="yes"/>
      <point x="24" y="7"/>
      <point x="39" y="0"/>
      <point x="58" y="0" type="curve" smooth="yes"/>
      <point x="410" y="0" type="line" smooth="yes"/>
      <point x="445" y="0"/>
      <point x="466" y="10"/>
      <point x="466" y="39" type="curve" smooth="yes"/>
      <point x="466" y="180" type="line" smooth="yes"/>
      <point x="466" y="210"/>
      <point x="425" y="207"/>
      <point x="421" y="187" type="curve" smooth="yes"/>
      <point x="414" y="152" type="line" smooth="yes"/>
      <point x="402" y="104"/>
      <point x="377" y="86"/>
      <point x="333" y="86" type="curve" smooth="yes"/>
      <point x="124" y="86" type="line"/>
      <point x="130" y="66" type="line"/>
      <point x="190" y="122" type="line" smooth="yes"/>
      <point x="390" y="309"/>
      <point x="446" y="387"/>
      <point x="446" y="480" type="curve" smooth="yes"/>
      <point x="446" y="588"/>
      <point x="378" y="651"/>
      <point x="259" y="651" type="curve" smooth="yes"/>
      <point x="123" y="651"/>
      <point x="32" y="553"/>
      <point x="32" y="483" type="curve" smooth="yes"/>
      <point x="32" y="445"/>
      <point x="52" y="423"/>
      <point x="84" y="423" type="curve" smooth="yes"/>
      <point x="116" y="423"/>
      <point x="143" y="448"/>
      <point x="143" y="483" type="curve" smooth="yes"/>
      <point x="143" y="527" type="line" smooth="yes"/>
      <point x="143" y="565"/>
      <point x="165" y="592"/>
      <point x="225" y="592" type="curve" smooth="yes"/>
      <point x="290" y="592"/>
      <point x="343" y="548"/>
      <point x="343" y="454" type="curve" smooth="yes"/>
      <point x="343" y="374"/>
      <point x="295" y="304"/>
    </contour>
  </outline>
</glyph>
<glyph name="three" format="2">
  <advance width="514"/>
  <unicode hex="0033"/>
  <outline>
    <contour>
      <point x="48" y="131" type="curve" smooth="yes"/>
      <point x="48" y="50"/>
      <point x="138" y="-16"/>
      <point x="234" y="-16" type="curve" smooth="yes"/>
      <point x="372" y="-16"/>
      <point x="468" y="64"/>
      <point x="468" y="179" type="curve" smooth="yes"/>
      <point x="468" y="263"/>
      <point x="404" y="332"/>
      <point x="300" y="332" type="curve"/>
      <point x="294" y="318" type="line"/>
      <point x="379" y="318"/>
      <point x="450" y="401"/>
      <point x="448" y="499" type="curve" smooth="yes"/>
      <point x="446" y="595"/>
      <point x="374" y="650"/>
      <point x="271" y="650" type="curve" smooth="yes"/>
      <point x="146" y="650"/>
      <point x="41" y="555"/>
      <point x="41" y="483" type="curve" smooth="yes"/>
      <point x="41" y="445"/>
      <point x="63" y="423"/>
      <point x="94" y="423" type="curve" smooth="yes"/>
      <point x="125" y="423"/>
      <point x="153" y="448"/>
      <point x="153" y="483" type="curve" smooth="yes"/>
      <point x="153" y="531" type="line" smooth="yes"/>
      <point x="153" y="566"/>
      <point x="182" y="592"/>
      <point x="242" y="592" type="curve" smooth="yes"/>
      <point x="300" y="592"/>
      <point x="348" y="555"/>
      <point x="348" y="475" type="curve" smooth="yes"/>
      <point x="348" y="386"/>
      <point x="298" y="341"/>
      <point x="228" y="341" type="curve" smooth="yes"/>
      <point x="198" y="341" type="line" smooth="yes"/>
      <point x="181" y="341"/>
      <point x="169" y="329"/>
      <point x="169" y="313" type="curve" smooth="yes"/>
      <point x="169" y="298"/>
      <point x="182" y="288"/>
      <point x="200" y="288" type="curve" smooth="yes"/>
      <point x="250" y="288" type="line" smooth="yes"/>
      <point x="341" y="288"/>
      <point x="376" y="230"/>
      <point x="376" y="159" type="curve" smooth="yes"/>
      <point x="376" y="89"/>
      <point x="335" y="39"/>
      <point x="268" y="39" type="curve" smooth="yes"/>
      <point x="210" y="39"/>
      <point x="166" y="67"/>
      <point x="166" y="104" type="curve" smooth="yes"/>
      <point x="166" y="130" type="line" smooth="yes"/>
      <point x="166" y="167"/>
      <point x="139" y="193"/>
      <point x="106" y="193" type="curve" smooth="yes"/>
      <point x="75" y="193"/>
      <point x="48" y="167"/>
    </contour>
  </outline>
</glyph>
<glyph name="four" format="2">
  <advance width="502"/>
  <unicode hex="0034"/>
  <outline>
    <contour>
      <point x="462" y="215" type="curve" smooth="yes"/>
      <point x="40" y="215" type="line"/>
      <point x="56" y="185" type="line"/>
      <point x="299" y="587" type="line"/>
      <point x="281" y="592" type="line"/>
      <point x="281" y="99" type="line" smooth="yes"/>
      <point x="281" y="71"/>
      <point x="269" y="56"/>
      <point x="243" y="51" type="curve" smooth="yes"/>
      <point x="197" y="44" type="line" smooth="yes"/>
      <point x="178" y="41"/>
      <point x="168" y="35"/>
      <point x="168" y="20" type="curve" smooth="yes"/>
      <point x="168" y="6"/>
      <point x="177" y="0"/>
      <point x="200" y="0" type="curve" smooth="yes"/>
      <point x="445" y="0" type="line" smooth="yes"/>
      <point x="467" y="0"/>
      <point x="477" y="6"/>
      <point x="477" y="20" type="curve" smooth="yes"/>
      <point x="477" y="35"/>
      <point x="466" y="41"/>
      <point x="447" y="44" type="curve" smooth="yes"/>
      <point x="417" y="49" type="line" smooth="yes"/>
      <point x="392" y="52"/>
      <point x="379" y="68"/>
      <point x="379" y="96" type="curve" smooth="yes"/>
      <point x="379" y="615" type="line" smooth="yes"/>
      <point x="379" y="632"/>
      <point x="372" y="647"/>
      <point x="355" y="647" type="curve" smooth="yes"/>
      <point x="302" y="647" type="line" smooth="yes"/>
      <point x="280" y="647"/>
      <point x="271" y="638"/>
      <point x="261" y="624" type="curve" smooth="yes"/>
      <point x="24" y="239" type="line" smooth="yes"/>
      <point x="8" y="214"/>
      <point x="6" y="202"/>
      <point x="6" y="193" type="curve" smooth="yes"/>
      <point x="6" y="174"/>
      <point x="18" y="163"/>
      <point x="40" y="163" type="curve" smooth="yes"/>
      <point x="462" y="163" type="line" smooth="yes"/>
      <point x="481" y="163"/>
      <point x="491" y="172"/>
      <point x="490" y="192" type="curve" smooth="yes"/>
      <point x="489" y="208"/>
      <point x="478" y="215"/>
    </contour>
  </outline>
</glyph>
<glyph name="five" format="2">
  <advance width="494"/>
  <unicode hex="0035"/>
  <outline>
    <contour>
      <point x="39" y="127" type="curve" smooth="yes"/>
      <point x="39" y="50"/>
      <point x="122" y="-15"/>
      <point x="225" y="-15" type="curve" smooth="yes"/>
      <point x="357" y="-15"/>
      <point x="457" y="75"/>
      <point x="457" y="211" type="curve" smooth="yes"/>
      <point x="457" y="328"/>
      <point x="377" y="407"/>
      <point x="256" y="407" type="curve" smooth="yes"/>
      <point x="190" y="407"/>
      <point x="135" y="380"/>
      <point x="96" y="319" type="curve"/>
      <point x="125" y="309" type="line"/>
      <point x="125" y="565" type="line"/>
      <point x="96" y="535" type="line"/>
      <point x="400" y="535" type="line" smooth="yes"/>
      <point x="423" y="535"/>
      <point x="437" y="548"/>
      <point x="437" y="569" type="curve" smooth="yes"/>
      <point x="437" y="661" type="line" smooth="yes"/>
      <point x="437" y="676"/>
      <point x="428" y="681"/>
      <point x="418" y="681" type="curve" smooth="yes"/>
      <point x="404" y="680"/>
      <point x="397" y="672"/>
      <point x="394" y="662" type="curve" smooth="yes"/>
      <point x="385" y="638"/>
      <point x="376" y="626"/>
      <point x="352" y="626" type="curve" smooth="yes"/>
      <point x="105" y="626" type="line" smooth="yes"/>
      <point x="85" y="626"/>
      <point x="67" y="611"/>
      <point x="67" y="589" type="curve" smooth="yes"/>
      <point x="67" y="301" type="line" smooth="yes"/>
      <point x="67" y="285"/>
      <point x="80" y="272"/>
      <point x="94" y="272" type="curve" smooth="yes"/>
      <point x="107" y="272"/>
      <point x="121" y="280"/>
      <point x="133" y="297" type="curve" smooth="yes"/>
      <point x="160" y="333"/>
      <point x="194" y="346"/>
      <point x="232" y="346" type="curve" smooth="yes"/>
      <point x="312" y="346"/>
      <point x="359" y="287"/>
      <point x="359" y="182" type="curve" smooth="yes"/>
      <point x="359" y="89"/>
      <point x="313" y="36"/>
      <point x="249" y="36" type="curve" smooth="yes"/>
      <point x="191" y="36"/>
      <point x="156" y="64"/>
      <point x="156" y="94" type="curve" smooth="yes"/>
      <point x="156" y="126" type="line" smooth="yes"/>
      <point x="156" y="164"/>
      <point x="130" y="189"/>
      <point x="97" y="189" type="curve" smooth="yes"/>
      <point x="66" y="189"/>
      <point x="39" y="162"/>
    </contour>
  </outline>
</glyph>
<glyph name="six" format="2">
  <advance width="519"/>
  <unicode hex="0036"/>
  <outline>
    <contour>
      <point x="394" y="651" type="line" smooth="yes"/>
      <point x="192" y="651"/>
      <point x="41" y="481"/>
      <point x="41" y="272" type="curve" smooth="yes"/>
      <point x="41" y="89"/>
      <point x="139" y="-15"/>
      <point x="256" y="-15" type="curve" smooth="yes"/>
      <point x="385" y="-15"/>
      <point x="482" y="90"/>
      <point x="482" y="219" type="curve" smooth="yes"/>
      <point x="482" y="339"/>
      <point x="410" y="405"/>
      <point x="306" y="405" type="curve" smooth="yes"/>
      <point x="192" y="405"/>
      <point x="101" y="322"/>
      <point x="101" y="222" type="curve"/>
      <point x="131" y="208" type="line"/>
      <point x="131" y="285"/>
      <point x="191" y="340"/>
      <point x="267" y="340" type="curve" smooth="yes"/>
      <point x="332" y="340"/>
      <point x="387" y="288"/>
      <point x="387" y="186" type="curve" smooth="yes"/>
      <point x="387" y="95"/>
      <point x="346" y="44"/>
      <point x="280" y="44" type="curve" smooth="yes"/>
      <point x="204" y="44"/>
      <point x="141" y="136"/>
      <point x="141" y="302" type="curve" smooth="yes"/>
      <point x="141" y="481"/>
      <point x="250" y="587"/>
      <point x="397" y="597" type="curve" smooth="yes"/>
      <point x="425" y="599" type="line" smooth="yes"/>
      <point x="437" y="600"/>
      <point x="449" y="609"/>
      <point x="449" y="624" type="curve" smooth="yes"/>
      <point x="449" y="639"/>
      <point x="438" y="651"/>
      <point x="424" y="651" type="curve" smooth="yes"/>
    </contour>
  </outline>
</glyph>
<glyph name="seven" format="2">
  <advance width="550"/>
  <unicode hex="0037"/>
  <outline>
    <contour>
      <point x="419" y="545" type="curve" smooth="yes"/>
      <point x="355" y="455" type="line" smooth="yes"/>
      <point x="208" y="248"/>
      <point x="190.0" y="163.0"/>
      <point x="190" y="83" type="curve" smooth="yes"/>
      <point x="190" y="22"/>
      <point x="221" y="-15.0"/>
      <point x="268" y="-15" type="curve" smooth="yes"/>
      <point x="315" y="-15"/>
      <point x="338" y="15"/>
      <point x="339" y="49" type="curve" smooth="yes"/>
      <point x="339.0" y="90"/>
      <point x="301" y="122"/>
      <point x="301.0" y="176" type="curve" smooth="yes"/>
      <point x="301.0" y="248.0"/>
      <point x="318" y="322"/>
      <point x="395" y="432" type="curve" smooth="yes"/>
      <point x="469" y="538" type="line" smooth="yes"/>
      <point x="489" y="567"/>
      <point x="494.0" y="585.0"/>
      <point x="494" y="607" type="curve" smooth="yes"/>
      <point x="494" y="625"/>
      <point x="482.0" y="638.0"/>
      <point x="463" y="638" type="curve" smooth="yes"/>
      <point x="113" y="638" type="line" smooth="yes"/>
      <point x="90" y="638"/>
      <point x="78" y="619"/>
      <point x="75" y="592" type="curve" smooth="yes"/>
      <point x="65" y="495" type="line" smooth="yes"/>
      <point x="63" y="476"/>
      <point x="73" y="466"/>
      <point x="85" y="466" type="curve" smooth="yes"/>
      <point x="100" y="466"/>
      <point x="111" y="479"/>
      <point x="118" y="493" type="curve" smooth="yes"/>
      <point x="133" y="522" type="line" smooth="yes"/>
      <point x="146" y="547"/>
      <point x="164" y="556"/>
      <point x="192" y="556" type="curve" smooth="yes"/>
      <point x="449" y="556" type="line"/>
      <point x="440" y="605" type="line"/>
      <point x="440.0" y="587"/>
      <point x="435" y="568"/>
    </contour>
  </outline>
</glyph>
<glyph name="eight" format="2">
  <advance width="550"/>
  <unicode hex="0038"/>
  <outline>
    <contour>
      <point x="267" y="-15" type="curve" smooth="yes"/>
      <point x="386" y="-15.0"/>
      <point x="478.0" y="55.0"/>
      <point x="478" y="154" type="curve" smooth="yes"/>
      <point x="478.0" y="225.0"/>
      <point x="432" y="288"/>
      <point x="309" y="334" type="curve" smooth="yes"/>
      <point x="188" y="376"/>
      <point x="155.0" y="430.0"/>
      <point x="155" y="495" type="curve" smooth="yes"/>
      <point x="155.0" y="552.0"/>
      <point x="199" y="593.0"/>
      <point x="273" y="593" type="curve" smooth="yes"/>
      <point x="342" y="593.0"/>
      <point x="389.0" y="548.0"/>
      <point x="389" y="475" type="curve" smooth="yes"/>
      <point x="389.0" y="418.0"/>
      <point x="355" y="355"/>
      <point x="302" y="324" type="curve"/>
      <point x="312" y="302" type="line"/>
      <point x="409" y="325"/>
      <point x="480.0" y="408.0"/>
      <point x="480" y="489" type="curve" smooth="yes"/>
      <point x="480.0" y="577.0"/>
      <point x="411" y="651.0"/>
      <point x="297" y="651" type="curve" smooth="yes"/>
      <point x="166" y="651.0"/>
      <point x="68.0" y="566.0"/>
      <point x="68" y="463" type="curve" smooth="yes"/>
      <point x="68.0" y="371.0"/>
      <point x="123" y="309"/>
      <point x="246" y="263" type="curve" smooth="yes"/>
      <point x="357" y="222"/>
      <point x="387.0" y="184.0"/>
      <point x="387" y="127" type="curve" smooth="yes"/>
      <point x="387.0" y="70.0"/>
      <point x="354" y="38.0"/>
      <point x="285" y="38" type="curve" smooth="yes"/>
      <point x="210" y="38.0"/>
      <point x="167.0" y="87.0"/>
      <point x="167" y="160" type="curve" smooth="yes"/>
      <point x="167.0" y="205.0"/>
      <point x="189" y="250"/>
      <point x="240" y="288" type="curve"/>
      <point x="234" y="302" type="line"/>
      <point x="138" y="284"/>
      <point x="76.0" y="226.0"/>
      <point x="76" y="142" type="curve" smooth="yes"/>
      <point x="76.0" y="49.0"/>
      <point x="140" y="-15.0"/>
    </contour>
  </outline>
</glyph>
<glyph name="less" format="2">
  <advance width="479"/>
  <unicode hex="003C"/>
  <outline>
    <contour>
      <point x="52" y="241" type="curve" smooth="yes"/>
      <point x="57" y="226"/>
      <point x="69" y="219"/>
      <point x="84" y="226" type="curve" smooth="yes"/>
      <point x="411" y="370" type="line" smooth="yes"/>
      <point x="426" y="377"/>
      <point x="432" y="388"/>
      <point x="427" y="402" type="curve" smooth="yes"/>
      <point x="421" y="418"/>
      <point x="407" y="425"/>
      <point x="393" y="419" type="curve" smooth="yes"/>
      <point x="67" y="275" type="line" smooth="yes"/>
      <point x="53" y="269"/>
      <point x="47" y="256"/>
    </contour>
    <contour>
      <point x="52" y="257" type="curve" smooth="yes"/>
      <point x="47" y="242"/>
      <point x="53" y="229"/>
      <point x="67" y="223" type="curve" smooth="yes"/>
      <point x="393" y="79" type="line" smooth="yes"/>
      <point x="407" y="73"/>
      <point x="421" y="80"/>
      <point x="427" y="96" type="curve" smooth="yes"/>
      <point x="432" y="110"/>
      <point x="426" y="121"/>
      <point x="411" y="128" type="curve" smooth="yes"/>
      <point x="84" y="272" type="line" smooth="yes"/>
      <point x="69" y="279"/>
      <point x="57" y="272"/>
    </contour>
  </outline>
</glyph>
<glyph name="question" format="2">
  <advance width="471"/>
  <unicode hex="003F"/>
  <outline>
    <contour>
      <point x="101" y="287" type="line" smooth="yes"/>
      <point x="98" y="305"/>
      <point x="105" y="325"/>
      <point x="128" y="334" type="curve" smooth="yes"/>
      <point x="224" y="372" type="line" smooth="yes"/>
      <point x="301" y="403"/>
      <point x="338" y="459"/>
      <point x="338" y="520" type="curve" smooth="yes"/>
      <point x="338" y="622"/>
      <point x="288" y="668"/>
      <point x="211" y="668" type="curve" smooth="yes"/>
      <point x="174" y="668"/>
      <point x="153" y="651"/>
      <point x="153" y="612" type="curve" smooth="yes"/>
      <point x="153" y="575" type="line" smooth="yes"/>
      <point x="153" y="541"/>
      <point x="126" y="515"/>
      <point x="94" y="515" type="curve" smooth="yes"/>
      <point x="64" y="515"/>
      <point x="44" y="537"/>
      <point x="44" y="575" type="curve" smooth="yes"/>
      <point x="44" y="642"/>
      <point x="126" y="713"/>
      <point x="233" y="713" type="curve" smooth="yes"/>
      <point x="360" y="713"/>
      <point x="439" y="656"/>
      <point x="439" y="549" type="curve" smooth="yes"/>
      <point x="439" y="449"/>
      <point x="373" y="372"/>
      <point x="244" y="325" type="curve" smooth="yes"/>
      <point x="191" y="305" type="line" smooth="yes"/>
      <point x="176" y="299"/>
      <point x="170" y="284"/>
      <point x="168" y="269" type="curve" smooth="yes"/>
      <point x="162" y="218" type="line" smooth="yes"/>
      <point x="160" y="199"/>
      <point x="152" y="190"/>
      <point x="136" y="190" type="curve" smooth="yes"/>
      <point x="119" y="190"/>
      <point x="113" y="203"/>
      <point x="111" y="219" type="curve" smooth="yes"/>
    </contour>
    <component base="period" xScale="0.9329999999999999" yScale="0.9329999999999999" xOffset="-5" yOffset="2"/>
  </outline>
</glyph>
<glyph name="at" format="2">
  <advance width="778"/>
  <unicode hex="0040"/>
  <outline>
    <contour>
      <point x="491" y="241" type="curve"/>
      <point x="486" y="270" type="line"/>
      <point x="461" y="279"/>
      <point x="435" y="286"/>
      <point x="397" y="286" type="curve" smooth="yes"/>
      <point x="292" y="286"/>
      <point x="245" y="238"/>
      <point x="245" y="188" type="curve" smooth="yes"/>
      <point x="245" y="128"/>
      <point x="292" y="91"/>
      <point x="362" y="91" type="curve" smooth="yes"/>
      <point x="415" y="91"/>
      <point x="467" y="115"/>
      <point x="499" y="158" type="curve"/>
      <point x="477" y="186" type="line"/>
      <point x="459" y="153"/>
      <point x="426" y="139"/>
      <point x="393" y="139" type="curve" smooth="yes"/>
      <point x="355" y="139"/>
      <point x="328" y="161"/>
      <point x="328" y="199" type="curve" smooth="yes"/>
      <point x="328" y="227"/>
      <point x="350" y="251"/>
      <point x="396" y="251" type="curve" smooth="yes"/>
      <point x="434" y="251"/>
      <point x="463" y="247"/>
    </contour>
    <contour>
      <point x="260" y="363" type="curve" smooth="yes"/>
      <point x="260" y="342"/>
      <point x="274" y="328"/>
      <point x="292" y="328" type="curve" smooth="yes"/>
      <point x="322" y="328"/>
      <point x="341" y="349"/>
      <point x="341" y="377" type="curve" smooth="yes"/>
      <point x="341" y="393" type="line" smooth="yes"/>
      <point x="341" y="415"/>
      <point x="359" y="425"/>
      <point x="385" y="425" type="curve" smooth="yes"/>
      <point x="425" y="425"/>
      <point x="445" y="402"/>
      <point x="451" y="350" type="curve" smooth="yes"/>
      <point x="466" y="193" type="line" smooth="yes"/>
      <point x="474" y="120"/>
      <point x="514" y="91"/>
      <point x="567" y="91" type="curve" smooth="yes"/>
      <point x="661" y="91"/>
      <point x="727" y="180"/>
      <point x="727" y="311" type="curve" smooth="yes"/>
      <point x="727" y="484"/>
      <point x="592" y="614"/>
      <point x="408" y="614" type="curve" smooth="yes"/>
      <point x="200" y="614"/>
      <point x="47" y="472"/>
      <point x="47" y="277" type="curve" smooth="yes"/>
      <point x="47" y="66"/>
      <point x="194" y="-83"/>
      <point x="405" y="-83" type="curve" smooth="yes"/>
      <point x="529" y="-83"/>
      <point x="636" y="-36"/>
      <point x="699" y="30" type="curve" smooth="yes"/>
      <point x="727" y="59"/>
      <point x="705" y="90"/>
      <point x="675" y="59" type="curve" smooth="yes"/>
      <point x="612" y="-1"/>
      <point x="513" y="-36"/>
      <point x="406" y="-36" type="curve" smooth="yes"/>
      <point x="227" y="-36"/>
      <point x="98" y="102"/>
      <point x="98" y="277" type="curve" smooth="yes"/>
      <point x="98" y="445"/>
      <point x="228" y="567"/>
      <point x="402" y="567" type="curve" smooth="yes"/>
      <point x="558" y="567"/>
      <point x="675" y="456"/>
      <point x="675" y="310" type="curve" smooth="yes"/>
      <point x="675" y="205"/>
      <point x="641" y="134"/>
      <point x="587" y="134" type="curve" smooth="yes"/>
      <point x="552" y="134"/>
      <point x="538" y="158"/>
      <point x="534" y="201" type="curve" smooth="yes"/>
      <point x="514" y="367" type="line" smooth="yes"/>
      <point x="507" y="429"/>
      <point x="472" y="461"/>
      <point x="412" y="461" type="curve" smooth="yes"/>
      <point x="377" y="461"/>
      <point x="350" y="450"/>
      <point x="321" y="433" type="curve" smooth="yes"/>
      <point x="280" y="408"/>
      <point x="260" y="385"/>
    </contour>
  </outline>
</glyph>
<glyph name="A" format="2">
  <advance width="705"/>
  <unicode hex="0041"/>
  <outline>
    <contour>
      <point x="168" y="289" type="line"/>
      <point x="171" y="241" type="line"/>
      <point x="489" y="241" type="line"/>
      <point x="483" y="289" type="line"/>
    </contour>
    <contour>
      <point x="241" y="21" type="curve" smooth="yes"/>
      <point x="241" y="32"/>
      <point x="229" y="41"/>
      <point x="200" y="53" type="curve" smooth="yes"/>
      <point x="177" y="63" type="line" smooth="yes"/>
      <point x="159" y="70"/>
      <point x="146" y="82"/>
      <point x="163" y="133" type="curve" smooth="yes"/>
      <point x="330" y="620" type="line"/>
      <point x="342" y="620" type="line"/>
      <point x="508" y="113" type="line" smooth="yes"/>
      <point x="519" y="79"/>
      <point x="505" y="55"/>
      <point x="484" y="50" type="curve" smooth="yes"/>
      <point x="463" y="46" type="line" smooth="yes"/>
      <point x="448" y="42"/>
      <point x="439" y="35"/>
      <point x="439" y="21" type="curve" smooth="yes"/>
      <point x="439" y="7"/>
      <point x="449" y="0"/>
      <point x="464" y="0" type="curve" smooth="yes"/>
      <point x="674" y="0" type="line" smooth="yes"/>
      <point x="692" y="0"/>
      <point x="704" y="7"/>
      <point x="704" y="20" type="curve" smooth="yes"/>
      <point x="704" y="32"/>
      <point x="696" y="39"/>
      <point x="670" y="49" type="curve" smooth="yes"/>
      <point x="644" y="58"/>
      <point x="634" y="72"/>
      <point x="621" y="109" type="curve" smooth="yes"/>
      <point x="453" y="606" type="line" smooth="yes"/>
      <point x="443" y="635"/>
      <point x="468" y="647"/>
      <point x="468" y="676" type="curve" smooth="yes"/>
      <point x="468" y="690"/>
      <point x="455" y="700"/>
      <point x="438" y="700" type="curve" smooth="yes"/>
      <point x="261" y="700" type="line" smooth="yes"/>
      <point x="244" y="700"/>
      <point x="230" y="690"/>
      <point x="230" y="676" type="curve" smooth="yes"/>
      <point x="230" y="646"/>
      <point x="270" y="629"/>
      <point x="258" y="592" type="curve" smooth="yes"/>
      <point x="100" y="133" type="line" smooth="yes"/>
      <point x="80" y="76"/>
      <point x="55" y="63"/>
      <point x="33" y="52" type="curve" smooth="yes"/>
      <point x="9" y="41"/>
      <point x="0" y="32"/>
      <point x="0" y="18" type="curve" smooth="yes"/>
      <point x="0" y="5"/>
      <point x="10" y="0"/>
      <point x="34" y="0" type="curve" smooth="yes"/>
      <point x="212" y="0" type="line" smooth="yes"/>
      <point x="230" y="0"/>
      <point x="241" y="8"/>
    </contour>
  </outline>
</glyph>
<glyph name="C" format="2">
  <advance width="664"/>
  <unicode hex="0043"/>
  <outline>
    <contour>
      <point x="617" y="92" type="curve" smooth="yes"/>
      <point x="628" y="103"/>
      <point x="633" y="112"/>
      <point x="633" y="121" type="curve" smooth="yes"/>
      <point x="633" y="131"/>
      <point x="625" y="138"/>
      <point x="615" y="138" type="curve" smooth="yes"/>
      <point x="604" y="138"/>
      <point x="592" y="133"/>
      <point x="580" y="123" type="curve" smooth="yes"/>
      <point x="546" y="95"/>
      <point x="488" y="76"/>
      <point x="422" y="76" type="curve" smooth="yes"/>
      <point x="252" y="76"/>
      <point x="135" y="205"/>
      <point x="135" y="390" type="curve" smooth="yes"/>
      <point x="135" y="558"/>
      <point x="228" y="659"/>
      <point x="357" y="659.0" type="curve" smooth="yes"/>
      <point x="426.3809523809524" y="659.0"/>
      <point x="472.30890725552905" y="640.1976821494527"/>
      <point x="545" y="565" type="curve" smooth="yes"/>
      <point x="574" y="535" type="line" smooth="yes"/>
      <point x="589" y="520"/>
      <point x="599" y="509"/>
      <point x="614" y="509" type="curve" smooth="yes"/>
      <point x="627" y="509.0"/>
      <point x="637.0" y="519.0"/>
      <point x="637" y="532" type="curve" smooth="yes"/>
      <point x="637" y="540"/>
      <point x="636" y="546"/>
      <point x="628" y="567" type="curve" smooth="yes"/>
      <point x="586" y="681" type="line" smooth="yes"/>
      <point x="577" y="705"/>
      <point x="570" y="713"/>
      <point x="557" y="713" type="curve" smooth="yes"/>
      <point x="548" y="713"/>
      <point x="540" y="707"/>
      <point x="535" y="697" type="curve" smooth="yes"/>
      <point x="529" y="686"/>
      <point x="522" y="684"/>
      <point x="514" y="684" type="curve" smooth="yes"/>
      <point x="505" y="684"/>
      <point x="498" y="685"/>
      <point x="480" y="693" type="curve" smooth="yes"/>
      <point x="451.0359775444662" y="705.7441698804348"/>
      <point x="418.2857142857143" y="713.0"/>
      <point x="372" y="713" type="curve" smooth="yes"/>
      <point x="179" y="713"/>
      <point x="37" y="561"/>
      <point x="37" y="346" type="curve" smooth="yes"/>
      <point x="37" y="135"/>
      <point x="178" y="-15"/>
      <point x="374" y="-15" type="curve" smooth="yes"/>
      <point x="456" y="-15"/>
      <point x="537" y="21"/>
    </contour>
  </outline>
</glyph>
<glyph name="E" format="2">
  <advance width="623"/>
  <unicode hex="0045"/>
  <outline>
    <contour>
      <point x="209" y="365" type="line"/>
      <point x="203" y="319" type="line"/>
      <point x="380" y="319" type="line" smooth="yes"/>
      <point x="409" y="319"/>
      <point x="433" y="306"/>
      <point x="439" y="294" type="curve" smooth="yes"/>
      <point x="453" y="272" type="line" smooth="yes"/>
      <point x="459" y="260"/>
      <point x="470" y="253"/>
      <point x="480" y="253" type="curve" smooth="yes"/>
      <point x="495" y="253"/>
      <point x="500" y="264"/>
      <point x="500" y="278" type="curve" smooth="yes"/>
      <point x="500" y="410" type="line" smooth="yes"/>
      <point x="500" y="424"/>
      <point x="494" y="436"/>
      <point x="480" y="436" type="curve" smooth="yes"/>
      <point x="464" y="436"/>
      <point x="456" y="426"/>
      <point x="446" y="407" type="curve" smooth="yes"/>
      <point x="435" y="387" type="line" smooth="yes"/>
      <point x="426" y="372"/>
      <point x="402" y="365"/>
      <point x="376" y="365" type="curve" smooth="yes"/>
    </contour>
    <contour>
      <point x="41" y="679" type="curve" smooth="yes"/>
      <point x="41" y="665"/>
      <point x="53" y="659"/>
      <point x="73" y="655" type="curve" smooth="yes"/>
      <point x="103" y="649" type="line" smooth="yes"/>
      <point x="120" y="645"/>
      <point x="131" y="632"/>
      <point x="131" y="613" type="curve" smooth="yes"/>
      <point x="131" y="104" type="line" smooth="yes"/>
      <point x="131" y="74"/>
      <point x="119" y="60"/>
      <point x="93" y="52" type="curve" smooth="yes"/>
      <point x="74" y="47" type="line" smooth="yes"/>
      <point x="52" y="40"/>
      <point x="41" y="35"/>
      <point x="41" y="21" type="curve" smooth="yes"/>
      <point x="41" y="7"/>
      <point x="53" y="0"/>
      <point x="72" y="0" type="curve" smooth="yes"/>
      <point x="445" y="0" type="line" smooth="yes"/>
      <point x="466" y="0"/>
      <point x="486" y="-25"/>
      <point x="508" y="-25" type="curve" smooth="yes"/>
      <point x="526" y="-25"/>
      <point x="537" y="-15"/>
      <point x="540" y="-3" type="curve" smooth="yes"/>
      <point x="576" y="146" type="line" smooth="yes"/>
      <point x="579" y="161"/>
      <point x="573" y="174"/>
      <point x="560" y="174" type="curve" smooth="yes"/>
      <point x="548" y="174"/>
      <point x="536" y="164"/>
      <point x="522" y="141" type="curve" smooth="yes"/>
      <point x="497" y="101" type="line" smooth="yes"/>
      <point x="476" y="67"/>
      <point x="446" y="52"/>
      <point x="402" y="52" type="curve" smooth="yes"/>
      <point x="305" y="52" type="line" smooth="yes"/>
      <point x="260" y="52"/>
      <point x="235" y="75"/>
      <point x="235" y="110" type="curve" smooth="yes"/>
      <point x="235" y="650" type="line"/>
      <point x="387" y="650" type="line" smooth="yes"/>
      <point x="429" y="650"/>
      <point x="466" y="634"/>
      <point x="491" y="602" type="curve" smooth="yes"/>
      <point x="518" y="568" type="line" smooth="yes"/>
      <point x="534" y="549"/>
      <point x="543" y="541"/>
      <point x="558" y="541" type="curve" smooth="yes"/>
      <point x="569" y="541"/>
      <point x="578" y="552"/>
      <point x="572" y="573" type="curve" smooth="yes"/>
      <point x="536" y="702" type="line" smooth="yes"/>
      <point x="532" y="720"/>
      <point x="526" y="727"/>
      <point x="510" y="727" type="curve" smooth="yes"/>
      <point x="500" y="727"/>
      <point x="492" y="722"/>
      <point x="483" y="713" type="curve" smooth="yes"/>
      <point x="476" y="705"/>
      <point x="464" y="700"/>
      <point x="454" y="700" type="curve" smooth="yes"/>
      <point x="72" y="700" type="line" smooth="yes"/>
      <point x="52" y="700"/>
      <point x="41" y="693"/>
    </contour>
  </outline>
</glyph>
<glyph name="F" format="2">
  <advance width="576"/>
  <unicode hex="0046"/>
  <outline>
    <contour>
      <point x="321" y="42" type="curve" smooth="yes"/>
      <point x="279" y="51" type="line" smooth="yes"/>
      <point x="250" y="58"/>
      <point x="235" y="75"/>
      <point x="235" y="110" type="curve" smooth="yes"/>
      <point x="235" y="649" type="line"/>
      <point x="359" y="649" type="line" smooth="yes"/>
      <point x="403" y="649"/>
      <point x="448" y="624"/>
      <point x="487" y="572" type="curve" smooth="yes"/>
      <point x="505" y="548"/>
      <point x="515" y="541"/>
      <point x="530" y="541" type="curve" smooth="yes"/>
      <point x="541" y="541"/>
      <point x="550" y="551"/>
      <point x="544" y="573" type="curve" smooth="yes"/>
      <point x="508" y="702" type="line" smooth="yes"/>
      <point x="504" y="720"/>
      <point x="498" y="727"/>
      <point x="482" y="727" type="curve" smooth="yes"/>
      <point x="472" y="727"/>
      <point x="464" y="722"/>
      <point x="455" y="713" type="curve" smooth="yes"/>
      <point x="448" y="704"/>
      <point x="436" y="700"/>
      <point x="426" y="700" type="curve" smooth="yes"/>
      <point x="72" y="700" type="line" smooth="yes"/>
      <point x="52" y="700"/>
      <point x="41" y="693"/>
      <point x="41" y="679" type="curve" smooth="yes"/>
      <point x="41" y="665"/>
      <point x="53" y="660"/>
      <point x="73" y="655" type="curve" smooth="yes"/>
      <point x="103" y="648" type="line" smooth="yes"/>
      <point x="120" y="645"/>
      <point x="131" y="632"/>
      <point x="131" y="613" type="curve" smooth="yes"/>
      <point x="131" y="104" type="line" smooth="yes"/>
      <point x="131" y="74"/>
      <point x="119" y="60"/>
      <point x="93" y="52" type="curve" smooth="yes"/>
      <point x="74" y="47" type="line" smooth="yes"/>
      <point x="52" y="40"/>
      <point x="41" y="35"/>
      <point x="41" y="21" type="curve" smooth="yes"/>
      <point x="41" y="7"/>
      <point x="53" y="0"/>
      <point x="72" y="0" type="curve" smooth="yes"/>
      <point x="313" y="0" type="line" smooth="yes"/>
      <point x="330" y="0"/>
      <point x="345" y="7"/>
      <point x="345" y="21" type="curve" smooth="yes"/>
      <point x="345" y="30"/>
      <point x="337" y="38"/>
    </contour>
    <contour>
      <point x="181" y="348" type="line"/>
      <point x="175" y="298" type="line"/>
      <point x="361" y="298" type="line" smooth="yes"/>
      <point x="390" y="298"/>
      <point x="413" y="286"/>
      <point x="421" y="274" type="curve" smooth="yes"/>
      <point x="434" y="253" type="line" smooth="yes"/>
      <point x="441" y="241"/>
      <point x="452" y="234"/>
      <point x="462" y="234" type="curve" smooth="yes"/>
      <point x="477" y="234"/>
      <point x="481" y="245"/>
      <point x="481" y="259" type="curve" smooth="yes"/>
      <point x="481" y="391" type="line" smooth="yes"/>
      <point x="481" y="405"/>
      <point x="475" y="417"/>
      <point x="461" y="417" type="curve" smooth="yes"/>
      <point x="445" y="417"/>
      <point x="439" y="406"/>
      <point x="427" y="388" type="curve" smooth="yes"/>
      <point x="416" y="370" type="line" smooth="yes"/>
      <point x="407" y="355"/>
      <point x="383" y="348"/>
      <point x="357" y="348" type="curve" smooth="yes"/>
    </contour>
  </outline>
</glyph>
<glyph name="G" format="2">
  <advance width="744"/>
  <unicode hex="0047"/>
  <outline>
    <contour>
      <point x="647" y="25" type="curve" smooth="yes"/>
      <point x="647" y="201" type="line" smooth="yes"/>
      <point x="647" y="224"/>
      <point x="656" y="240"/>
      <point x="672" y="245" type="curve" smooth="yes"/>
      <point x="688" y="251" type="line" smooth="yes"/>
      <point x="710" y="258"/>
      <point x="716" y="263"/>
      <point x="716" y="274" type="curve" smooth="yes"/>
      <point x="716" y="286"/>
      <point x="704" y="293"/>
      <point x="685" y="293" type="curve" smooth="yes"/>
      <point x="463" y="293" type="line" smooth="yes"/>
      <point x="443" y="293"/>
      <point x="432" y="286"/>
      <point x="432" y="274" type="curve" smooth="yes"/>
      <point x="432" y="261"/>
      <point x="442" y="253"/>
      <point x="460" y="251" type="curve" smooth="yes"/>
      <point x="494" y="245" type="line" smooth="yes"/>
      <point x="522" y="240"/>
      <point x="540" y="229"/>
      <point x="540" y="211" type="curve" smooth="yes"/>
      <point x="540" y="109" type="line" smooth="yes"/>
      <point x="540" y="75.69387755102042"/>
      <point x="512" y="58.0"/>
      <point x="443" y="58" type="curve" smooth="yes"/>
      <point x="270" y="58"/>
      <point x="137.0" y="171.7290322580645"/>
      <point x="137" y="370" type="curve" smooth="yes"/>
      <point x="137" y="542.0"/>
      <point x="228.0" y="659.0"/>
      <point x="379" y="659" type="curve" smooth="yes"/>
      <point x="453" y="659"/>
      <point x="516" y="631"/>
      <point x="581" y="563" type="curve" smooth="yes"/>
      <point x="608" y="535" type="line" smooth="yes"/>
      <point x="626" y="517"/>
      <point x="633" y="510"/>
      <point x="644" y="510" type="curve" smooth="yes"/>
      <point x="657" y="510"/>
      <point x="665" y="518"/>
      <point x="665" y="530" type="curve" smooth="yes"/>
      <point x="665" y="540"/>
      <point x="663" y="550"/>
      <point x="659" y="564" type="curve" smooth="yes"/>
      <point x="616" y="685" type="line" smooth="yes"/>
      <point x="608" y="706"/>
      <point x="603" y="713"/>
      <point x="592" y="713" type="curve" smooth="yes"/>
      <point x="575" y="713"/>
      <point x="564" y="684"/>
      <point x="544" y="684" type="curve" smooth="yes"/>
      <point x="522" y="684"/>
      <point x="481" y="713"/>
      <point x="392" y="713" type="curve" smooth="yes"/>
      <point x="187" y="713"/>
      <point x="37" y="549"/>
      <point x="37" y="336" type="curve" smooth="yes"/>
      <point x="37" y="132"/>
      <point x="194" y="-15"/>
      <point x="378" y="-15.0" type="curve" smooth="yes"/>
      <point x="461.0" y="-15.0"/>
      <point x="502.0" y="25.0"/>
      <point x="533" y="25" type="curve" smooth="yes"/>
      <point x="561.0" y="25.0"/>
      <point x="581.0" y="-15.0"/>
      <point x="612" y="-15.0" type="curve" smooth="yes"/>
      <point x="638" y="-15"/>
      <point x="647" y="0.6521739130434767"/>
    </contour>
  </outline>
</glyph>
<glyph name="H" format="2">
  <advance width="803"/>
  <unicode hex="0048"/>
  <outline>
    <contour>
      <point x="213" y="369" type="line"/>
      <point x="213" y="316" type="line"/>
      <point x="597" y="316" type="line"/>
      <point x="597" y="369" type="line"/>
    </contour>
    <component base="I" xOffset="-1"/>
    <component base="I" xOffset="438"/>
  </outline>
</glyph>
<glyph name="K" format="2">
  <advance width="698"/>
  <unicode hex="004B"/>
  <outline>
    <contour>
      <point x="177" y="201" type="line"/>
      <point x="223" y="189" type="line"/>
      <point x="564" y="584" type="line" smooth="yes"/>
      <point x="588" y="613"/>
      <point x="612" y="629"/>
      <point x="646" y="645" type="curve" smooth="yes"/>
      <point x="667" y="655"/>
      <point x="684" y="661"/>
      <point x="683" y="680" type="curve" smooth="yes"/>
      <point x="682" y="691"/>
      <point x="675" y="700"/>
      <point x="654" y="700" type="curve" smooth="yes"/>
      <point x="482" y="700" type="line" smooth="yes"/>
      <point x="465" y="700"/>
      <point x="453" y="694"/>
      <point x="453" y="682" type="curve" smooth="yes"/>
      <point x="453" y="669"/>
      <point x="462" y="663"/>
      <point x="473" y="657" type="curve" smooth="yes"/>
      <point x="499" y="641" type="line" smooth="yes"/>
      <point x="513" y="632"/>
      <point x="520" y="629"/>
      <point x="520" y="619" type="curve" smooth="yes"/>
      <point x="520" y="610"/>
      <point x="518" y="603"/>
      <point x="508" y="592" type="curve" smooth="yes"/>
    </contour>
    <contour>
      <point x="327" y="341" type="line"/>
      <point x="479" y="111" type="line" smooth="yes"/>
      <point x="489" y="96"/>
      <point x="494" y="88"/>
      <point x="494" y="72" type="curve" smooth="yes"/>
      <point x="494" y="59"/>
      <point x="490" y="51"/>
      <point x="472" y="41" type="curve" smooth="yes"/>
      <point x="459" y="34"/>
      <point x="448" y="30"/>
      <point x="448" y="18" type="curve" smooth="yes"/>
      <point x="448" y="6"/>
      <point x="459" y="0"/>
      <point x="477" y="0" type="curve" smooth="yes"/>
      <point x="668" y="0" type="line" smooth="yes"/>
      <point x="689" y="0"/>
      <point x="698" y="8"/>
      <point x="698" y="21" type="curve" smooth="yes"/>
      <point x="698" y="33"/>
      <point x="689" y="37"/>
      <point x="676" y="42" type="curve" smooth="yes"/>
      <point x="654" y="52"/>
      <point x="635" y="60"/>
      <point x="616" y="88" type="curve" smooth="yes"/>
      <point x="392" y="411" type="line"/>
    </contour>
    <component base="I"/>
  </outline>
</glyph>
<glyph name="M" format="2">
  <advance width="915"/>
  <unicode hex="004D"/>
  <outline>
    <contour>
      <point x="492" y="188" type="line"/>
      <point x="248" y="667" type="line" smooth="yes"/>
      <point x="236" y="690"/>
      <point x="225" y="700"/>
      <point x="204" y="700" type="curve" smooth="yes"/>
      <point x="97" y="700" type="line" smooth="yes"/>
      <point x="78" y="700"/>
      <point x="66" y="694"/>
      <point x="66" y="681" type="curve" smooth="yes"/>
      <point x="66" y="669"/>
      <point x="76" y="660"/>
      <point x="94" y="652" type="curve" smooth="yes"/>
      <point x="113" y="645" type="line" smooth="yes"/>
      <point x="132" y="637"/>
      <point x="146" y="626"/>
      <point x="145" y="606" type="curve" smooth="yes"/>
      <point x="114" y="113" type="line" smooth="yes"/>
      <point x="112" y="86"/>
      <point x="97" y="72"/>
      <point x="73" y="62" type="curve" smooth="yes"/>
      <point x="55" y="54" type="line" smooth="yes"/>
      <point x="31" y="44"/>
      <point x="22" y="35"/>
      <point x="22" y="21" type="curve" smooth="yes"/>
      <point x="22" y="5"/>
      <point x="35" y="0"/>
      <point x="53" y="0" type="curve" smooth="yes"/>
      <point x="229" y="0" type="line" smooth="yes"/>
      <point x="250" y="0"/>
      <point x="264" y="8"/>
      <point x="264" y="22" type="curve" smooth="yes"/>
      <point x="264" y="38"/>
      <point x="257" y="45"/>
      <point x="241" y="50" type="curve" smooth="yes"/>
      <point x="204" y="64" type="line" smooth="yes"/>
      <point x="176" y="75"/>
      <point x="163" y="91"/>
      <point x="165" y="113" type="curve" smooth="yes"/>
      <point x="196" y="592" type="line"/>
      <point x="169" y="585" type="line"/>
      <point x="415" y="102" type="line" smooth="yes"/>
      <point x="425" y="83"/>
      <point x="434" y="72"/>
      <point x="446" y="72" type="curve" smooth="yes"/>
      <point x="467" y="72"/>
      <point x="480" y="89"/>
      <point x="498" y="132" type="curve" smooth="yes"/>
      <point x="708" y="608" type="line"/>
      <point x="674" y="607" type="line"/>
      <point x="720" y="92" type="line" smooth="yes"/>
      <point x="723" y="66"/>
      <point x="711" y="51"/>
      <point x="693" y="48" type="curve" smooth="yes"/>
      <point x="668" y="42" type="line" smooth="yes"/>
      <point x="650" y="38"/>
      <point x="640" y="33"/>
      <point x="640" y="19" type="curve" smooth="yes"/>
      <point x="640" y="6"/>
      <point x="649" y="0"/>
      <point x="671" y="0" type="curve" smooth="yes"/>
      <point x="874" y="0" type="line" smooth="yes"/>
      <point x="896" y="0"/>
      <point x="905" y="6"/>
      <point x="905" y="19" type="curve" smooth="yes"/>
      <point x="905" y="33"/>
      <point x="894" y="36"/>
      <point x="877" y="42" type="curve" smooth="yes"/>
      <point x="861" y="48" type="line" smooth="yes"/>
      <point x="837" y="56"/>
      <point x="827" y="66"/>
      <point x="825" y="92" type="curve" smooth="yes"/>
      <point x="778" y="607" type="line" smooth="yes"/>
      <point x="776" y="633"/>
      <point x="787" y="648"/>
      <point x="805" y="652" type="curve" smooth="yes"/>
      <point x="832" y="658" type="line" smooth="yes"/>
      <point x="850" y="661"/>
      <point x="860" y="667"/>
      <point x="860" y="681" type="curve" smooth="yes"/>
      <point x="860" y="694"/>
      <point x="851" y="700"/>
      <point x="829" y="700" type="curve" smooth="yes"/>
      <point x="829" y="700"/>
      <point x="739" y="700"/>
      <point x="723" y="700" type="curve" smooth="yes"/>
      <point x="700" y="700"/>
      <point x="686" y="686"/>
      <point x="676" y="664" type="curve" smooth="yes"/>
      <point x="462" y="184" type="line"/>
    </contour>
  </outline>
</glyph>
<glyph name="N" format="2">
  <advance width="804"/>
  <unicode hex="004E"/>
  <outline>
    <contour>
      <point x="291" y="22" type="curve" smooth="yes"/>
      <point x="291" y="37"/>
      <point x="284" y="43"/>
      <point x="268" y="50" type="curve" smooth="yes"/>
      <point x="241" y="63" type="line" smooth="yes"/>
      <point x="212" y="76"/>
      <point x="193" y="87"/>
      <point x="193" y="108" type="curve" smooth="yes"/>
      <point x="193" y="545" type="line"/>
      <point x="180" y="539" type="line"/>
      <point x="529" y="116" type="line" smooth="yes"/>
      <point x="576" y="59"/>
      <point x="564" y="41"/>
      <point x="564" y="28" type="curve" smooth="yes"/>
      <point x="564" y="10"/>
      <point x="574" y="0"/>
      <point x="591" y="0" type="curve" smooth="yes"/>
      <point x="661" y="0" type="line" smooth="yes"/>
      <point x="675" y="0"/>
      <point x="686" y="8"/>
      <point x="686" y="20" type="curve" smooth="yes"/>
      <point x="686" y="49"/>
      <point x="669" y="69"/>
      <point x="669" y="104" type="curve" smooth="yes"/>
      <point x="669" y="587" type="line" smooth="yes"/>
      <point x="669" y="606"/>
      <point x="687" y="620"/>
      <point x="708" y="632" type="curve" smooth="yes"/>
      <point x="739" y="648" type="line" smooth="yes"/>
      <point x="757" y="657"/>
      <point x="762" y="665"/>
      <point x="762" y="677" type="curve" smooth="yes"/>
      <point x="762" y="690"/>
      <point x="747" y="700"/>
      <point x="730" y="700" type="curve" smooth="yes"/>
      <point x="536" y="700" type="line" smooth="yes"/>
      <point x="519" y="700"/>
      <point x="508" y="695"/>
      <point x="508" y="681" type="curve" smooth="yes"/>
      <point x="508" y="667"/>
      <point x="517" y="656"/>
      <point x="538" y="647" type="curve" smooth="yes"/>
      <point x="572" y="632" type="line" smooth="yes"/>
      <point x="602" y="619"/>
      <point x="611" y="608"/>
      <point x="611" y="587" type="curve" smooth="yes"/>
      <point x="611" y="149" type="line"/>
      <point x="624" y="156" type="line"/>
      <point x="213" y="660" type="line" smooth="yes"/>
      <point x="185" y="693"/>
      <point x="173" y="700"/>
      <point x="151" y="700" type="curve" smooth="yes"/>
      <point x="70" y="700" type="line" smooth="yes"/>
      <point x="51" y="700"/>
      <point x="39" y="693"/>
      <point x="39" y="678" type="curve" smooth="yes"/>
      <point x="39" y="663"/>
      <point x="49" y="658"/>
      <point x="67" y="648" type="curve" smooth="yes"/>
      <point x="96" y="634" type="line" smooth="yes"/>
      <point x="119" y="621"/>
      <point x="135" y="605"/>
      <point x="135" y="579" type="curve" smooth="yes"/>
      <point x="135" y="108" type="line" smooth="yes"/>
      <point x="135" y="88"/>
      <point x="118" y="73"/>
      <point x="96" y="63" type="curve" smooth="yes"/>
      <point x="69" y="51" type="line" smooth="yes"/>
      <point x="48" y="42"/>
      <point x="36" y="35"/>
      <point x="36" y="19" type="curve" smooth="yes"/>
      <point x="36" y="5"/>
      <point x="49" y="0"/>
      <point x="67" y="0" type="curve" smooth="yes"/>
      <point x="256" y="0" type="line" smooth="yes"/>
      <point x="277" y="0"/>
      <point x="291" y="8"/>
    </contour>
  </outline>
</glyph>
<glyph name="P" format="2">
  <advance width="629"/>
  <unicode hex="0050"/>
  <outline>
    <contour>
      <point x="611" y="446" type="curve" smooth="yes"/>
      <point x="611" y="598"/>
      <point x="488" y="700"/>
      <point x="304" y="700" type="curve" smooth="yes"/>
      <point x="72" y="700" type="line" smooth="yes"/>
      <point x="52" y="700"/>
      <point x="41" y="693"/>
      <point x="41" y="681" type="curve" smooth="yes"/>
      <point x="41" y="669"/>
      <point x="50" y="661"/>
      <point x="69" y="658" type="curve" smooth="yes"/>
      <point x="94" y="652" type="line" smooth="yes"/>
      <point x="118" y="647"/>
      <point x="131" y="630"/>
      <point x="131" y="607" type="curve" smooth="yes"/>
      <point x="131" y="92" type="line" smooth="yes"/>
      <point x="131" y="70"/>
      <point x="118" y="53"/>
      <point x="94" y="48" type="curve" smooth="yes"/>
      <point x="69" y="42" type="line" smooth="yes"/>
      <point x="50" y="38"/>
      <point x="41" y="31"/>
      <point x="41" y="19" type="curve" smooth="yes"/>
      <point x="41" y="7"/>
      <point x="52" y="0"/>
      <point x="72" y="0" type="curve" smooth="yes"/>
      <point x="294" y="0" type="line" smooth="yes"/>
      <point x="313" y="0"/>
      <point x="325" y="7"/>
      <point x="325" y="19" type="curve" smooth="yes"/>
      <point x="325" y="31"/>
      <point x="315" y="38"/>
      <point x="297" y="42" type="curve" smooth="yes"/>
      <point x="272" y="48" type="line" smooth="yes"/>
      <point x="248" y="53"/>
      <point x="235" y="70"/>
      <point x="235" y="92" type="curve" smooth="yes"/>
      <point x="235" y="646" type="line"/>
      <point x="299" y="646" type="line" smooth="yes"/>
      <point x="417" y="646"/>
      <point x="501" y="570"/>
      <point x="501" y="464" type="curve" smooth="yes"/>
      <point x="501" y="352"/>
      <point x="428" y="278"/>
      <point x="319" y="278" type="curve" smooth="yes"/>
      <point x="241" y="278"/>
      <point x="202" y="291"/>
      <point x="162" y="313" type="curve"/>
      <point x="152" y="268" type="line"/>
      <point x="193" y="245"/>
      <point x="233" y="230"/>
      <point x="322" y="230" type="curve" smooth="yes"/>
      <point x="494" y="230"/>
      <point x="611" y="317"/>
    </contour>
  </outline>
</glyph>
<glyph name="Q" format="2">
  <advance width="788"/>
  <unicode hex="0051"/>
  <outline>
    <contour>
      <point x="414" y="146" type="curve" smooth="yes"/>
      <point x="470" y="-53"/>
      <point x="573.0" y="-150.0"/>
      <point x="685" y="-150" type="curve" smooth="yes"/>
      <point x="712" y="-150"/>
      <point x="725" y="-144"/>
      <point x="734" y="-129" type="curve" smooth="yes"/>
      <point x="757" y="-87" type="line" smooth="yes"/>
      <point x="763" y="-77"/>
      <point x="766" y="-71"/>
      <point x="766" y="-62" type="curve" smooth="yes"/>
      <point x="766" y="-55"/>
      <point x="758" y="-49"/>
      <point x="747" y="-49" type="curve" smooth="yes"/>
      <point x="729" y="-49"/>
      <point x="713" y="-54"/>
      <point x="686" y="-54" type="curve" smooth="yes"/>
      <point x="577.0" y="-54.0"/>
      <point x="512" y="-3"/>
      <point x="461" y="149" type="curve" smooth="yes"/>
      <point x="454" y="168"/>
      <point x="447" y="177"/>
      <point x="435" y="178" type="curve" smooth="yes"/>
      <point x="421" y="179"/>
      <point x="408" y="166"/>
    </contour>
    <component base="O"/>
  </outline>
</glyph>
<glyph name="S" format="2">
  <advance width="569"/>
  <unicode hex="0053"/>
  <outline>
    <contour>
      <point x="302.0" y="-15.0" type="curve" smooth="yes"/>
      <point x="437.0" y="-15.0"/>
      <point x="517.0" y="71.0"/>
      <point x="517.0" y="180.0" type="curve" smooth="yes"/>
      <point x="517.0" y="258.0"/>
      <point x="476.0" y="326.0"/>
      <point x="325" y="378" type="curve" smooth="yes"/>
      <point x="185" y="426"/>
      <point x="143.0" y="472.0"/>
      <point x="143.0" y="543.0" type="curve" smooth="yes"/>
      <point x="143" y="609"/>
      <point x="196.27868852459017" y="658.0"/>
      <point x="268.0" y="658.0" type="curve" smooth="yes"/>
      <point x="325.98581560283685" y="658.0"/>
      <point x="377.1850079625429" y="635.347755284251"/>
      <point x="414.0" y="586.0" type="curve" smooth="yes"/>
      <point x="461.0" y="523.0" type="line" smooth="yes"/>
      <point x="472" y="508"/>
      <point x="482.0" y="498.0"/>
      <point x="499.0" y="498.0" type="curve" smooth="yes"/>
      <point x="515.0" y="498.0"/>
      <point x="522.0" y="509.0"/>
      <point x="522.0" y="524.0" type="curve" smooth="yes"/>
      <point x="522.0" y="537.0"/>
      <point x="518" y="547"/>
      <point x="515.0" y="557.0" type="curve" smooth="yes"/>
      <point x="472.0" y="681.0" type="line" smooth="yes"/>
      <point x="464" y="705"/>
      <point x="452.0" y="713.0"/>
      <point x="442.0" y="713.0" type="curve" smooth="yes"/>
      <point x="430.0" y="713.0"/>
      <point x="425.0" y="708.0"/>
      <point x="419.0" y="697.0" type="curve" smooth="yes"/>
      <point x="414.0" y="687.0"/>
      <point x="408.0" y="683.0"/>
      <point x="402.0" y="683.0" type="curve" smooth="yes"/>
      <point x="395.0" y="683.0"/>
      <point x="389.0" y="687.0"/>
      <point x="374.0" y="694.0" type="curve" smooth="yes"/>
      <point x="346.79015801676053" y="706.558388607649"/>
      <point x="320.13483146067415" y="713.0"/>
      <point x="280.0" y="713.0" type="curve" smooth="yes"/>
      <point x="141.0" y="713.0"/>
      <point x="49" y="617"/>
      <point x="49.0" y="506.0" type="curve" smooth="yes"/>
      <point x="49.0" y="412.0"/>
      <point x="104" y="346"/>
      <point x="255" y="296" type="curve" smooth="yes"/>
      <point x="392.0" y="251.0"/>
      <point x="423.0" y="211.0"/>
      <point x="423.0" y="144.0" type="curve" smooth="yes"/>
      <point x="423.0" y="78.0"/>
      <point x="379.0" y="37.0"/>
      <point x="309.0" y="37.0" type="curve" smooth="yes"/>
      <point x="234.0" y="37.0"/>
      <point x="186.0" y="67.0"/>
      <point x="156.0" y="114.0" type="curve" smooth="yes"/>
      <point x="126.0" y="161.0" type="line" smooth="yes"/>
      <point x="108.0" y="189.0"/>
      <point x="99.0" y="198.0"/>
      <point x="86.0" y="198.0" type="curve" smooth="yes"/>
      <point x="72.0" y="198.0"/>
      <point x="62.0" y="185.0"/>
      <point x="66.0" y="163.0" type="curve" smooth="yes"/>
      <point x="89.0" y="26.0" type="line" smooth="yes"/>
      <point x="94.0" y="-3.0"/>
      <point x="102.0" y="-15.0"/>
      <point x="117.0" y="-15.0" type="curve" smooth="yes"/>
      <point x="134.0" y="-15.0"/>
      <point x="143.0" y="15.0"/>
      <point x="156.0" y="15.0" type="curve" smooth="yes"/>
      <point x="187.0" y="15.0"/>
      <point x="228.0" y="-15.0"/>
    </contour>
  </outline>
</glyph>
<glyph name="U" format="2">
  <advance width="700"/>
  <unicode hex="0055"/>
  <outline>
    <contour>
      <point x="551" y="292" type="line" smooth="yes"/>
      <point x="553" y="267"/>
      <point x="555" y="243"/>
      <point x="555" y="199" type="curve" smooth="yes"/>
      <point x="555" y="103"/>
      <point x="493" y="45"/>
      <point x="384" y="45" type="curve" smooth="yes"/>
      <point x="260" y="45"/>
      <point x="187" y="105"/>
      <point x="187" y="226" type="curve" smooth="yes"/>
      <point x="187" y="250"/>
      <point x="189" y="284"/>
      <point x="191" y="324" type="curve" smooth="yes"/>
      <point x="207" y="606" type="line" smooth="yes"/>
      <point x="209" y="633"/>
      <point x="219" y="647"/>
      <point x="244" y="651" type="curve" smooth="yes"/>
      <point x="274" y="657" type="line" smooth="yes"/>
      <point x="292" y="660"/>
      <point x="302" y="666"/>
      <point x="302" y="680" type="curve" smooth="yes"/>
      <point x="302" y="693"/>
      <point x="293" y="699"/>
      <point x="272" y="699" type="curve" smooth="yes"/>
      <point x="49" y="699" type="line" smooth="yes"/>
      <point x="28" y="699"/>
      <point x="19" y="693"/>
      <point x="19" y="680" type="curve" smooth="yes"/>
      <point x="19" y="666"/>
      <point x="29" y="661"/>
      <point x="47" y="657" type="curve" smooth="yes"/>
      <point x="66" y="651" type="line" smooth="yes"/>
      <point x="90" y="644"/>
      <point x="104" y="633"/>
      <point x="103" y="606" type="curve" smooth="yes"/>
      <point x="87" y="324" type="line" smooth="yes"/>
      <point x="85" y="286"/>
      <point x="78" y="214"/>
      <point x="78" y="180" type="curve" smooth="yes"/>
      <point x="78" y="72"/>
      <point x="172" y="-15"/>
      <point x="353" y="-15" type="curve" smooth="yes"/>
      <point x="539" y="-15"/>
      <point x="624" y="77"/>
      <point x="624" y="195" type="curve" smooth="yes"/>
      <point x="624" y="229"/>
      <point x="620" y="260"/>
      <point x="619" y="293" type="curve" smooth="yes"/>
      <point x="600" y="599" type="line" smooth="yes"/>
      <point x="599" y="618"/>
      <point x="608" y="638"/>
      <point x="625" y="644" type="curve" smooth="yes"/>
      <point x="662" y="656" type="line" smooth="yes"/>
      <point x="681" y="661"/>
      <point x="686" y="666"/>
      <point x="686" y="676" type="curve" smooth="yes"/>
      <point x="686" y="689"/>
      <point x="671" y="699"/>
      <point x="653" y="699" type="curve" smooth="yes"/>
      <point x="460" y="699" type="line" smooth="yes"/>
      <point x="442" y="699"/>
      <point x="431" y="694"/>
      <point x="431" y="680" type="curve" smooth="yes"/>
      <point x="431" y="670"/>
      <point x="442" y="661"/>
      <point x="462" y="655" type="curve" smooth="yes"/>
      <point x="498" y="644" type="line" smooth="yes"/>
      <point x="525" y="636"/>
      <point x="531" y="620"/>
      <point x="533" y="599" type="curve" smooth="yes"/>
    </contour>
  </outline>
</glyph>
<glyph name="V" format="2">
  <advance width="681"/>
  <unicode hex="0056"/>
  <outline>
    <contour>
      <point x="448" y="678" type="curve" smooth="yes"/>
      <point x="448" y="665"/>
      <point x="459" y="655"/>
      <point x="476" y="647" type="curve" smooth="yes"/>
      <point x="522" y="624" type="line" smooth="yes"/>
      <point x="536" y="617"/>
      <point x="541" y="592"/>
      <point x="530" y="564" type="curve" smooth="yes"/>
      <point x="337" y="61" type="line"/>
      <point x="392" y="79" type="line"/>
      <point x="188" y="587" type="line" smooth="yes"/>
      <point x="175" y="619"/>
      <point x="191" y="640"/>
      <point x="216" y="646" type="curve" smooth="yes"/>
      <point x="239" y="651" type="line" smooth="yes"/>
      <point x="254" y="655"/>
      <point x="262" y="662"/>
      <point x="262" y="678" type="curve" smooth="yes"/>
      <point x="262" y="692"/>
      <point x="253" y="700"/>
      <point x="238" y="700" type="curve" smooth="yes"/>
      <point x="31" y="700" type="line" smooth="yes"/>
      <point x="12" y="700"/>
      <point x="0" y="693"/>
      <point x="0" y="680" type="curve" smooth="yes"/>
      <point x="0" y="668"/>
      <point x="7" y="662"/>
      <point x="25" y="651" type="curve" smooth="yes"/>
      <point x="39" y="643"/>
      <point x="58" y="628"/>
      <point x="74" y="591" type="curve" smooth="yes"/>
      <point x="278" y="103" type="line" smooth="yes"/>
      <point x="284.6632676007145" y="87.06041868064376"/>
      <point x="288" y="75.0"/>
      <point x="288" y="59" type="curve" smooth="yes"/>
      <point x="288" y="38" type="line" smooth="yes"/>
      <point x="288" y="16.0"/>
      <point x="301.75" y="0"/>
      <point x="321" y="0" type="curve" smooth="yes"/>
      <point x="373" y="0" type="line" smooth="yes"/>
      <point x="394.1842105263158" y="0"/>
      <point x="408" y="14.0"/>
      <point x="408" y="36" type="curve" smooth="yes"/>
      <point x="408" y="56" type="line" smooth="yes"/>
      <point x="408" y="78.0"/>
      <point x="411.3814996553757" y="96.06112623663947"/>
      <point x="418" y="113" type="curve" smooth="yes"/>
      <point x="595" y="566" type="line" smooth="yes"/>
      <point x="615" y="616"/>
      <point x="629" y="627"/>
      <point x="648" y="639" type="curve" smooth="yes"/>
      <point x="668" y="653"/>
      <point x="680" y="661"/>
      <point x="680" y="677" type="curve" smooth="yes"/>
      <point x="680" y="693"/>
      <point x="670" y="700"/>
      <point x="647" y="700" type="curve" smooth="yes"/>
      <point x="477" y="700" type="line" smooth="yes"/>
      <point x="458" y="700"/>
      <point x="448" y="691"/>
    </contour>
  </outline>
</glyph>
<glyph name="W" format="2">
  <advance width="1016"/>
  <unicode hex="0057"/>
  <outline>
    <contour>
      <point x="491" y="539" type="line"/>
      <point x="319" y="70" type="line"/>
      <point x="362" y="79" type="line"/>
      <point x="187" y="587" type="line" smooth="yes"/>
      <point x="174" y="620"/>
      <point x="189" y="644"/>
      <point x="214" y="649" type="curve" smooth="yes"/>
      <point x="234" y="654" type="line" smooth="yes"/>
      <point x="248" y="657"/>
      <point x="257" y="664"/>
      <point x="257" y="678" type="curve" smooth="yes"/>
      <point x="257" y="692"/>
      <point x="247" y="700"/>
      <point x="233" y="700" type="curve" smooth="yes"/>
      <point x="29" y="700" type="line" smooth="yes"/>
      <point x="11" y="700"/>
      <point x="0" y="693"/>
      <point x="0" y="680" type="curve" smooth="yes"/>
      <point x="0" y="664"/>
      <point x="5" y="654"/>
      <point x="33" y="643" type="curve" smooth="yes"/>
      <point x="53" y="634"/>
      <point x="66" y="623"/>
      <point x="78" y="591" type="curve" smooth="yes"/>
      <point x="249" y="118" type="line" smooth="yes"/>
      <point x="256.44537631644613" y="97.40547954573665"/>
      <point x="263" y="78"/>
      <point x="263" y="57" type="curve" smooth="yes"/>
      <point x="263" y="38" type="line" smooth="yes"/>
      <point x="263" y="14.969696969696969"/>
      <point x="279" y="0"/>
      <point x="298" y="0" type="curve" smooth="yes"/>
      <point x="348" y="0" type="line" smooth="yes"/>
      <point x="370.1666666666667" y="0"/>
      <point x="383" y="15.24137931034483"/>
      <point x="383" y="34" type="curve" smooth="yes"/>
      <point x="383" y="55" type="line" smooth="yes"/>
      <point x="383" y="79"/>
      <point x="389.40409666464484" y="103.46044932779662"/>
      <point x="398" y="127" type="curve" smooth="yes"/>
      <point x="528" y="483" type="line"/>
    </contour>
    <contour>
      <point x="787" y="675" type="curve" smooth="yes"/>
      <point x="787" y="661"/>
      <point x="797" y="651"/>
      <point x="813" y="644" type="curve" smooth="yes"/>
      <point x="862" y="622" type="line" smooth="yes"/>
      <point x="880" y="615"/>
      <point x="881" y="592"/>
      <point x="870" y="562" type="curve" smooth="yes"/>
      <point x="697" y="61" type="line"/>
      <point x="750" y="79" type="line"/>
      <point x="574" y="587" type="line" smooth="yes"/>
      <point x="563" y="619"/>
      <point x="575" y="646"/>
      <point x="590" y="649" type="curve" smooth="yes"/>
      <point x="610" y="654" type="line" smooth="yes"/>
      <point x="624" y="657"/>
      <point x="632" y="664"/>
      <point x="632" y="678" type="curve" smooth="yes"/>
      <point x="632" y="692"/>
      <point x="623" y="700"/>
      <point x="609" y="700" type="curve" smooth="yes"/>
      <point x="421" y="700" type="line" smooth="yes"/>
      <point x="403" y="700"/>
      <point x="392" y="693"/>
      <point x="392" y="680" type="curve" smooth="yes"/>
      <point x="392" y="668"/>
      <point x="399" y="662"/>
      <point x="416" y="651" type="curve" smooth="yes"/>
      <point x="430" y="642"/>
      <point x="453" y="629"/>
      <point x="466" y="591" type="curve" smooth="yes"/>
      <point x="633" y="127" type="line" smooth="yes"/>
      <point x="641.3639802163517" y="103.76115676414858"/>
      <point x="646" y="85"/>
      <point x="646" y="59" type="curve" smooth="yes"/>
      <point x="646" y="37" type="line" smooth="yes"/>
      <point x="646" y="16.738095238095237"/>
      <point x="660.8205128205128" y="0"/>
      <point x="680" y="0" type="curve" smooth="yes"/>
      <point x="734" y="0" type="line" smooth="yes"/>
      <point x="754.9230769230769" y="0"/>
      <point x="768.0" y="16.625"/>
      <point x="768.0" y="35" type="curve" smooth="yes"/>
      <point x="768" y="56" type="line" smooth="yes"/>
      <point x="768" y="79"/>
      <point x="771.1537508105637" y="100.72500231589612"/>
      <point x="780" y="126" type="curve" smooth="yes"/>
      <point x="934" y="566" type="line" smooth="yes"/>
      <point x="954" y="622"/>
      <point x="968" y="630"/>
      <point x="993" y="648" type="curve" smooth="yes"/>
      <point x="1010" y="660"/>
      <point x="1015" y="664"/>
      <point x="1015" y="680" type="curve" smooth="yes"/>
      <point x="1015" y="694"/>
      <point x="1008" y="700"/>
      <point x="992" y="700" type="curve" smooth="yes"/>
      <point x="823" y="700" type="line" smooth="yes"/>
      <point x="800" y="700"/>
      <point x="787" y="690"/>
    </contour>
  </outline>
</glyph>
<glyph name="X" format="2">
  <advance width="658"/>
  <unicode hex="0058"/>
  <outline>
    <contour>
      <point x="582" y="88" type="curve" smooth="yes"/>
      <point x="221" y="606" type="line" smooth="yes"/>
      <point x="200" y="636"/>
      <point x="222" y="645"/>
      <point x="243" y="649" type="curve" smooth="yes"/>
      <point x="264" y="654" type="line" smooth="yes"/>
      <point x="279" y="658"/>
      <point x="287" y="664"/>
      <point x="287" y="678" type="curve" smooth="yes"/>
      <point x="287" y="692"/>
      <point x="278" y="700"/>
      <point x="263" y="700" type="curve" smooth="yes"/>
      <point x="38" y="700" type="line" smooth="yes"/>
      <point x="20" y="700"/>
      <point x="7" y="693"/>
      <point x="7" y="680" type="curve" smooth="yes"/>
      <point x="7" y="668"/>
      <point x="16" y="661"/>
      <point x="42" y="651" type="curve" smooth="yes"/>
      <point x="68" y="642"/>
      <point x="73" y="637"/>
      <point x="92" y="609" type="curve" smooth="yes"/>
      <point x="464" y="84" type="line" smooth="yes"/>
      <point x="481" y="60"/>
      <point x="456" y="49"/>
      <point x="426" y="49" type="curve" smooth="yes"/>
      <point x="406" y="49"/>
      <point x="395" y="39"/>
      <point x="395" y="23" type="curve" smooth="yes"/>
      <point x="395" y="9"/>
      <point x="408" y="0"/>
      <point x="425" y="0" type="curve" smooth="yes"/>
      <point x="628" y="0" type="line" smooth="yes"/>
      <point x="646" y="0"/>
      <point x="659" y="9"/>
      <point x="659" y="23" type="curve" smooth="yes"/>
      <point x="659" y="39"/>
      <point x="648" y="47"/>
      <point x="628" y="49" type="curve" smooth="yes"/>
      <point x="608" y="50"/>
      <point x="599" y="64"/>
    </contour>
    <contour>
      <point x="334" y="311" type="line"/>
      <point x="512" y="566" type="line" smooth="yes"/>
      <point x="546" y="614"/>
      <point x="584" y="636"/>
      <point x="601" y="643" type="curve" smooth="yes"/>
      <point x="636" y="656"/>
      <point x="651" y="662"/>
      <point x="651" y="680" type="curve" smooth="yes"/>
      <point x="651" y="694"/>
      <point x="644" y="700"/>
      <point x="627" y="700" type="curve" smooth="yes"/>
      <point x="421" y="700" type="line" smooth="yes"/>
      <point x="402" y="700"/>
      <point x="392" y="692"/>
      <point x="392" y="678" type="curve" smooth="yes"/>
      <point x="392" y="663"/>
      <point x="404" y="655"/>
      <point x="428" y="649" type="curve" smooth="yes"/>
      <point x="453" y="644" type="line" smooth="yes"/>
      <point x="474" y="639"/>
      <point x="475" y="604"/>
      <point x="462" y="585" type="curve" smooth="yes"/>
      <point x="300" y="346" type="line"/>
    </contour>
    <contour>
      <point x="327" y="390" type="line"/>
      <point x="139" y="134" type="line" smooth="yes"/>
      <point x="113" y="99"/>
      <point x="79" y="70"/>
      <point x="52" y="61" type="curve" smooth="yes"/>
      <point x="15" y="49"/>
      <point x="0" y="35"/>
      <point x="0" y="21" type="curve" smooth="yes"/>
      <point x="0" y="7"/>
      <point x="7" y="1"/>
      <point x="24" y="1" type="curve" smooth="yes"/>
      <point x="230" y="1" type="line" smooth="yes"/>
      <point x="249" y="1"/>
      <point x="259" y="9"/>
      <point x="259" y="22" type="curve" smooth="yes"/>
      <point x="259" y="33"/>
      <point x="251" y="40"/>
      <point x="222" y="53" type="curve" smooth="yes"/>
      <point x="195" y="65" type="line" smooth="yes"/>
      <point x="175" y="74"/>
      <point x="173" y="92"/>
      <point x="189" y="116" type="curve" smooth="yes"/>
      <point x="360" y="355" type="line"/>
    </contour>
  </outline>
</glyph>
<glyph name="Y" format="2">
  <advance width="639"/>
  <unicode hex="0059"/>
  <outline>
    <contour>
      <point x="275" y="246" type="line"/>
      <point x="275" y="92" type="line" smooth="yes"/>
      <point x="275" y="66"/>
      <point x="263" y="53"/>
      <point x="239" y="48" type="curve" smooth="yes"/>
      <point x="214" y="42" type="line" smooth="yes"/>
      <point x="196" y="38"/>
      <point x="186" y="33"/>
      <point x="186" y="19" type="curve" smooth="yes"/>
      <point x="186" y="6"/>
      <point x="195" y="0"/>
      <point x="216" y="0" type="curve" smooth="yes"/>
      <point x="439" y="0" type="line" smooth="yes"/>
      <point x="460" y="0"/>
      <point x="469" y="6"/>
      <point x="469" y="19" type="curve" smooth="yes"/>
      <point x="469" y="33"/>
      <point x="459" y="38"/>
      <point x="441" y="42" type="curve" smooth="yes"/>
      <point x="416" y="48" type="line" smooth="yes"/>
      <point x="392" y="53"/>
      <point x="380" y="66"/>
      <point x="380" y="92" type="curve" smooth="yes"/>
      <point x="380" y="246" type="line"/>
    </contour>
    <contour>
      <point x="364" y="205" type="line"/>
      <point x="557" y="566" type="line" smooth="yes"/>
      <point x="585" y="618"/>
      <point x="603" y="628"/>
      <point x="620" y="638" type="curve" smooth="yes"/>
      <point x="642" y="651"/>
      <point x="653" y="663"/>
      <point x="653" y="677" type="curve" smooth="yes"/>
      <point x="653" y="693"/>
      <point x="643" y="700"/>
      <point x="620" y="700" type="curve" smooth="yes"/>
      <point x="441" y="700" type="line" smooth="yes"/>
      <point x="423" y="700"/>
      <point x="412" y="691"/>
      <point x="412" y="678" type="curve" smooth="yes"/>
      <point x="412" y="665"/>
      <point x="424" y="655"/>
      <point x="447" y="647" type="curve" smooth="yes"/>
      <point x="474" y="637" type="line" smooth="yes"/>
      <point x="494" y="631"/>
      <point x="507" y="620"/>
      <point x="508" y="605" type="curve" smooth="yes"/>
      <point x="508" y="594"/>
      <point x="505" y="580"/>
      <point x="496" y="564" type="curve" smooth="yes"/>
      <point x="334" y="253" type="line"/>
      <point x="358" y="273" type="line"/>
      <point x="183" y="587" type="line" smooth="yes"/>
      <point x="167" y="615"/>
      <point x="182" y="643"/>
      <point x="213" y="649" type="curve" smooth="yes"/>
      <point x="234" y="654" type="line" smooth="yes"/>
      <point x="249" y="658"/>
      <point x="258" y="664"/>
      <point x="258" y="678" type="curve" smooth="yes"/>
      <point x="258" y="692"/>
      <point x="248" y="700"/>
      <point x="233" y="700" type="curve" smooth="yes"/>
      <point x="17" y="700" type="line" smooth="yes"/>
      <point x="-2" y="700"/>
      <point x="-14" y="693"/>
      <point x="-14" y="680" type="curve" smooth="yes"/>
      <point x="-14" y="668"/>
      <point x="-6" y="661"/>
      <point x="21" y="651" type="curve" smooth="yes"/>
      <point x="47" y="642"/>
      <point x="49" y="627"/>
      <point x="69" y="591" type="curve" smooth="yes"/>
      <point x="289" y="205" type="line"/>
      <point x="293" y="208" type="line"/>
      <point x="291" y="204" type="line"/>
    </contour>
  </outline>
</glyph>
<glyph name="bracketleft" format="2">
  <advance width="348"/>
  <unicode hex="005B"/>
  <outline>
    <contour>
      <point x="197" y="645" type="line" smooth="yes"/>
      <point x="197" y="664"/>
      <point x="212" y="679"/>
      <point x="230" y="679" type="curve" smooth="yes"/>
      <point x="280" y="679" type="line" smooth="yes"/>
      <point x="297" y="679"/>
      <point x="303" y="684"/>
      <point x="303" y="696" type="curve" smooth="yes"/>
      <point x="303" y="706"/>
      <point x="297" y="716"/>
      <point x="282" y="716" type="curve" smooth="yes"/>
      <point x="160" y="716" type="line" smooth="yes"/>
      <point x="137" y="716"/>
      <point x="120" y="694"/>
      <point x="120" y="667" type="curve" smooth="yes"/>
      <point x="120" y="-128" type="line" smooth="yes"/>
      <point x="120" y="-155"/>
      <point x="137" y="-177"/>
      <point x="160" y="-177" type="curve" smooth="yes"/>
      <point x="282" y="-177" type="line" smooth="yes"/>
      <point x="297" y="-177"/>
      <point x="303" y="-167"/>
      <point x="303" y="-157" type="curve" smooth="yes"/>
      <point x="303" y="-145"/>
      <point x="297" y="-140"/>
      <point x="280" y="-140" type="curve" smooth="yes"/>
      <point x="230" y="-140" type="line" smooth="yes"/>
      <point x="212" y="-140"/>
      <point x="197" y="-125"/>
      <point x="197" y="-106" type="curve" smooth="yes"/>
    </contour>
  </outline>
</glyph>
<glyph name="backslash" format="2">
  <advance width="420"/>
  <unicode hex="005C"/>
  <outline>
    <contour>
      <point x="108" y="734" type="line" smooth="yes"/>
      <point x="103" y="750"/>
      <point x="92" y="766"/>
      <point x="75" y="766" type="curve" smooth="yes"/>
      <point x="52" y="766"/>
      <point x="44" y="751"/>
      <point x="54" y="721" type="curve" smooth="yes"/>
      <point x="312" y="-74" type="line" smooth="yes"/>
      <point x="317" y="-91"/>
      <point x="329" y="-107"/>
      <point x="347" y="-106" type="curve" smooth="yes"/>
      <point x="369" y="-105"/>
      <point x="375" y="-90"/>
      <point x="367" y="-66" type="curve" smooth="yes"/>
    </contour>
  </outline>
</glyph>
<glyph name="a" format="2">
  <advance width="490"/>
  <unicode hex="0061"/>
  <anchor x="264" y="513" name="center"/>
  <outline>
    <contour>
      <point x="64" y="348" type="curve" smooth="yes"/>
      <point x="64" y="316"/>
      <point x="83.82608695652173" y="298.0"/>
      <point x="112" y="298" type="curve" smooth="yes"/>
      <point x="143.93548387096774" y="298.0"/>
      <point x="172" y="322.46875"/>
      <point x="172" y="356" type="curve" smooth="yes"/>
      <point x="172" y="390" type="line" smooth="yes"/>
      <point x="172" y="421.95652173913044"/>
      <point x="194" y="439"/>
      <point x="240" y="439" type="curve" smooth="yes"/>
      <point x="299.0" y="439.0"/>
      <point x="337" y="398"/>
      <point x="337" y="323" type="curve" smooth="yes"/>
      <point x="337" y="67" type="line" smooth="yes"/>
      <point x="337" y="10"/>
      <point x="375.4" y="-15.0"/>
      <point x="417" y="-15" type="curve" smooth="yes"/>
      <point x="454.0" y="-15.0"/>
      <point x="485.0" y="8"/>
      <point x="485" y="27" type="curve" smooth="yes"/>
      <point x="485.0" y="40"/>
      <point x="477" y="46"/>
      <point x="464" y="47" type="curve" smooth="yes"/>
      <point x="442.43700636884347" y="49.26978880327964"/>
      <point x="422" y="64.42222222222222"/>
      <point x="422" y="96" type="curve" smooth="yes"/>
      <point x="422" y="345" type="line" smooth="yes"/>
      <point x="422" y="435"/>
      <point x="356" y="479"/>
      <point x="264" y="479" type="curve" smooth="yes"/>
      <point x="139.0" y="479"/>
      <point x="64.0" y="406.0"/>
    </contour>
    <contour>
      <point x="362" y="178" type="curve"/>
      <point x="369" y="215" type="line"/>
      <point x="330.2617893420474" y="226.06806018798648"/>
      <point x="293.4" y="236.0"/>
      <point x="243" y="236" type="curve" smooth="yes"/>
      <point x="110" y="236"/>
      <point x="45" y="175"/>
      <point x="45" y="105" type="curve" smooth="yes"/>
      <point x="45" y="34"/>
      <point x="103" y="-15"/>
      <point x="184" y="-15" type="curve" smooth="yes"/>
      <point x="258.0" y="-15.0"/>
      <point x="324.4785598488354" y="16.88180344397233"/>
      <point x="367" y="71" type="curve"/>
      <point x="354" y="106" type="line"/>
      <point x="324" y="68"/>
      <point x="277.0" y="50.0"/>
      <point x="233" y="50" type="curve" smooth="yes"/>
      <point x="183" y="50"/>
      <point x="147" y="81"/>
      <point x="147" y="125" type="curve" smooth="yes"/>
      <point x="147" y="162"/>
      <point x="178" y="195"/>
      <point x="242" y="195" type="curve" smooth="yes"/>
      <point x="288" y="195"/>
      <point x="325" y="187"/>
    </contour>
  </outline>
</glyph>
<glyph name="b" format="2">
  <advance width="552"/>
  <unicode hex="0062"/>
  <outline>
    <contour>
      <point x="4" y="621" type="line" smooth="yes"/>
      <point x="-7" y="621"/>
      <point x="-12" y="626"/>
      <point x="-12" y="634" type="curve" smooth="yes"/>
      <point x="-12" y="641"/>
      <point x="-8" y="650"/>
      <point x="17" y="664" type="curve" smooth="yes"/>
      <point x="84" y="701" type="line" smooth="yes"/>
      <point x="107" y="713"/>
      <point x="122" y="722"/>
      <point x="142" y="722" type="curve" smooth="yes"/>
      <point x="154" y="722"/>
      <point x="161" y="709"/>
      <point x="161" y="692" type="curve" smooth="yes"/>
      <point x="161" y="26" type="line" smooth="yes"/>
      <point x="122" y="1" type="line" smooth="yes"/>
      <point x="110" y="-7"/>
      <point x="102" y="-10"/>
      <point x="90" y="-10" type="curve" smooth="yes"/>
      <point x="78" y="-10"/>
      <point x="70" y="-2"/>
      <point x="70" y="14" type="curve" smooth="yes"/>
      <point x="70" y="585" type="line" smooth="yes"/>
      <point x="70" y="610"/>
      <point x="55" y="621"/>
      <point x="33" y="621" type="curve" smooth="yes"/>
    </contour>
    <contour>
      <point x="135" y="360" type="curve"/>
      <point x="119" y="386" type="line"/>
      <point x="179" y="446"/>
      <point x="246" y="479"/>
      <point x="313" y="479" type="curve" smooth="yes"/>
      <point x="432" y="479"/>
      <point x="519" y="388"/>
      <point x="519" y="261" type="curve" smooth="yes"/>
      <point x="519" y="100"/>
      <point x="413" y="-15"/>
      <point x="264" y="-15" type="curve" smooth="yes"/>
      <point x="199" y="-15"/>
      <point x="139" y="12"/>
      <point x="96" y="57" type="curve"/>
      <point x="125" y="102" type="line"/>
      <point x="163" y="61"/>
      <point x="216" y="37"/>
      <point x="278" y="37" type="curve" smooth="yes"/>
      <point x="367" y="37"/>
      <point x="428" y="113"/>
      <point x="428" y="223" type="curve" smooth="yes"/>
      <point x="428" y="332"/>
      <point x="359" y="410"/>
      <point x="263" y="410" type="curve" smooth="yes"/>
      <point x="220" y="410"/>
      <point x="178" y="393"/>
    </contour>
  </outline>
</glyph>
<glyph name="c" format="2">
  <advance width="458"/>
  <unicode hex="0063"/>
  <outline>
    <contour>
      <point x="425" y="372" type="curve" smooth="yes"/>
      <point x="425" y="431"/>
      <point x="358" y="479"/>
      <point x="276" y="479" type="curve" smooth="yes"/>
      <point x="142" y="479"/>
      <point x="33" y="365"/>
      <point x="33" y="215" type="curve" smooth="yes"/>
      <point x="33" y="88"/>
      <point x="133" y="-15"/>
      <point x="251" y="-15" type="curve" smooth="yes"/>
      <point x="310" y="-15"/>
      <point x="354" y="3"/>
      <point x="405" y="39" type="curve" smooth="yes"/>
      <point x="427" y="55"/>
      <point x="439" y="68"/>
      <point x="439" y="81" type="curve" smooth="yes"/>
      <point x="439" y="91"/>
      <point x="434" y="99"/>
      <point x="424" y="99" type="curve" smooth="yes"/>
      <point x="413" y="99"/>
      <point x="404" y="93"/>
      <point x="395" y="87" type="curve" smooth="yes"/>
      <point x="368" y="68"/>
      <point x="343" y="61"/>
      <point x="305" y="61" type="curve" smooth="yes"/>
      <point x="199" y="61"/>
      <point x="111" y="151"/>
      <point x="111" y="264" type="curve" smooth="yes"/>
      <point x="111" y="354"/>
      <point x="177" y="423"/>
      <point x="258" y="423" type="curve" smooth="yes"/>
      <point x="292" y="423"/>
      <point x="313" y="408"/>
      <point x="313" y="389" type="curve" smooth="yes"/>
      <point x="313" y="373" type="line" smooth="yes"/>
      <point x="313" y="338"/>
      <point x="338" y="313"/>
      <point x="369" y="313" type="curve" smooth="yes"/>
      <point x="399" y="313"/>
      <point x="425" y="339"/>
    </contour>
  </outline>
</glyph>
<glyph name="d" format="2">
  <advance width="566"/>
  <unicode hex="0064"/>
  <outline>
    <contour>
      <point x="479" y="727" type="line" smooth="yes"/>
      <point x="479.0" y="744.0"/>
      <point x="469" y="754"/>
      <point x="454" y="754" type="curve" smooth="yes"/>
      <point x="443" y="754"/>
      <point x="431" y="750"/>
      <point x="414" y="741" type="curve" smooth="yes"/>
      <point x="329" y="696" type="line" smooth="yes"/>
      <point x="315" y="689"/>
      <point x="306" y="679"/>
      <point x="306" y="669" type="curve" smooth="yes"/>
      <point x="306" y="661"/>
      <point x="313" y="654"/>
      <point x="325" y="654" type="curve" smooth="yes"/>
      <point x="348" y="654" type="line" smooth="yes"/>
      <point x="372" y="654"/>
      <point x="387.0" y="644.0"/>
      <point x="387" y="619" type="curve" smooth="yes"/>
      <point x="387" y="48" type="line" smooth="yes"/>
      <point x="387" y="11"/>
      <point x="403" y="-1"/>
      <point x="439" y="-1" type="curve" smooth="yes"/>
      <point x="523" y="-1" type="line" smooth="yes"/>
      <point x="545" y="-1"/>
      <point x="552" y="7"/>
      <point x="552" y="20" type="curve" smooth="yes"/>
      <point x="552" y="32"/>
      <point x="543" y="37"/>
      <point x="525" y="43" type="curve" smooth="yes"/>
      <point x="508" y="48" type="line" smooth="yes"/>
      <point x="490" y="54"/>
      <point x="479" y="67"/>
      <point x="479" y="97" type="curve" smooth="yes"/>
    </contour>
    <contour>
      <point x="420.0" y="122.0" type="line"/>
      <point x="375.0" y="76.0"/>
      <point x="332.0" y="58.0"/>
      <point x="288.0" y="58.0" type="curve" smooth="yes"/>
      <point x="194.0" y="58.0"/>
      <point x="126.0" y="144.0"/>
      <point x="126.0" y="262.0" type="curve" smooth="yes"/>
      <point x="126.0" y="358.0"/>
      <point x="189.0" y="424.0"/>
      <point x="278.0" y="424.0" type="curve" smooth="yes"/>
      <point x="335.0" y="424.0"/>
      <point x="381.0" y="402.0"/>
      <point x="410.0" y="355.0" type="curve"/>
      <point x="445.0" y="389.0" type="line"/>
      <point x="400.0" y="452.0"/>
      <point x="348.0" y="480.0"/>
      <point x="268.0" y="480.0" type="curve" smooth="yes"/>
      <point x="140.0" y="480.0"/>
      <point x="32.0" y="370.0"/>
      <point x="32.0" y="214.0" type="curve" smooth="yes"/>
      <point x="32.0" y="81.0"/>
      <point x="115.0" y="-15.0"/>
      <point x="227.0" y="-15.0" type="curve" smooth="yes"/>
      <point x="300.0" y="-15.0"/>
      <point x="383.0" y="22.0"/>
      <point x="439.0" y="104.0" type="curve"/>
    </contour>
  </outline>
</glyph>
<glyph name="e" format="2">
  <advance width="483"/>
  <unicode hex="0065"/>
  <anchor x="276" y="527" name="center"/>
  <outline>
    <contour>
      <point x="429" y="252"/>
      <point x="448" y="271"/>
      <point x="448" y="309" type="curve" smooth="yes"/>
      <point x="448" y="391"/>
      <point x="390" y="479"/>
      <point x="281" y="479" type="curve" smooth="yes"/>
      <point x="144" y="479"/>
      <point x="31" y="363"/>
      <point x="31" y="218" type="curve" smooth="yes"/>
      <point x="31" y="89"/>
      <point x="128" y="-15"/>
      <point x="252" y="-15" type="curve" smooth="yes"/>
      <point x="302" y="-15"/>
      <point x="346" y="4"/>
      <point x="390" y="33" type="curve" smooth="yes"/>
      <point x="423" y="53"/>
      <point x="440" y="66"/>
      <point x="440" y="83" type="curve" smooth="yes"/>
      <point x="440" y="94"/>
      <point x="431" y="101"/>
      <point x="421" y="101" type="curve" smooth="yes"/>
      <point x="411" y="101"/>
      <point x="400" y="94"/>
      <point x="385" y="87" type="curve" smooth="yes"/>
      <point x="360" y="74"/>
      <point x="329" y="67"/>
      <point x="300" y="67" type="curve" smooth="yes"/>
      <point x="191" y="67"/>
      <point x="106" y="151"/>
      <point x="106" y="253" type="curve" smooth="yes"/>
      <point x="106" y="350"/>
      <point x="165" y="418"/>
      <point x="253" y="418" type="curve" smooth="yes"/>
      <point x="312" y="418"/>
      <point x="344" y="375"/>
      <point x="344" y="328" type="curve" smooth="yes"/>
      <point x="344" y="304"/>
      <point x="330" y="294"/>
      <point x="306" y="294" type="curve" smooth="yes"/>
      <point x="91" y="294" type="line"/>
      <point x="91" y="252" type="line"/>
      <point x="383" y="252" type="line" smooth="yes"/>
    </contour>
  </outline>
</glyph>
<glyph name="f" format="2">
  <advance width="352"/>
  <unicode hex="0066"/>
  <outline>
    <contour>
      <point x="211" y="101" type="curve" smooth="yes"/>
      <point x="211" y="419" type="line"/>
      <point x="307" y="419" type="line" smooth="yes"/>
      <point x="325" y="419.0"/>
      <point x="336.0" y="427"/>
      <point x="336" y="443" type="curve" smooth="yes"/>
      <point x="336" y="459"/>
      <point x="325.0" y="465.0"/>
      <point x="309" y="465" type="curve" smooth="yes"/>
      <point x="212" y="465" type="line"/>
      <point x="212" y="479" type="line" smooth="yes"/>
      <point x="212" y="522.5970149253732"/>
      <point x="164.0" y="562.4029850746268"/>
      <point x="164" y="606" type="curve" smooth="yes"/>
      <point x="164" y="650"/>
      <point x="183" y="668"/>
      <point x="211" y="668" type="curve" smooth="yes"/>
      <point x="226" y="668"/>
      <point x="239" y="659"/>
      <point x="239" y="641" type="curve" smooth="yes"/>
      <point x="239" y="626" type="line" smooth="yes"/>
      <point x="239" y="591"/>
      <point x="265" y="567"/>
      <point x="294" y="567" type="curve" smooth="yes"/>
      <point x="329" y="567"/>
      <point x="351" y="589"/>
      <point x="351" y="627" type="curve" smooth="yes"/>
      <point x="351" y="677"/>
      <point x="318" y="715"/>
      <point x="248" y="715" type="curve" smooth="yes"/>
      <point x="159" y="715"/>
      <point x="95" y="650"/>
      <point x="95" y="572" type="curve" smooth="yes"/>
      <point x="95.0" y="530.483870967742"/>
      <point x="127" y="490.85483870967744"/>
      <point x="127" y="455" type="curve" smooth="yes"/>
      <point x="127" y="438" type="line"/>
      <point x="140" y="465" type="line"/>
      <point x="58" y="465" type="line" smooth="yes"/>
      <point x="44.2" y="465"/>
      <point x="35.0" y="458.09090909090907"/>
      <point x="35" y="446" type="curve" smooth="yes"/>
      <point x="35.0" y="433.5652173913044"/>
      <point x="46.80629037040369" y="423.8710117171626"/>
      <point x="61" y="420" type="curve" smooth="yes"/>
      <point x="94" y="411" type="line" smooth="yes"/>
      <point x="113" y="406"/>
      <point x="123.0" y="395.0"/>
      <point x="123" y="370" type="curve" smooth="yes"/>
      <point x="123" y="93" type="line" smooth="yes"/>
      <point x="123" y="67"/>
      <point x="110" y="54"/>
      <point x="94" y="50" type="curve" smooth="yes"/>
      <point x="75" y="45" type="line" smooth="yes"/>
      <point x="57.938509933188186" y="40.51013419294426"/>
      <point x="50.0" y="33.52173913043478"/>
      <point x="50" y="21" type="curve" smooth="yes"/>
      <point x="50.0" y="6.681818181818183"/>
      <point x="59.629629629629626" y="0"/>
      <point x="76" y="0" type="curve" smooth="yes"/>
      <point x="271" y="0" type="line" smooth="yes"/>
      <point x="291.0" y="0"/>
      <point x="299.0" y="7.0"/>
      <point x="299" y="21" type="curve" smooth="yes"/>
      <point x="299.0" y="33.65"/>
      <point x="290.2963590593179" y="40.42591023517052"/>
      <point x="276" y="44" type="curve" smooth="yes"/>
      <point x="252" y="50" type="line" smooth="yes"/>
      <point x="227" y="57"/>
      <point x="211" y="75"/>
    </contour>
  </outline>
</glyph>
<glyph name="g" format="2">
  <advance width="503"/>
  <unicode hex="0067"/>
  <outline>
    <contour>
      <point x="227" y="432" type="curve" smooth="yes"/>
      <point x="168.0" y="432.0"/>
      <point x="125.0" y="383.7844827586207"/>
      <point x="125" y="313" type="curve" smooth="yes"/>
      <point x="125.0" y="235.74264705882354"/>
      <point x="177.0" y="180.0"/>
      <point x="248" y="180" type="curve" smooth="yes"/>
      <point x="302.0" y="180.0"/>
      <point x="342.0" y="226.75862068965517"/>
      <point x="342" y="293" type="curve" smooth="yes"/>
      <point x="342.0" y="372.72058823529414"/>
      <point x="293.0" y="432.0"/>
    </contour>
    <contour>
      <point x="236" y="55" type="curve" smooth="yes"/>
      <point x="331" y="44" type="line" smooth="yes"/>
      <point x="438.01462659074645" y="31.608832710545148"/>
      <point x="492.0" y="-9.941176470588232"/>
      <point x="492" y="-87" type="curve" smooth="yes"/>
      <point x="492.0" y="-180.9738562091503"/>
      <point x="401.43333333333334" y="-245.0"/>
      <point x="245" y="-245" type="curve" smooth="yes"/>
      <point x="99.86111111111111" y="-245.0"/>
      <point x="36.0" y="-193.97520661157023"/>
      <point x="36" y="-119" type="curve" smooth="yes"/>
      <point x="36.0" y="-54.67796610169492"/>
      <point x="91.7704918032787" y="-4.0"/>
      <point x="198" y="-4" type="curve"/>
      <point x="198" y="-25" type="line"/>
      <point x="156.0" y="-25.0"/>
      <point x="128.0" y="-55.72289156626506"/>
      <point x="128" y="-100" type="curve" smooth="yes"/>
      <point x="128.0" y="-160.81720430107526"/>
      <point x="171.82432432432432" y="-201.0"/>
      <point x="269" y="-201" type="curve" smooth="yes"/>
      <point x="365.8059701492537" y="-201.0"/>
      <point x="410.0" y="-164.78048780487805"/>
      <point x="410" y="-111" type="curve" smooth="yes"/>
      <point x="410.0" y="-67.01282051282053"/>
      <point x="374.0889143161684" y="-44.90570335747991"/>
      <point x="313" y="-38" type="curve" smooth="yes"/>
      <point x="198" y="-25" type="line" smooth="yes"/>
      <point x="121" y="-16"/>
      <point x="84" y="27"/>
      <point x="84" y="75" type="curve" smooth="yes"/>
      <point x="84.0" y="118.39999999999999"/>
      <point x="114.08973555149093" y="154.47162898232727"/>
      <point x="163" y="168" type="curve"/>
      <point x="174" y="160" type="line"/>
      <point x="157" y="147"/>
      <point x="150" y="130"/>
      <point x="150.0" y="112" type="curve" smooth="yes"/>
      <point x="150.0" y="78.0"/>
      <point x="176" y="62"/>
    </contour>
    <contour>
      <point x="436" y="310" type="curve" smooth="yes"/>
      <point x="436.0" y="209.6813186813187"/>
      <point x="352.0" y="131.0"/>
      <point x="238" y="131" type="curve" smooth="yes"/>
      <point x="110.0" y="131.0"/>
      <point x="33.0" y="207.60714285714286"/>
      <point x="33" y="296" type="curve" smooth="yes"/>
      <point x="33.0" y="400.707182320442"/>
      <point x="112.0" y="480.0"/>
      <point x="241" y="480" type="curve" smooth="yes"/>
      <point x="368.0" y="480.0"/>
      <point x="436.0" y="397.54491017964074"/>
    </contour>
    <contour>
      <point x="346" y="451" type="line" smooth="yes"/>
      <point x="358" y="467" type="line" smooth="yes"/>
      <point x="386" y="504"/>
      <point x="413" y="526"/>
      <point x="444" y="526" type="curve" smooth="yes"/>
      <point x="478" y="526"/>
      <point x="502" y="504"/>
      <point x="502" y="471" type="curve" smooth="yes"/>
      <point x="502" y="448"/>
      <point x="484" y="430"/>
      <point x="460" y="430" type="curve" smooth="yes"/>
      <point x="449" y="430"/>
      <point x="441" y="433"/>
      <point x="434" y="438" type="curve" smooth="yes"/>
      <point x="418" y="448" type="line" smooth="yes"/>
      <point x="412" y="451"/>
      <point x="408" y="452"/>
      <point x="401" y="452" type="curve" smooth="yes"/>
      <point x="386" y="452"/>
      <point x="372" y="443"/>
      <point x="372" y="431" type="curve"/>
    </contour>
  </outline>
</glyph>
<glyph name="h" format="2">
  <advance width="602"/>
  <unicode hex="0068"/>
  <outline>
    <contour>
      <point x="188" y="368" type="line" smooth="yes"/>
      <point x="186" y="407" type="line"/>
      <point x="211" y="426" type="line" smooth="yes"/>
      <point x="260" y="465"/>
      <point x="307" y="480"/>
      <point x="354" y="480" type="curve" smooth="yes"/>
      <point x="421" y="480"/>
      <point x="475" y="435"/>
      <point x="489" y="334" type="curve" smooth="yes"/>
      <point x="522" y="85" type="line" smooth="yes"/>
      <point x="525" y="63"/>
      <point x="537" y="51"/>
      <point x="555" y="47" type="curve" smooth="yes"/>
      <point x="563" y="45" type="line" smooth="yes"/>
      <point x="577" y="41"/>
      <point x="588" y="35"/>
      <point x="588" y="23" type="curve" smooth="yes"/>
      <point x="588" y="10"/>
      <point x="579" y="0"/>
      <point x="558" y="0" type="curve" smooth="yes"/>
      <point x="380" y="0" type="line" smooth="yes"/>
      <point x="362" y="0"/>
      <point x="351" y="8"/>
      <point x="351" y="23" type="curve" smooth="yes"/>
      <point x="351" y="39"/>
      <point x="363" y="43"/>
      <point x="377" y="45" type="curve" smooth="yes"/>
      <point x="391" y="47" type="line" smooth="yes"/>
      <point x="419" y="50"/>
      <point x="433" y="63"/>
      <point x="428" y="101" type="curve" smooth="yes"/>
      <point x="401" y="311" type="line" smooth="yes"/>
      <point x="391" y="389"/>
      <point x="360" y="420"/>
      <point x="310" y="420" type="curve" smooth="yes"/>
      <point x="280" y="420"/>
      <point x="238" y="402"/>
      <point x="205" y="380" type="curve" smooth="yes"/>
    </contour>
    <component base="l"/>
  </outline>
</glyph>
<glyph name="k" format="2">
  <advance width="566"/>
  <unicode hex="006B"/>
  <outline>
    <contour>
      <point x="309" y="317" type="line"/>
      <point x="483" y="88" type="line" smooth="yes"/>
      <point x="504" y="59"/>
      <point x="523" y="48"/>
      <point x="546" y="43" type="curve" smooth="yes"/>
      <point x="558" y="40"/>
      <point x="566" y="35"/>
      <point x="566" y="22" type="curve" smooth="yes"/>
      <point x="566" y="9"/>
      <point x="558" y="0"/>
      <point x="536" y="0" type="curve" smooth="yes"/>
      <point x="361" y="0" type="line" smooth="yes"/>
      <point x="344.0" y="0"/>
      <point x="332" y="7"/>
      <point x="332" y="20" type="curve" smooth="yes"/>
      <point x="332" y="34"/>
      <point x="343" y="40"/>
      <point x="359" y="43" type="curve" smooth="yes"/>
      <point x="374.5338885826768" y="46.530429223335645"/>
      <point x="381.0" y="53.0"/>
      <point x="381" y="66" type="curve" smooth="yes"/>
      <point x="381" y="76"/>
      <point x="377" y="85"/>
      <point x="370" y="94" type="curve" smooth="yes"/>
      <point x="245" y="265" type="line"/>
    </contour>
    <contour>
      <point x="144" y="215" type="line"/>
      <point x="324" y="360" type="line" smooth="yes"/>
      <point x="349" y="380"/>
      <point x="357" y="391"/>
      <point x="357" y="404" type="curve" smooth="yes"/>
      <point x="357" y="414"/>
      <point x="352" y="419"/>
      <point x="337" y="424" type="curve" smooth="yes"/>
      <point x="322" y="428"/>
      <point x="314" y="434"/>
      <point x="314" y="446" type="curve" smooth="yes"/>
      <point x="314" y="460"/>
      <point x="325" y="466"/>
      <point x="343" y="466" type="curve" smooth="yes"/>
      <point x="507" y="466" type="line" smooth="yes"/>
      <point x="529" y="466"/>
      <point x="537" y="458"/>
      <point x="537" y="447" type="curve" smooth="yes"/>
      <point x="537" y="434"/>
      <point x="529" y="429"/>
      <point x="517" y="425" type="curve" smooth="yes"/>
      <point x="475" y="411"/>
      <point x="440" y="398"/>
      <point x="395" y="363" type="curve" smooth="yes"/>
      <point x="162" y="180" type="line"/>
    </contour>
    <component base="l"/>
  </outline>
</glyph>
<glyph name="l" format="2">
  <advance width="300"/>
  <unicode hex="006C"/>
  <outline>
    <contour>
      <point x="106" y="90" type="curve" smooth="yes"/>
      <point x="106" y="620" type="line" smooth="yes"/>
      <point x="106.0" y="645.0"/>
      <point x="91" y="655"/>
      <point x="67" y="655" type="curve" smooth="yes"/>
      <point x="44" y="655" type="line" smooth="yes"/>
      <point x="32" y="655"/>
      <point x="25" y="662"/>
      <point x="25" y="670" type="curve" smooth="yes"/>
      <point x="25" y="680"/>
      <point x="35" y="689"/>
      <point x="49" y="697" type="curve" smooth="yes"/>
      <point x="130" y="742" type="line" smooth="yes"/>
      <point x="146" y="751"/>
      <point x="159" y="755"/>
      <point x="170" y="755" type="curve" smooth="yes"/>
      <point x="185" y="755"/>
      <point x="194.0" y="745.0"/>
      <point x="194" y="727" type="curve" smooth="yes"/>
      <point x="194" y="90" type="line" smooth="yes"/>
      <point x="194" y="63"/>
      <point x="209" y="49"/>
      <point x="228" y="46" type="curve" smooth="yes"/>
      <point x="241" y="43" type="line" smooth="yes"/>
      <point x="264" y="38"/>
      <point x="271" y="32"/>
      <point x="271" y="20" type="curve" smooth="yes"/>
      <point x="271" y="7"/>
      <point x="266" y="0"/>
      <point x="240" y="0" type="curve" smooth="yes"/>
      <point x="53" y="0" type="line" smooth="yes"/>
      <point x="42" y="0"/>
      <point x="30" y="7"/>
      <point x="30" y="21" type="curve" smooth="yes"/>
      <point x="30" y="33"/>
      <point x="40" y="40"/>
      <point x="53" y="43" type="curve" smooth="yes"/>
      <point x="73" y="47" type="line" smooth="yes"/>
      <point x="99" y="51"/>
      <point x="106" y="61"/>
    </contour>
  </outline>
</glyph>
<glyph name="m" format="2">
  <advance width="923"/>
  <unicode hex="006D"/>
  <outline>
    <contour>
      <point x="358" y="24" type="curve" smooth="yes"/>
      <point x="358" y="8"/>
      <point x="369" y="0"/>
      <point x="383" y="0" type="curve" smooth="yes"/>
      <point x="569" y="0" type="line" smooth="yes"/>
      <point x="586" y="0"/>
      <point x="595" y="13"/>
      <point x="595" y="24" type="curve" smooth="yes"/>
      <point x="595" y="35"/>
      <point x="585" y="43"/>
      <point x="568" y="46" type="curve" smooth="yes"/>
      <point x="548" y="49" type="line" smooth="yes"/>
      <point x="528" y="53"/>
      <point x="516" y="72"/>
      <point x="516" y="98" type="curve" smooth="yes"/>
      <point x="516" y="345" type="line" smooth="yes"/>
      <point x="516" y="425"/>
      <point x="450" y="480"/>
      <point x="370" y="480" type="curve" smooth="yes"/>
      <point x="304" y="480"/>
      <point x="239" y="453"/>
      <point x="176" y="390" type="curve"/>
      <point x="190" y="362" type="line"/>
      <point x="242" y="402"/>
      <point x="290" y="418"/>
      <point x="326" y="418" type="curve" smooth="yes"/>
      <point x="378" y="418"/>
      <point x="429" y="389"/>
      <point x="429" y="302" type="curve" smooth="yes"/>
      <point x="429" y="91" type="line" smooth="yes"/>
      <point x="429" y="71"/>
      <point x="419" y="54"/>
      <point x="403" y="50" type="curve" smooth="yes"/>
      <point x="387" y="47" type="line" smooth="yes"/>
      <point x="369" y="43"/>
      <point x="358" y="36"/>
    </contour>
    <contour>
      <point x="500" y="368" type="line" smooth="yes"/>
      <point x="518" y="380" type="line" smooth="yes"/>
      <point x="550" y="402"/>
      <point x="592" y="420"/>
      <point x="622" y="420" type="curve" smooth="yes"/>
      <point x="678" y="420"/>
      <point x="713" y="389"/>
      <point x="723" y="311" type="curve" smooth="yes"/>
      <point x="750" y="101" type="line" smooth="yes"/>
      <point x="755" y="63"/>
      <point x="741" y="50"/>
      <point x="713" y="47" type="curve" smooth="yes"/>
      <point x="699" y="45" type="line" smooth="yes"/>
      <point x="685" y="43"/>
      <point x="673" y="39"/>
      <point x="673" y="23" type="curve" smooth="yes"/>
      <point x="673" y="8"/>
      <point x="684" y="0"/>
      <point x="702" y="0" type="curve" smooth="yes"/>
      <point x="880" y="0" type="line" smooth="yes"/>
      <point x="901" y="0"/>
      <point x="910" y="10"/>
      <point x="910" y="23" type="curve" smooth="yes"/>
      <point x="910" y="35"/>
      <point x="898" y="41"/>
      <point x="884" y="45" type="curve" smooth="yes"/>
      <point x="877" y="47" type="line" smooth="yes"/>
      <point x="859" y="51"/>
      <point x="847" y="63"/>
      <point x="844" y="85" type="curve" smooth="yes"/>
      <point x="811" y="334" type="line" smooth="yes"/>
      <point x="797" y="435"/>
      <point x="738" y="480"/>
      <point x="666" y="480" type="curve" smooth="yes"/>
      <point x="620" y="480"/>
      <point x="575" y="463"/>
      <point x="523" y="426" type="curve" smooth="yes"/>
      <point x="485" y="399" type="line"/>
    </contour>
    <contour>
      <point x="200" y="450" type="line" smooth="yes"/>
      <point x="200" y="468"/>
      <point x="191" y="480"/>
      <point x="176" y="480" type="curve" smooth="yes"/>
      <point x="164" y="480"/>
      <point x="152" y="476"/>
      <point x="134" y="466" type="curve" smooth="yes"/>
      <point x="54" y="423" type="line" smooth="yes"/>
      <point x="41" y="415"/>
      <point x="31" y="406"/>
      <point x="31" y="396" type="curve" smooth="yes"/>
      <point x="31" y="385"/>
      <point x="39" y="381"/>
      <point x="52" y="381" type="curve" smooth="yes"/>
      <point x="82" y="381" type="line" smooth="yes"/>
      <point x="96" y="381"/>
      <point x="112" y="370"/>
      <point x="112" y="345" type="curve" smooth="yes"/>
      <point x="112" y="90" type="line" smooth="yes"/>
      <point x="112" y="60"/>
      <point x="98" y="49"/>
      <point x="80" y="47" type="curve" smooth="yes"/>
      <point x="60" y="43" type="line" smooth="yes"/>
      <point x="45" y="40"/>
      <point x="37" y="34"/>
      <point x="37" y="22" type="curve" smooth="yes"/>
      <point x="37" y="8"/>
      <point x="47" y="0"/>
      <point x="63" y="0" type="curve" smooth="yes"/>
      <point x="244" y="0" type="line" smooth="yes"/>
      <point x="264" y="0"/>
      <point x="274" y="7"/>
      <point x="274" y="21" type="curve" smooth="yes"/>
      <point x="274" y="34"/>
      <point x="265" y="40"/>
      <point x="246" y="44" type="curve" smooth="yes"/>
      <point x="231" y="47" type="line" smooth="yes"/>
      <point x="214" y="50"/>
      <point x="200" y="64"/>
      <point x="200" y="90" type="curve" smooth="yes"/>
    </contour>
  </outline>
</glyph>
<glyph name="n" format="2">
  <advance width="609"/>
  <unicode hex="006E"/>
  <outline>
    <contour>
      <point x="203" y="450" type="line" smooth="yes"/>
      <point x="203" y="468"/>
      <point x="194" y="480"/>
      <point x="179" y="480" type="curve" smooth="yes"/>
      <point x="167" y="480"/>
      <point x="155" y="476"/>
      <point x="137" y="466" type="curve" smooth="yes"/>
      <point x="57" y="423" type="line" smooth="yes"/>
      <point x="44" y="415"/>
      <point x="34" y="406"/>
      <point x="34" y="396" type="curve" smooth="yes"/>
      <point x="34" y="385"/>
      <point x="42" y="381"/>
      <point x="55" y="381" type="curve" smooth="yes"/>
      <point x="85" y="381" type="line" smooth="yes"/>
      <point x="99" y="381"/>
      <point x="115" y="370"/>
      <point x="115" y="345" type="curve" smooth="yes"/>
      <point x="115" y="90" type="line" smooth="yes"/>
      <point x="115" y="60"/>
      <point x="101" y="49"/>
      <point x="83" y="47" type="curve" smooth="yes"/>
      <point x="63" y="43" type="line" smooth="yes"/>
      <point x="48" y="40"/>
      <point x="40" y="34"/>
      <point x="40" y="22" type="curve" smooth="yes"/>
      <point x="40" y="8"/>
      <point x="50" y="0"/>
      <point x="66" y="0" type="curve" smooth="yes"/>
      <point x="247" y="0" type="line" smooth="yes"/>
      <point x="267" y="0"/>
      <point x="277" y="7"/>
      <point x="277" y="21" type="curve" smooth="yes"/>
      <point x="277" y="34"/>
      <point x="268" y="40"/>
      <point x="249" y="44" type="curve" smooth="yes"/>
      <point x="234" y="47" type="line" smooth="yes"/>
      <point x="217" y="50"/>
      <point x="203" y="64"/>
      <point x="203" y="90" type="curve" smooth="yes"/>
    </contour>
    <contour>
      <point x="186" y="345" type="line" smooth="yes"/>
      <point x="212" y="369" type="line" smooth="yes"/>
      <point x="246" y="400"/>
      <point x="279" y="415"/>
      <point x="317" y="415" type="curve" smooth="yes"/>
      <point x="366" y="415"/>
      <point x="400.54672623188407" y="387.71126815592186"/>
      <point x="409" y="323" type="curve" smooth="yes"/>
      <point x="438" y="101" type="line" smooth="yes"/>
      <point x="442" y="63"/>
      <point x="428" y="50"/>
      <point x="400" y="47" type="curve" smooth="yes"/>
      <point x="386" y="45" type="line" smooth="yes"/>
      <point x="372" y="43"/>
      <point x="360" y="39"/>
      <point x="360" y="23" type="curve" smooth="yes"/>
      <point x="360" y="8"/>
      <point x="372" y="0"/>
      <point x="389" y="0" type="curve" smooth="yes"/>
      <point x="567" y="0" type="line" smooth="yes"/>
      <point x="589" y="0"/>
      <point x="597" y="8"/>
      <point x="597" y="21" type="curve" smooth="yes"/>
      <point x="597" y="34"/>
      <point x="586" y="40"/>
      <point x="572" y="44" type="curve" smooth="yes"/>
      <point x="565" y="46" type="line" smooth="yes"/>
      <point x="547" y="50"/>
      <point x="535" y="63"/>
      <point x="532" y="85" type="curve" smooth="yes"/>
      <point x="496" y="346" type="line" smooth="yes"/>
      <point x="484" y="435"/>
      <point x="430" y="480"/>
      <point x="363" y="480" type="curve" smooth="yes"/>
      <point x="302.0" y="480.0"/>
      <point x="252.70661177107522" y="455.4516656031313"/>
      <point x="199" y="405" type="curve" smooth="yes"/>
      <point x="166" y="374" type="line"/>
    </contour>
  </outline>
</glyph>
<glyph name="o" format="2">
  <advance width="575"/>
  <unicode hex="006F"/>
  <outline>
    <contour>
      <point x="287" y="479" type="curve" smooth="yes"/>
      <point x="135" y="479"/>
      <point x="33" y="371"/>
      <point x="33" y="237" type="curve" smooth="yes"/>
      <point x="33" y="91"/>
      <point x="140" y="-15"/>
      <point x="287" y="-15" type="curve" smooth="yes"/>
      <point x="431" y="-15"/>
      <point x="543" y="88"/>
      <point x="543" y="237" type="curve" smooth="yes"/>
      <point x="543" y="378"/>
      <point x="436" y="479"/>
    </contour>
    <contour>
      <point x="374.05405405405406" y="426.0"/>
      <point x="448.0" y="325.0"/>
      <point x="448.0" y="197" type="curve" smooth="yes"/>
      <point x="448.0" y="100.0"/>
      <point x="392.97916666666663" y="40.0"/>
      <point x="309" y="40" type="curve" smooth="yes"/>
      <point x="205.8494623655914" y="40.0"/>
      <point x="128.0" y="140.0"/>
      <point x="128" y="266" type="curve" smooth="yes"/>
      <point x="128.0" y="362.0"/>
      <point x="184.9655172413793" y="426.0"/>
      <point x="268" y="426.0" type="curve" smooth="yes"/>
    </contour>
  </outline>
</glyph>
<glyph name="p" format="2">
  <advance width="574"/>
  <unicode hex="0070"/>
  <outline>
    <contour>
      <point x="158" y="343" type="line"/>
      <point x="203" y="389"/>
      <point x="246" y="407.0"/>
      <point x="290" y="407" type="curve" smooth="yes"/>
      <point x="384" y="407.0"/>
      <point x="452.0" y="321"/>
      <point x="452" y="203" type="curve" smooth="yes"/>
      <point x="452.0" y="107"/>
      <point x="389" y="41.0"/>
      <point x="300" y="41" type="curve" smooth="yes"/>
      <point x="243" y="41.0"/>
      <point x="197" y="63"/>
      <point x="168" y="110" type="curve"/>
      <point x="133" y="76" type="line"/>
      <point x="178" y="13"/>
      <point x="230" y="-15.0"/>
      <point x="310" y="-15.0" type="curve" smooth="yes"/>
      <point x="438" y="-15.0"/>
      <point x="546.0" y="95"/>
      <point x="546" y="251" type="curve" smooth="yes"/>
      <point x="546.0" y="384.0"/>
      <point x="463" y="480.0"/>
      <point x="351" y="480" type="curve" smooth="yes"/>
      <point x="278" y="480.0"/>
      <point x="195" y="443"/>
      <point x="139" y="361" type="curve"/>
    </contour>
    <contour>
      <point x="182" y="453" type="line" smooth="yes"/>
      <point x="182.0" y="470.0"/>
      <point x="173" y="480"/>
      <point x="159" y="480" type="curve" smooth="yes"/>
      <point x="146" y="480"/>
      <point x="133" y="474"/>
      <point x="116" y="466" type="curve" smooth="yes"/>
      <point x="40" y="431" type="line" smooth="yes"/>
      <point x="27" y="425"/>
      <point x="17" y="413"/>
      <point x="17" y="404" type="curve" smooth="yes"/>
      <point x="17" y="396"/>
      <point x="23" y="389"/>
      <point x="35" y="389" type="curve" smooth="yes"/>
      <point x="55" y="389" type="line" smooth="yes"/>
      <point x="79" y="389"/>
      <point x="94.0" y="379.0"/>
      <point x="94" y="354" type="curve" smooth="yes"/>
      <point x="94" y="-149" type="line" smooth="yes"/>
      <point x="94" y="-169"/>
      <point x="86" y="-192"/>
      <point x="68" y="-195" type="curve" smooth="yes"/>
      <point x="46" y="-199" type="line" smooth="yes"/>
      <point x="31" y="-202"/>
      <point x="21" y="-207"/>
      <point x="20" y="-221" type="curve" smooth="yes"/>
      <point x="19" y="-236"/>
      <point x="28" y="-245"/>
      <point x="51" y="-245" type="curve" smooth="yes"/>
      <point x="245" y="-245" type="line" smooth="yes"/>
      <point x="262" y="-245"/>
      <point x="270" y="-235"/>
      <point x="270" y="-222" type="curve" smooth="yes"/>
      <point x="270" y="-210"/>
      <point x="261" y="-205"/>
      <point x="246" y="-202" type="curve" smooth="yes"/>
      <point x="224" y="-198" type="line" smooth="yes"/>
      <point x="197" y="-193"/>
      <point x="182" y="-178"/>
      <point x="182" y="-147" type="curve" smooth="yes"/>
    </contour>
  </outline>
</glyph>
<glyph name="q" format="2">
  <advance width="562"/>
  <unicode hex="0071"/>
  <outline>
    <contour>
      <point x="492" y="-149" type="curve" smooth="yes"/>
      <point x="492" y="436" type="line" smooth="yes"/>
      <point x="492" y="452"/>
      <point x="484" y="461"/>
      <point x="473" y="461" type="curve" smooth="yes"/>
      <point x="461" y="461"/>
      <point x="452" y="457"/>
      <point x="440" y="450" type="curve" smooth="yes"/>
      <point x="401" y="424" type="line" smooth="yes"/>
      <point x="401" y="-147" type="line" smooth="yes"/>
      <point x="401" y="-178"/>
      <point x="386" y="-193"/>
      <point x="359" y="-198" type="curve" smooth="yes"/>
      <point x="337" y="-202" type="line" smooth="yes"/>
      <point x="322" y="-205"/>
      <point x="313" y="-210"/>
      <point x="313" y="-222" type="curve" smooth="yes"/>
      <point x="313" y="-235"/>
      <point x="321" y="-245"/>
      <point x="337" y="-245" type="curve" smooth="yes"/>
      <point x="532" y="-245" type="line" smooth="yes"/>
      <point x="555" y="-245"/>
      <point x="564" y="-236"/>
      <point x="563" y="-221" type="curve" smooth="yes"/>
      <point x="562" y="-207"/>
      <point x="552" y="-202"/>
      <point x="537" y="-199" type="curve" smooth="yes"/>
      <point x="518" y="-195" type="line" smooth="yes"/>
      <point x="501" y="-191"/>
      <point x="492" y="-169"/>
    </contour>
    <contour>
      <point x="429" y="118" type="line"/>
      <point x="382" y="74"/>
      <point x="341" y="58"/>
      <point x="297" y="58" type="curve" smooth="yes"/>
      <point x="196" y="58"/>
      <point x="125" y="133"/>
      <point x="125" y="249" type="curve" smooth="yes"/>
      <point x="125" y="361"/>
      <point x="191" y="431"/>
      <point x="279" y="431" type="curve" smooth="yes"/>
      <point x="343" y="431"/>
      <point x="390" y="408"/>
      <point x="421" y="359" type="curve"/>
      <point x="456" y="389" type="line"/>
      <point x="411" y="452"/>
      <point x="356" y="480"/>
      <point x="278" y="480" type="curve" smooth="yes"/>
      <point x="142" y="480"/>
      <point x="31" y="368"/>
      <point x="31" y="214" type="curve" smooth="yes"/>
      <point x="31" y="80"/>
      <point x="118" y="-14"/>
      <point x="227" y="-14" type="curve" smooth="yes"/>
      <point x="317" y="-14"/>
      <point x="376" y="23"/>
      <point x="448" y="100" type="curve"/>
    </contour>
  </outline>
</glyph>
<glyph name="r" format="2">
  <advance width="413"/>
  <unicode hex="0072"/>
  <outline>
    <contour>
      <point x="172" y="263" type="line"/>
      <point x="178" y="400"/>
      <point x="253" y="481"/>
      <point x="322" y="481" type="curve" smooth="yes"/>
      <point x="376" y="481"/>
      <point x="413" y="439"/>
      <point x="413" y="392" type="curve" smooth="yes"/>
      <point x="413" y="361"/>
      <point x="393" y="341"/>
      <point x="363" y="341" type="curve" smooth="yes"/>
      <point x="340" y="341"/>
      <point x="319" y="352"/>
      <point x="313" y="382" type="curve" smooth="yes"/>
      <point x="309" y="408"/>
      <point x="299" y="413"/>
      <point x="285" y="413" type="curve" smooth="yes"/>
      <point x="244" y="413"/>
      <point x="200" y="360"/>
      <point x="200" y="257" type="curve"/>
    </contour>
    <contour>
      <point x="54" y="390" type="line" smooth="yes"/>
      <point x="42" y="390"/>
      <point x="35" y="397"/>
      <point x="35" y="407" type="curve" smooth="yes"/>
      <point x="35" y="415"/>
      <point x="44" y="425"/>
      <point x="59" y="431" type="curve" smooth="yes"/>
      <point x="134" y="466" type="line" smooth="yes"/>
      <point x="153" y="475"/>
      <point x="164" y="480"/>
      <point x="176" y="480" type="curve" smooth="yes"/>
      <point x="190" y="480"/>
      <point x="200" y="469"/>
      <point x="200" y="452" type="curve" smooth="yes"/>
      <point x="200" y="101" type="line" smooth="yes"/>
      <point x="200" y="75"/>
      <point x="216" y="57"/>
      <point x="241" y="50" type="curve" smooth="yes"/>
      <point x="265" y="44" type="line" smooth="yes"/>
      <point x="279" y="40"/>
      <point x="288" y="35"/>
      <point x="288" y="24" type="curve" smooth="yes"/>
      <point x="288" y="8"/>
      <point x="280" y="0"/>
      <point x="259" y="0" type="curve" smooth="yes"/>
      <point x="64" y="0" type="line" smooth="yes"/>
      <point x="48" y="0"/>
      <point x="37" y="7"/>
      <point x="37" y="22" type="curve" smooth="yes"/>
      <point x="37" y="35"/>
      <point x="47" y="42"/>
      <point x="66" y="47" type="curve" smooth="yes"/>
      <point x="83" y="50" type="line" smooth="yes"/>
      <point x="99" y="54"/>
      <point x="112" y="67"/>
      <point x="112" y="93" type="curve" smooth="yes"/>
      <point x="112" y="355" type="line" smooth="yes"/>
      <point x="112" y="380"/>
      <point x="91" y="390"/>
      <point x="73" y="390" type="curve" smooth="yes"/>
    </contour>
  </outline>
</glyph>
<glyph name="s" format="2">
  <advance width="446"/>
  <unicode hex="0073"/>
  <anchor x="249" y="-3" name="bottom"/>
  <outline>
    <contour>
      <point x="237.0" y="31.0" type="curve" smooth="yes"/>
      <point x="187.0" y="31.0"/>
      <point x="144" y="54"/>
      <point x="106" y="114" type="curve" smooth="yes"/>
      <point x="92" y="135"/>
      <point x="83" y="143.0"/>
      <point x="72.0" y="143.0" type="curve" smooth="yes"/>
      <point x="58.31578947368421" y="143.0"/>
      <point x="52.0" y="135.6315789473684"/>
      <point x="52.0" y="123.0" type="curve" smooth="yes"/>
      <point x="52.0" y="114.25714285714285"/>
      <point x="55" y="103"/>
      <point x="60" y="89" type="curve" smooth="yes"/>
      <point x="90.0" y="2.0" type="line" smooth="yes"/>
      <point x="94" y="-11"/>
      <point x="100" y="-15"/>
      <point x="107.0" y="-15.0" type="curve" smooth="yes"/>
      <point x="119" y="-15.0"/>
      <point x="128" y="3.0"/>
      <point x="141" y="3.0" type="curve" smooth="yes"/>
      <point x="156" y="3"/>
      <point x="191" y="-15.0"/>
      <point x="235.0" y="-15.0" type="curve" smooth="yes"/>
      <point x="337" y="-15"/>
      <point x="400.0" y="49.0"/>
      <point x="400.0" y="131.0" type="curve" smooth="yes"/>
      <point x="400.0" y="187.0"/>
      <point x="355.0" y="248.0"/>
      <point x="261.0" y="271.0" type="curve" smooth="yes"/>
      <point x="169.0" y="295.0"/>
      <point x="123.0" y="325.0"/>
      <point x="123.0" y="370.0" type="curve" smooth="yes"/>
      <point x="123.0" y="408.0"/>
      <point x="159.0" y="433.0"/>
      <point x="203.0" y="433.0" type="curve" smooth="yes"/>
      <point x="248.31914893617022" y="433.0"/>
      <point x="294.8704029993712" y="411.17106804083"/>
      <point x="345" y="345" type="curve" smooth="yes"/>
      <point x="355.6821368281119" y="330.04500844064336"/>
      <point x="367.8" y="320.0"/>
      <point x="383.0" y="320.0" type="curve" smooth="yes"/>
      <point x="397.44444444444446" y="320.0"/>
      <point x="403.0" y="328.2352941176471"/>
      <point x="403.0" y="340.0" type="curve" smooth="yes"/>
      <point x="403.0" y="346.2758620689655"/>
      <point x="399" y="357"/>
      <point x="395" y="366" type="curve" smooth="yes"/>
      <point x="352" y="461" type="line" smooth="yes"/>
      <point x="346" y="474"/>
      <point x="339.0" y="480.0"/>
      <point x="329.0" y="480.0" type="curve" smooth="yes"/>
      <point x="318.0" y="480.0"/>
      <point x="312.0" y="462.0"/>
      <point x="298.0" y="462.0" type="curve" smooth="yes"/>
      <point x="281.0" y="462.0"/>
      <point x="251.0" y="479.0"/>
      <point x="205.0" y="479.0" type="curve" smooth="yes"/>
      <point x="114" y="479"/>
      <point x="41.0" y="413.0"/>
      <point x="41.0" y="339.0" type="curve" smooth="yes"/>
      <point x="41.0" y="267.0"/>
      <point x="91.0" y="214.0"/>
      <point x="188.0" y="192.0" type="curve" smooth="yes"/>
      <point x="272.0" y="173.0"/>
      <point x="317.0" y="140.0"/>
      <point x="317.0" y="97.0" type="curve" smooth="yes"/>
      <point x="317.0" y="59.0"/>
      <point x="287.0" y="31.0"/>
    </contour>
  </outline>
</glyph>
<glyph name="t" format="2">
  <advance width="330"/>
  <unicode hex="0074"/>
  <anchor x="249" y="-3" name="bottom"/>
  <outline>
    <contour>
      <point x="51" y="410" type="line" smooth="yes"/>
      <point x="73" y="402"/>
      <point x="81" y="388"/>
      <point x="81" y="367" type="curve" smooth="yes"/>
      <point x="81" y="97" type="line" smooth="yes"/>
      <point x="81" y="29"/>
      <point x="126" y="-10"/>
      <point x="195" y="-10" type="curve" smooth="yes"/>
      <point x="223" y="-10"/>
      <point x="258" y="3"/>
      <point x="279" y="19" type="curve" smooth="yes"/>
      <point x="304" y="36"/>
      <point x="312" y="46"/>
      <point x="312" y="60" type="curve" smooth="yes"/>
      <point x="312" y="68"/>
      <point x="307" y="75"/>
      <point x="299" y="75" type="curve" smooth="yes"/>
      <point x="291" y="75"/>
      <point x="284" y="73"/>
      <point x="274" y="67" type="curve" smooth="yes"/>
      <point x="261" y="60"/>
      <point x="251" y="57"/>
      <point x="239" y="57" type="curve" smooth="yes"/>
      <point x="198" y="57"/>
      <point x="170" y="80"/>
      <point x="170" y="122" type="curve" smooth="yes"/>
      <point x="170" y="549" type="line" smooth="yes"/>
      <point x="170" y="565"/>
      <point x="161" y="575"/>
      <point x="149" y="575" type="curve" smooth="yes"/>
      <point x="139" y="575"/>
      <point x="127" y="568"/>
      <point x="117" y="550" type="curve" smooth="yes"/>
      <point x="81" y="486" type="line" smooth="yes"/>
      <point x="73" y="472"/>
      <point x="62.0" y="465.0"/>
      <point x="46" y="465" type="curve" smooth="yes"/>
      <point x="30" y="465" type="line" smooth="yes"/>
      <point x="14" y="465"/>
      <point x="5" y="455"/>
      <point x="5" y="444" type="curve" smooth="yes"/>
      <point x="5" y="433"/>
      <point x="14" y="424"/>
      <point x="32" y="417" type="curve" smooth="yes"/>
    </contour>
    <contour>
      <point x="100" y="418" type="line"/>
      <point x="100" y="418"/>
      <point x="248" y="418"/>
      <point x="276" y="418" type="curve" smooth="yes"/>
      <point x="294" y="418"/>
      <point x="306" y="425"/>
      <point x="306" y="442" type="curve" smooth="yes"/>
      <point x="306" y="457"/>
      <point x="294" y="465"/>
      <point x="274" y="465" type="curve" smooth="yes"/>
      <point x="255" y="465"/>
      <point x="107" y="465"/>
      <point x="107" y="465" type="curve"/>
    </contour>
  </outline>
</glyph>
<glyph name="u" format="2">
  <advance width="579"/>
  <unicode hex="0075"/>
  <outline>
    <contour>
      <point x="486" y="453" type="line" smooth="yes"/>
      <point x="486" y="470"/>
      <point x="477" y="480"/>
      <point x="462" y="480" type="curve" smooth="yes"/>
      <point x="451" y="480"/>
      <point x="439" y="477"/>
      <point x="422" y="467" type="curve" smooth="yes"/>
      <point x="342" y="423" type="line" smooth="yes"/>
      <point x="328" y="415"/>
      <point x="319" y="405"/>
      <point x="319" y="396" type="curve" smooth="yes"/>
      <point x="319" y="387"/>
      <point x="326" y="381"/>
      <point x="338" y="381" type="curve" smooth="yes"/>
      <point x="361" y="381" type="line" smooth="yes"/>
      <point x="382" y="381"/>
      <point x="395" y="370"/>
      <point x="395" y="345" type="curve" smooth="yes"/>
      <point x="395" y="49" type="line" smooth="yes"/>
      <point x="395" y="12.0"/>
      <point x="411.0" y="0"/>
      <point x="447" y="0" type="curve" smooth="yes"/>
      <point x="531" y="0" type="line" smooth="yes"/>
      <point x="552" y="0"/>
      <point x="560" y="10"/>
      <point x="560" y="24" type="curve" smooth="yes"/>
      <point x="560" y="38"/>
      <point x="548" y="43"/>
      <point x="533" y="46" type="curve" smooth="yes"/>
      <point x="515" y="49" type="line" smooth="yes"/>
      <point x="496" y="53"/>
      <point x="486" y="72"/>
      <point x="486" y="107" type="curve" smooth="yes"/>
    </contour>
    <contour>
      <point x="173" y="453" type="line" smooth="yes"/>
      <point x="173" y="470"/>
      <point x="165" y="480"/>
      <point x="152" y="480" type="curve" smooth="yes"/>
      <point x="141" y="480"/>
      <point x="129" y="477"/>
      <point x="112" y="467" type="curve" smooth="yes"/>
      <point x="33" y="423" type="line" smooth="yes"/>
      <point x="19" y="415"/>
      <point x="9" y="405"/>
      <point x="9" y="396" type="curve" smooth="yes"/>
      <point x="9" y="387"/>
      <point x="16" y="381"/>
      <point x="28" y="381" type="curve" smooth="yes"/>
      <point x="51" y="381" type="line" smooth="yes"/>
      <point x="73" y="381"/>
      <point x="86" y="370"/>
      <point x="86" y="345" type="curve" smooth="yes"/>
      <point x="86" y="126" type="line" smooth="yes"/>
      <point x="86.0" y="46.0"/>
      <point x="152" y="-9"/>
      <point x="231" y="-9" type="curve" smooth="yes"/>
      <point x="298" y="-9"/>
      <point x="363" y="19"/>
      <point x="425" y="81" type="curve"/>
      <point x="411" y="109" type="line"/>
      <point x="360" y="69"/>
      <point x="312" y="53"/>
      <point x="276" y="53" type="curve" smooth="yes"/>
      <point x="224" y="53"/>
      <point x="173.0" y="82.0"/>
      <point x="173" y="169" type="curve" smooth="yes"/>
    </contour>
  </outline>
</glyph>
<glyph name="w" format="2">
  <advance width="802"/>
  <unicode hex="0077"/>
  <outline>
    <contour>
      <point x="219" y="-5" type="curve" smooth="yes"/>
      <point x="252" y="-5" type="line" smooth="yes"/>
      <point x="264" y="-5"/>
      <point x="274" y="3"/>
      <point x="281" y="18" type="curve" smooth="yes"/>
      <point x="415" y="327" type="line"/>
      <point x="386" y="385" type="line"/>
      <point x="253" y="67" type="line" smooth="yes"/>
      <point x="267" y="63" type="line"/>
      <point x="152" y="362" type="line" smooth="yes"/>
      <point x="147" y="375"/>
      <point x="142" y="384"/>
      <point x="142" y="396" type="curve" smooth="yes"/>
      <point x="142" y="408"/>
      <point x="151" y="413"/>
      <point x="170" y="418" type="curve" smooth="yes"/>
      <point x="193" y="424" type="line" smooth="yes"/>
      <point x="206.25271085701362" y="427.45722891922094"/>
      <point x="214.0" y="435.0"/>
      <point x="214" y="448" type="curve" smooth="yes"/>
      <point x="214" y="460"/>
      <point x="204" y="465"/>
      <point x="187" y="465" type="curve" smooth="yes"/>
      <point x="28" y="465" type="line" smooth="yes"/>
      <point x="8" y="465"/>
      <point x="0" y="456"/>
      <point x="0" y="442" type="curve" smooth="yes"/>
      <point x="0" y="430"/>
      <point x="9" y="421"/>
      <point x="23" y="411" type="curve" smooth="yes"/>
      <point x="33" y="404"/>
      <point x="42" y="395"/>
      <point x="49" y="378" type="curve" smooth="yes"/>
      <point x="189" y="24" type="line" smooth="yes"/>
      <point x="196" y="6"/>
      <point x="207" y="-5"/>
    </contour>
    <contour>
      <point x="587" y="-5" type="line" smooth="yes"/>
      <point x="597" y="-5"/>
      <point x="604" y="1"/>
      <point x="610" y="16" type="curve" smooth="yes"/>
      <point x="743" y="347" type="line" smooth="yes"/>
      <point x="755" y="376"/>
      <point x="766.0" y="390"/>
      <point x="784" y="406" type="curve" smooth="yes"/>
      <point x="795" y="416"/>
      <point x="802" y="427"/>
      <point x="802" y="443" type="curve" smooth="yes"/>
      <point x="802.0" y="456.0"/>
      <point x="794" y="465"/>
      <point x="776" y="465" type="curve" smooth="yes"/>
      <point x="642" y="465" type="line" smooth="yes"/>
      <point x="628.1481481481482" y="465"/>
      <point x="620" y="459"/>
      <point x="620.0" y="446" type="curve" smooth="yes"/>
      <point x="620.0" y="435.0"/>
      <point x="627" y="427"/>
      <point x="639" y="422" type="curve" smooth="yes"/>
      <point x="670" y="410" type="line" smooth="yes"/>
      <point x="691" y="402"/>
      <point x="694" y="393"/>
      <point x="694" y="382" type="curve" smooth="yes"/>
      <point x="694" y="363"/>
      <point x="690" y="352"/>
      <point x="679" y="324" type="curve" smooth="yes"/>
      <point x="582" y="67" type="line" smooth="yes"/>
      <point x="596" y="63" type="line"/>
      <point x="475" y="362" type="line" smooth="yes"/>
      <point x="470" y="374"/>
      <point x="468" y="383"/>
      <point x="468" y="394" type="curve" smooth="yes"/>
      <point x="468" y="406"/>
      <point x="473" y="410"/>
      <point x="488" y="417" type="curve" smooth="yes"/>
      <point x="507" y="425" type="line" smooth="yes"/>
      <point x="519" y="431"/>
      <point x="527" y="436"/>
      <point x="527" y="448" type="curve" smooth="yes"/>
      <point x="527" y="460"/>
      <point x="517" y="465"/>
      <point x="500" y="465" type="curve" smooth="yes"/>
      <point x="321" y="465" type="line" smooth="yes"/>
      <point x="308.7857142857143" y="465"/>
      <point x="303.0" y="458.0"/>
      <point x="303" y="448" type="curve" smooth="yes"/>
      <point x="303" y="438"/>
      <point x="312" y="431"/>
      <point x="331" y="421" type="curve" smooth="yes"/>
      <point x="349" y="412"/>
      <point x="365" y="395"/>
      <point x="372" y="378" type="curve" smooth="yes"/>
      <point x="523" y="15" type="line" smooth="yes"/>
      <point x="528" y="4"/>
      <point x="538" y="-5"/>
      <point x="549" y="-5" type="curve" smooth="yes"/>
    </contour>
  </outline>
</glyph>
<glyph name="x" format="2">
  <advance width="513"/>
  <unicode hex="0078"/>
  <outline>
    <contour>
      <point x="207" y="21" type="curve" smooth="yes"/>
      <point x="207" y="30"/>
      <point x="204" y="34"/>
      <point x="196" y="37" type="curve" smooth="yes"/>
      <point x="176" y="47" type="line" smooth="yes"/>
      <point x="161" y="54"/>
      <point x="155" y="59"/>
      <point x="155" y="69" type="curve" smooth="yes"/>
      <point x="155" y="80"/>
      <point x="165" y="92"/>
      <point x="179" y="109" type="curve" smooth="yes"/>
      <point x="259" y="209" type="line"/>
      <point x="225" y="211" type="line"/>
      <point x="310" y="98" type="line" smooth="yes"/>
      <point x="322" y="82"/>
      <point x="327" y="76"/>
      <point x="327" y="66" type="curve" smooth="yes"/>
      <point x="327" y="59"/>
      <point x="320" y="54"/>
      <point x="311" y="49" type="curve" smooth="yes"/>
      <point x="295" y="42" type="line" smooth="yes"/>
      <point x="281" y="35"/>
      <point x="272" y="31"/>
      <point x="272" y="18" type="curve" smooth="yes"/>
      <point x="272" y="6"/>
      <point x="283" y="0"/>
      <point x="299" y="0" type="curve" smooth="yes"/>
      <point x="475" y="0" type="line" smooth="yes"/>
      <point x="495" y="0"/>
      <point x="503" y="9"/>
      <point x="503" y="21" type="curve" smooth="yes"/>
      <point x="503" y="30"/>
      <point x="495" y="40"/>
      <point x="474" y="47" type="curve" smooth="yes"/>
      <point x="462" y="50"/>
      <point x="450" y="61"/>
      <point x="430" y="84" type="curve" smooth="yes"/>
      <point x="289" y="250" type="line"/>
      <point x="281" y="216" type="line"/>
      <point x="420" y="376" type="line" smooth="yes"/>
      <point x="444" y="404"/>
      <point x="459" y="417"/>
      <point x="479" y="426" type="curve" smooth="yes"/>
      <point x="496" y="435"/>
      <point x="508" y="438"/>
      <point x="508" y="449" type="curve" smooth="yes"/>
      <point x="508" y="459"/>
      <point x="500" y="466"/>
      <point x="480" y="466" type="curve" smooth="yes"/>
      <point x="338" y="466" type="line" smooth="yes"/>
      <point x="321" y="466"/>
      <point x="310" y="461"/>
      <point x="310" y="449" type="curve" smooth="yes"/>
      <point x="310" y="439"/>
      <point x="323" y="435"/>
      <point x="337" y="426" type="curve" smooth="yes"/>
      <point x="351" y="418" type="line" smooth="yes"/>
      <point x="362" y="411"/>
      <point x="365" y="403"/>
      <point x="365" y="392" type="curve" smooth="yes"/>
      <point x="365" y="376"/>
      <point x="356" y="364"/>
      <point x="344" y="350" type="curve" smooth="yes"/>
      <point x="254" y="242" type="line"/>
      <point x="288" y="250" type="line"/>
      <point x="194" y="369" type="line" smooth="yes"/>
      <point x="184" y="381"/>
      <point x="181" y="388"/>
      <point x="181" y="397" type="curve" smooth="yes"/>
      <point x="181" y="409"/>
      <point x="188" y="415"/>
      <point x="195" y="419" type="curve" smooth="yes"/>
      <point x="205" y="425" type="line" smooth="yes"/>
      <point x="218" y="431"/>
      <point x="227" y="436"/>
      <point x="227" y="449" type="curve" smooth="yes"/>
      <point x="227" y="461"/>
      <point x="216" y="466"/>
      <point x="201" y="466" type="curve" smooth="yes"/>
      <point x="35" y="466" type="line" smooth="yes"/>
      <point x="14" y="466"/>
      <point x="7" y="458"/>
      <point x="7" y="446" type="curve" smooth="yes"/>
      <point x="7" y="433"/>
      <point x="14" y="425"/>
      <point x="27" y="422" type="curve" smooth="yes"/>
      <point x="42" y="417"/>
      <point x="56" y="405"/>
      <point x="80" y="377" type="curve" smooth="yes"/>
      <point x="232" y="199" type="line"/>
      <point x="227" y="232" type="line"/>
      <point x="132" y="118" type="line" smooth="yes"/>
      <point x="100" y="80"/>
      <point x="83" y="65"/>
      <point x="48" y="52" type="curve" smooth="yes"/>
      <point x="22" y="44"/>
      <point x="5" y="39"/>
      <point x="5" y="20" type="curve" smooth="yes"/>
      <point x="5" y="8"/>
      <point x="12" y="0"/>
      <point x="33" y="0" type="curve" smooth="yes"/>
      <point x="179" y="0" type="line" smooth="yes"/>
      <point x="196" y="0"/>
      <point x="207" y="7"/>
    </contour>
  </outline>
</glyph>
<glyph name="y" format="2">
  <advance width="500"/>
  <unicode hex="0079"/>
  <outline>
    <contour>
      <point x="286" y="80" type="line"/>
      <point x="161" y="362" type="line" smooth="yes"/>
      <point x="155" y="375"/>
      <point x="150" y="384"/>
      <point x="150" y="396" type="curve" smooth="yes"/>
      <point x="150" y="408"/>
      <point x="159" y="413"/>
      <point x="179" y="418" type="curve" smooth="yes"/>
      <point x="205" y="423" type="line" smooth="yes"/>
      <point x="220" y="427"/>
      <point x="229" y="435"/>
      <point x="229" y="448" type="curve" smooth="yes"/>
      <point x="229" y="460"/>
      <point x="218" y="465"/>
      <point x="200" y="465" type="curve" smooth="yes"/>
      <point x="32" y="465" type="line" smooth="yes"/>
      <point x="11.0" y="465"/>
      <point x="0.0" y="456.15384615384613"/>
      <point x="0" y="442" type="curve" smooth="yes"/>
      <point x="0.0" y="428.6666666666667"/>
      <point x="9.661696050536538" y="419.1821636650957"/>
      <point x="23" y="412" type="curve" smooth="yes"/>
      <point x="35" y="406"/>
      <point x="44" y="396"/>
      <point x="52" y="378" type="curve" smooth="yes"/>
      <point x="242" y="-37" type="line"/>
    </contour>
    <contour>
      <point x="202" y="-120" type="line" smooth="yes"/>
      <point x="186" y="-164"/>
      <point x="170" y="-175"/>
      <point x="153" y="-175.0" type="curve" smooth="yes"/>
      <point x="137" y="-175"/>
      <point x="126" y="-167"/>
      <point x="115" y="-149" type="curve" smooth="yes"/>
      <point x="104" y="-132" type="line" smooth="yes"/>
      <point x="88.97898895417511" y="-108.78571020190698"/>
      <point x="74.57692307692308" y="-101.0"/>
      <point x="53" y="-101" type="curve" smooth="yes"/>
      <point x="25.0" y="-101.0"/>
      <point x="5" y="-121"/>
      <point x="5" y="-153" type="curve" smooth="yes"/>
      <point x="5" y="-206.0"/>
      <point x="43.0" y="-245.0"/>
      <point x="110" y="-245" type="curve" smooth="yes"/>
      <point x="175" y="-245"/>
      <point x="220.55909417992726" y="-216.69523795002436"/>
      <point x="255" y="-124" type="curve" smooth="yes"/>
      <point x="430" y="347" type="line" smooth="yes"/>
      <point x="444" y="385"/>
      <point x="456" y="398"/>
      <point x="475" y="406" type="curve" smooth="yes"/>
      <point x="490" y="412"/>
      <point x="500" y="423"/>
      <point x="500.0" y="440" type="curve" smooth="yes"/>
      <point x="500" y="455"/>
      <point x="491" y="465"/>
      <point x="468" y="465" type="curve" smooth="yes"/>
      <point x="323" y="465" type="line" smooth="yes"/>
      <point x="308.9310344827586" y="465"/>
      <point x="299.0" y="460.0"/>
      <point x="299" y="449" type="curve" smooth="yes"/>
      <point x="299.0" y="438"/>
      <point x="306" y="430"/>
      <point x="321" y="424" type="curve" smooth="yes"/>
      <point x="344" y="414" type="line" smooth="yes"/>
      <point x="369" y="403"/>
      <point x="378" y="399"/>
      <point x="378" y="382" type="curve" smooth="yes"/>
      <point x="378" y="365"/>
      <point x="374" y="351"/>
      <point x="364" y="324" type="curve" smooth="yes"/>
    </contour>
  </outline>
</glyph>
<glyph name="braceleft" format="2">
  <advance width="409"/>
  <unicode hex="007B"/>
  <outline>
    <contour>
      <point x="195" y="269" type="curve" smooth="yes"/>
      <point x="195.0" y="276"/>
      <point x="201" y="282"/>
      <point x="210" y="282" type="curve" smooth="yes"/>
      <point x="253.03030303030303" y="282.0"/>
      <point x="281.0" y="312.0"/>
      <point x="281.0" y="355" type="curve" smooth="yes"/>
      <point x="281" y="428"/>
      <point x="203" y="492"/>
      <point x="203.0" y="558.0" type="curve" smooth="yes"/>
      <point x="203.0" y="625.0"/>
      <point x="252.69911504424778" y="678"/>
      <point x="311" y="678" type="curve" smooth="yes"/>
      <point x="361" y="678" type="line" smooth="yes"/>
      <point x="375.0" y="678"/>
      <point x="384" y="685"/>
      <point x="384" y="697" type="curve" smooth="yes"/>
      <point x="384" y="707"/>
      <point x="377.0" y="715.0"/>
      <point x="363" y="715" type="curve" smooth="yes"/>
      <point x="311" y="715" type="line" smooth="yes"/>
      <point x="200.0" y="715"/>
      <point x="121.0" y="652"/>
      <point x="121.0" y="560.0" type="curve" smooth="yes"/>
      <point x="121" y="478"/>
      <point x="200" y="426"/>
      <point x="200.0" y="359" type="curve" smooth="yes"/>
      <point x="200.0" y="315"/>
      <point x="165.51685393258427" y="291.0"/>
      <point x="101" y="291" type="curve" smooth="yes"/>
      <point x="88.29411764705883" y="291.0"/>
      <point x="77.0" y="280.16129032258067"/>
      <point x="77" y="270" type="curve" smooth="yes"/>
      <point x="77.0" y="259.16129032258067"/>
      <point x="86.88235294117646" y="249.0"/>
      <point x="101" y="249" type="curve" smooth="yes"/>
      <point x="168.85393258426967" y="249.0"/>
      <point x="200.0" y="221"/>
      <point x="200.0" y="176" type="curve" smooth="yes"/>
      <point x="200" y="116"/>
      <point x="121" y="64"/>
      <point x="121.0" y="-20.0" type="curve" smooth="yes"/>
      <point x="121.0" y="-110.0"/>
      <point x="200.0" y="-173.0"/>
      <point x="311" y="-175" type="curve" smooth="yes"/>
      <point x="363" y="-175" type="line" smooth="yes"/>
      <point x="377.0" y="-173.0"/>
      <point x="384" y="-165"/>
      <point x="384" y="-157" type="curve" smooth="yes"/>
      <point x="384" y="-143"/>
      <point x="375.0" y="-136.0"/>
      <point x="361" y="-138" type="curve" smooth="yes"/>
      <point x="311" y="-138" type="line" smooth="yes"/>
      <point x="252.66482033434835" y="-138"/>
      <point x="203.0" y="-83.0"/>
      <point x="203.0" y="-18.0" type="curve" smooth="yes"/>
      <point x="203" y="50"/>
      <point x="281" y="114"/>
      <point x="281.0" y="181" type="curve" smooth="yes"/>
      <point x="281.0" y="223.0"/>
      <point x="256.2325581395349" y="257.0"/>
      <point x="210" y="257" type="curve" smooth="yes"/>
      <point x="201" y="257.0"/>
      <point x="195.0" y="261"/>
    </contour>
  </outline>
</glyph>
<glyph name="bar" format="2">
  <advance width="357"/>
  <unicode hex="007C"/>
  <outline>
    <contour>
      <point x="207" y="734" type="line" smooth="yes"/>
      <point x="207.0" y="750.0"/>
      <point x="199" y="765"/>
      <point x="180" y="766" type="curve" smooth="yes"/>
      <point x="161" y="767"/>
      <point x="150.0" y="751.0"/>
      <point x="150" y="734" type="curve" smooth="yes"/>
      <point x="150" y="-214" type="line" smooth="yes"/>
      <point x="150" y="-231"/>
      <point x="161" y="-247"/>
      <point x="180" y="-246" type="curve" smooth="yes"/>
      <point x="199" y="-245"/>
      <point x="207" y="-230"/>
      <point x="207" y="-214" type="curve" smooth="yes"/>
    </contour>
  </outline>
</glyph>
<glyph name="cent" format="2">
  <advance width="458"/>
  <unicode hex="00A2"/>
  <outline>
    <contour>
      <point x="288" y="296" type="line"/>
      <point x="352" y="535"/>
      <point x="375" y="574"/>
      <point x="386" y="615" type="curve" smooth="yes"/>
      <point x="392" y="637"/>
      <point x="379" y="653"/>
      <point x="362" y="658" type="curve" smooth="yes"/>
      <point x="349" y="662"/>
      <point x="334" y="655"/>
      <point x="327" y="632" type="curve" smooth="yes"/>
      <point x="317" y="597"/>
      <point x="319" y="548"/>
      <point x="253" y="305" type="curve"/>
    </contour>
    <contour>
      <point x="265.0" y="348.0" type="line"/>
      <point x="201.0" y="109.0"/>
      <point x="178.0" y="70.0"/>
      <point x="167.0" y="29.0" type="curve" smooth="yes"/>
      <point x="161.0" y="7.0"/>
      <point x="174.0" y="-9.0"/>
      <point x="191.0" y="-14.0" type="curve" smooth="yes"/>
      <point x="204.0" y="-18.0"/>
      <point x="219.0" y="-11.0"/>
      <point x="226.0" y="12.0" type="curve" smooth="yes"/>
      <point x="236.0" y="47.0"/>
      <point x="234.0" y="96.0"/>
      <point x="300.0" y="339.0" type="curve"/>
    </contour>
    <component base="c" yOffset="91"/>
  </outline>
</glyph>
<glyph name="sterling" format="2">
  <advance width="542"/>
  <unicode hex="00A3"/>
  <outline>
    <contour>
      <point x="368" y="50" type="curve" smooth="yes"/>
      <point x="166" y="50" type="line"/>
      <point x="204" y="70"/>
      <point x="239" y="116"/>
      <point x="239" y="174" type="curve" smooth="yes"/>
      <point x="238" y="471" type="line" smooth="yes"/>
      <point x="238" y="576"/>
      <point x="270.0" y="603.0"/>
      <point x="312" y="603" type="curve" smooth="yes"/>
      <point x="333" y="603"/>
      <point x="350" y="587"/>
      <point x="350" y="556" type="curve" smooth="yes"/>
      <point x="350" y="541" type="line" smooth="yes"/>
      <point x="350" y="506"/>
      <point x="376" y="482"/>
      <point x="405" y="482" type="curve" smooth="yes"/>
      <point x="440" y="482"/>
      <point x="462" y="504"/>
      <point x="462" y="542" type="curve" smooth="yes"/>
      <point x="462" y="603"/>
      <point x="423" y="650"/>
      <point x="339" y="650" type="curve" smooth="yes"/>
      <point x="224.0" y="650.0"/>
      <point x="140" y="569"/>
      <point x="139" y="437" type="curve" smooth="yes"/>
      <point x="137" y="140" type="line" smooth="yes"/>
      <point x="137" y="93"/>
      <point x="120" y="72"/>
      <point x="94" y="55" type="curve" smooth="yes"/>
      <point x="77" y="44"/>
      <point x="58" y="34"/>
      <point x="58" y="21" type="curve" smooth="yes"/>
      <point x="58" y="6"/>
      <point x="70.0" y="0"/>
      <point x="86" y="0" type="curve" smooth="yes"/>
      <point x="351" y="0" type="line" smooth="yes"/>
      <point x="453" y="0"/>
      <point x="518" y="45"/>
      <point x="518" y="116" type="curve" smooth="yes"/>
      <point x="518" y="154"/>
      <point x="492" y="178"/>
      <point x="458" y="178" type="curve" smooth="yes"/>
      <point x="425" y="178"/>
      <point x="399" y="148"/>
      <point x="399" y="118" type="curve" smooth="yes"/>
      <point x="399" y="81" type="line" smooth="yes"/>
      <point x="399" y="61"/>
      <point x="388" y="50"/>
    </contour>
    <contour>
      <point x="61.0" y="301" type="curve" smooth="yes"/>
      <point x="61.0" y="288"/>
      <point x="68" y="280"/>
      <point x="81" y="280.0" type="curve" smooth="yes"/>
      <point x="343" y="280.0" type="line" smooth="yes"/>
      <point x="356.0" y="280.0"/>
      <point x="365" y="288"/>
      <point x="365" y="301" type="curve" smooth="yes"/>
      <point x="365" y="313"/>
      <point x="356.0" y="322.0"/>
      <point x="343" y="322" type="curve" smooth="yes"/>
      <point x="82" y="322" type="line" smooth="yes"/>
      <point x="70" y="322"/>
      <point x="61.0" y="313"/>
    </contour>
  </outline>
</glyph>
<glyph name="yen" format="2">
  <advance width="611"/>
  <unicode hex="00A5"/>
  <outline>
    <contour>
      <point x="63" y="182" type="curve" smooth="yes"/>
      <point x="63" y="167"/>
      <point x="72" y="157"/>
      <point x="88" y="157" type="curve" smooth="yes"/>
      <point x="512" y="157" type="line" smooth="yes"/>
      <point x="528" y="157"/>
      <point x="538" y="167"/>
      <point x="538" y="182" type="curve" smooth="yes"/>
      <point x="538" y="198"/>
      <point x="527" y="209"/>
      <point x="512" y="209" type="curve" smooth="yes"/>
      <point x="89" y="209" type="line" smooth="yes"/>
      <point x="74" y="209"/>
      <point x="63" y="198"/>
    </contour>
    <contour>
      <point x="63" y="330" type="curve" smooth="yes"/>
      <point x="63" y="315"/>
      <point x="72" y="305"/>
      <point x="88" y="305" type="curve" smooth="yes"/>
      <point x="243" y="305" type="line"/>
      <point x="213" y="357" type="line"/>
      <point x="89" y="357" type="line" smooth="yes"/>
      <point x="74" y="357"/>
      <point x="63" y="346"/>
    </contour>
    <contour>
      <point x="389" y="305" type="line"/>
      <point x="512" y="305" type="line" smooth="yes"/>
      <point x="528" y="305"/>
      <point x="538" y="315"/>
      <point x="538" y="330" type="curve" smooth="yes"/>
      <point x="538" y="346"/>
      <point x="527" y="357"/>
      <point x="512" y="357" type="curve" smooth="yes"/>
      <point x="416" y="357" type="line"/>
    </contour>
    <component base="Y" xScale="0.9135172474836407" yScale="0.9135172474836407" xOffset="10"/>
  </outline>
</glyph>
<glyph name="section" format="2">
  <advance width="523"/>
  <unicode hex="00A7"/>
  <outline>
    <contour>
      <point x="279" y="-189" type="curve" smooth="yes"/>
      <point x="221" y="-189"/>
      <point x="172" y="-158"/>
      <point x="126" y="-77" type="curve" smooth="yes"/>
      <point x="110" y="-50"/>
      <point x="99" y="-40"/>
      <point x="86" y="-40" type="curve" smooth="yes"/>
      <point x="70" y="-40"/>
      <point x="63" y="-50"/>
      <point x="63" y="-66" type="curve" smooth="yes"/>
      <point x="63" y="-77"/>
      <point x="66" y="-92"/>
      <point x="72" y="-110" type="curve" smooth="yes"/>
      <point x="107" y="-221" type="line" smooth="yes"/>
      <point x="112" y="-238"/>
      <point x="119" y="-243"/>
      <point x="127" y="-243" type="curve" smooth="yes"/>
      <point x="141" y="-243"/>
      <point x="152" y="-220"/>
      <point x="167" y="-220" type="curve" smooth="yes"/>
      <point x="184" y="-220"/>
      <point x="225" y="-243"/>
      <point x="277" y="-243" type="curve" smooth="yes"/>
      <point x="393" y="-243"/>
      <point x="465" y="-163"/>
      <point x="465.0" y="-68" type="curve" smooth="yes"/>
      <point x="465.0" y="1.0"/>
      <point x="426.76833686369616" y="48.43985459193753"/>
      <point x="293" y="131" type="curve" smooth="yes"/>
      <point x="161.74086037047564" y="211.48005641518284"/>
      <point x="131.0" y="257.34567901234567"/>
      <point x="131" y="303" type="curve" smooth="yes"/>
      <point x="131" y="345"/>
      <point x="162" y="373"/>
      <point x="199" y="373" type="curve"/>
      <point x="202" y="417" type="line"/>
      <point x="117.55555555555556" y="417.0"/>
      <point x="50.0" y="342.0"/>
      <point x="50" y="258" type="curve" smooth="yes"/>
      <point x="50.0" y="180.0"/>
      <point x="101.25756028193058" y="121.09782672437433"/>
      <point x="221" y="55" type="curve" smooth="yes"/>
      <point x="352.3072276334997" y="-18.53204747475982"/>
      <point x="384.0000241824838" y="-45.99871832835867"/>
      <point x="383" y="-99" type="curve" smooth="yes"/>
      <point x="382" y="-151"/>
      <point x="344" y="-189"/>
    </contour>
    <contour>
      <point x="319" y="99" type="curve"/>
      <point x="317" y="55" type="line"/>
      <point x="411.8036809815951" y="55.0"/>
      <point x="470.0" y="128.0"/>
      <point x="470" y="222" type="curve" smooth="yes"/>
      <point x="470.0" y="279.0"/>
      <point x="435.2680907344035" y="329.43107244771625"/>
      <point x="299" y="411" type="curve" smooth="yes"/>
      <point x="179.27074152660205" y="482.4174524227286"/>
      <point x="141.0" y="520.0"/>
      <point x="141" y="575" type="curve" smooth="yes"/>
      <point x="141" y="627"/>
      <point x="185" y="661"/>
      <point x="239" y="661" type="curve" smooth="yes"/>
      <point x="292" y="661"/>
      <point x="345" y="631"/>
      <point x="405" y="543" type="curve" smooth="yes"/>
      <point x="418" y="523"/>
      <point x="432" y="511"/>
      <point x="450" y="511" type="curve" smooth="yes"/>
      <point x="467" y="511"/>
      <point x="473" y="521"/>
      <point x="473" y="536" type="curve" smooth="yes"/>
      <point x="473" y="544"/>
      <point x="469" y="558"/>
      <point x="464" y="570" type="curve" smooth="yes"/>
      <point x="414" y="692" type="line" smooth="yes"/>
      <point x="407" y="709"/>
      <point x="398" y="716"/>
      <point x="387" y="716" type="curve" smooth="yes"/>
      <point x="374" y="716"/>
      <point x="367" y="693"/>
      <point x="350" y="693" type="curve" smooth="yes"/>
      <point x="331" y="693"/>
      <point x="295" y="715"/>
      <point x="242" y="715" type="curve" smooth="yes"/>
      <point x="138" y="715"/>
      <point x="55" y="632"/>
      <point x="55" y="540" type="curve" smooth="yes"/>
      <point x="55.0" y="458.0"/>
      <point x="107.56696316627819" y="406.1361432129614"/>
      <point x="236" y="332" type="curve" smooth="yes"/>
      <point x="361.1773606772775" y="259.3780197597474"/>
      <point x="393.0" y="214.56756756756755"/>
      <point x="393" y="174" type="curve" smooth="yes"/>
      <point x="393.0" y="130.0"/>
      <point x="365.0" y="99.0"/>
    </contour>
  </outline>
</glyph>
<glyph name="ordfeminine" format="2">
  <advance width="392"/>
  <unicode hex="00AA"/>
  <outline>
    <contour>
      <point x="286" y="495" type="curve"/>
      <point x="281" y="524" type="line"/>
      <point x="256" y="533"/>
      <point x="230" y="540"/>
      <point x="192" y="540" type="curve" smooth="yes"/>
      <point x="87" y="540"/>
      <point x="40" y="492"/>
      <point x="40" y="442" type="curve" smooth="yes"/>
      <point x="40" y="382"/>
      <point x="87" y="345"/>
      <point x="157" y="345" type="curve" smooth="yes"/>
      <point x="210" y="345"/>
      <point x="262" y="369"/>
      <point x="294" y="412" type="curve"/>
      <point x="272" y="440" type="line"/>
      <point x="254" y="407"/>
      <point x="221" y="393"/>
      <point x="188" y="393" type="curve" smooth="yes"/>
      <point x="150" y="393"/>
      <point x="123" y="415"/>
      <point x="123" y="453" type="curve" smooth="yes"/>
      <point x="123" y="481"/>
      <point x="145" y="505"/>
      <point x="191" y="505" type="curve" smooth="yes"/>
      <point x="229" y="505"/>
      <point x="258" y="501"/>
    </contour>
    <contour>
      <point x="362" y="388" type="curve"/>
      <point x="345" y="388"/>
      <point x="336" y="399"/>
      <point x="332" y="431" type="curve" smooth="yes"/>
      <point x="309" y="621" type="line" smooth="yes"/>
      <point x="302" y="683"/>
      <point x="267" y="715"/>
      <point x="207" y="715" type="curve" smooth="yes"/>
      <point x="172" y="715"/>
      <point x="145" y="704"/>
      <point x="116" y="687" type="curve" smooth="yes"/>
      <point x="74.67922446746529" y="661.8044051630886"/>
      <point x="55.0" y="637.6285714285714"/>
      <point x="55" y="615" type="curve" smooth="yes"/>
      <point x="55.0" y="594.0"/>
      <point x="69.0" y="580.0"/>
      <point x="87" y="580" type="curve" smooth="yes"/>
      <point x="117.0" y="580.0"/>
      <point x="136" y="601"/>
      <point x="136" y="629" type="curve" smooth="yes"/>
      <point x="136" y="645" type="line" smooth="yes"/>
      <point x="136" y="667"/>
      <point x="154.0" y="677.0"/>
      <point x="180" y="677" type="curve" smooth="yes"/>
      <point x="220.0" y="677.0"/>
      <point x="241.06480036242397" y="654.722885163976"/>
      <point x="246" y="604" type="curve" smooth="yes"/>
      <point x="264" y="419" type="line" smooth="yes"/>
      <point x="268" y="373"/>
      <point x="294" y="345"/>
      <point x="342" y="345" type="curve"/>
      <point x="366" y="345"/>
      <point x="386" y="357"/>
      <point x="387" y="369" type="curve" smooth="yes"/>
      <point x="388" y="380"/>
      <point x="381" y="387"/>
    </contour>
  </outline>
</glyph>
<glyph name="logicalnot" format="2">
  <advance width="493"/>
  <unicode hex="00AC"/>
  <outline>
    <contour>
      <point x="393" y="144" type="curve" smooth="yes"/>
      <point x="408" y="144"/>
      <point x="418" y="153"/>
      <point x="418" y="169" type="curve" smooth="yes"/>
      <point x="418" y="333" type="line" smooth="yes"/>
      <point x="418" y="349"/>
      <point x="408" y="359"/>
      <point x="393" y="359" type="curve" smooth="yes"/>
      <point x="377" y="359"/>
      <point x="366" y="348"/>
      <point x="366" y="333" type="curve" smooth="yes"/>
      <point x="366" y="170" type="line" smooth="yes"/>
      <point x="366" y="155"/>
      <point x="377" y="144"/>
    </contour>
    <component base="minus" xOffset="-10" yOffset="90"/>
  </outline>
</glyph>
<glyph name="twosuperior" format="2">
  <advance width="369"/>
  <unicode hex="00B2"/>
  <outline>
    <contour>
      <point x="128" y="409" type="curve" smooth="yes"/>
      <point x="71" y="354" type="line" smooth="yes"/>
      <point x="57" y="341"/>
      <point x="50" y="331"/>
      <point x="50" y="324" type="curve" smooth="yes"/>
      <point x="50" y="310"/>
      <point x="61" y="305"/>
      <point x="75" y="305" type="curve" smooth="yes"/>
      <point x="283" y="305" type="line" smooth="yes"/>
      <point x="305.0" y="305.0"/>
      <point x="319" y="313"/>
      <point x="319" y="333" type="curve" smooth="yes"/>
      <point x="319" y="416" type="line" smooth="yes"/>
      <point x="319" y="433"/>
      <point x="291" y="431"/>
      <point x="289" y="420" type="curve" smooth="yes"/>
      <point x="285" y="401" type="line" smooth="yes"/>
      <point x="279" y="373"/>
      <point x="264.0" y="363.0"/>
      <point x="239" y="363" type="curve" smooth="yes"/>
      <point x="112" y="363" type="line"/>
      <point x="121" y="342" type="line"/>
      <point x="155" y="374" type="line" smooth="yes"/>
      <point x="262" y="474"/>
      <point x="296" y="511"/>
      <point x="296" y="559" type="curve" smooth="yes"/>
      <point x="296" y="617"/>
      <point x="257" y="651"/>
      <point x="188" y="651" type="curve" smooth="yes"/>
      <point x="104.984375" y="651.0"/>
      <point x="50.0" y="593.0"/>
      <point x="50" y="552" type="curve" smooth="yes"/>
      <point x="50" y="530"/>
      <point x="63" y="518"/>
      <point x="85" y="518" type="curve" smooth="yes"/>
      <point x="105" y="518"/>
      <point x="122" y="532"/>
      <point x="122" y="552" type="curve" smooth="yes"/>
      <point x="122" y="575" type="line" smooth="yes"/>
      <point x="122" y="597.0"/>
      <point x="134.7027027027027" y="612.0"/>
      <point x="169" y="612" type="curve" smooth="yes"/>
      <point x="196" y="612"/>
      <point x="218" y="592"/>
      <point x="218" y="549" type="curve" smooth="yes"/>
      <point x="218" y="510"/>
      <point x="197" y="475"/>
    </contour>
  </outline>
</glyph>
<glyph name="threesuperior" format="2">
  <advance width="350"/>
  <unicode hex="00B3"/>
  <outline>
    <contour>
      <point x="54" y="378" type="curve" smooth="yes"/>
      <point x="54" y="332"/>
      <point x="105" y="295"/>
      <point x="159" y="295" type="curve" smooth="yes"/>
      <point x="242" y="295"/>
      <point x="300" y="340"/>
      <point x="300" y="405" type="curve" smooth="yes"/>
      <point x="300" y="447"/>
      <point x="260" y="481"/>
      <point x="196" y="481" type="curve"/>
      <point x="192" y="473" type="line"/>
      <point x="246" y="473"/>
      <point x="290" y="515"/>
      <point x="289" y="565" type="curve" smooth="yes"/>
      <point x="288" y="619"/>
      <point x="243" y="650"/>
      <point x="179" y="650" type="curve" smooth="yes"/>
      <point x="109" y="650"/>
      <point x="50" y="596"/>
      <point x="50" y="556" type="curve" smooth="yes"/>
      <point x="50" y="534"/>
      <point x="64" y="522"/>
      <point x="85" y="522" type="curve" smooth="yes"/>
      <point x="104" y="522"/>
      <point x="123" y="536"/>
      <point x="123" y="556" type="curve" smooth="yes"/>
      <point x="123" y="583" type="line" smooth="yes"/>
      <point x="123" y="596.2413793103449"/>
      <point x="136.0" y="607.0"/>
      <point x="163" y="607" type="curve" smooth="yes"/>
      <point x="196.0" y="607.0"/>
      <point x="223.0" y="589.5573770491803"/>
      <point x="223" y="551" type="curve" smooth="yes"/>
      <point x="223" y="511"/>
      <point x="195" y="491"/>
      <point x="155" y="491" type="curve" smooth="yes"/>
      <point x="148" y="491" type="line" smooth="yes"/>
      <point x="135" y="491"/>
      <point x="125" y="482"/>
      <point x="125" y="470" type="curve" smooth="yes"/>
      <point x="125" y="459"/>
      <point x="134" y="451"/>
      <point x="148" y="451" type="curve" smooth="yes"/>
      <point x="168" y="451" type="line" smooth="yes"/>
      <point x="219" y="451"/>
      <point x="239" y="425"/>
      <point x="239" y="393" type="curve" smooth="yes"/>
      <point x="239.0" y="359.9032258064516"/>
      <point x="215.0" y="336.0"/>
      <point x="178" y="336" type="curve" smooth="yes"/>
      <point x="151.0" y="336.0"/>
      <point x="130" y="347.741935483871"/>
      <point x="130" y="362" type="curve" smooth="yes"/>
      <point x="130" y="377" type="line" smooth="yes"/>
      <point x="130" y="398"/>
      <point x="112" y="413"/>
      <point x="92" y="413" type="curve" smooth="yes"/>
      <point x="71" y="413"/>
      <point x="54" y="398"/>
    </contour>
  </outline>
</glyph>
<glyph name="ordmasculine" format="2">
  <advance width="433"/>
  <unicode hex="00BA"/>
  <outline>
    <contour>
      <point x="220" y="715" type="curve" smooth="yes"/>
      <point x="106.0" y="715.0"/>
      <point x="30.0" y="632.0"/>
      <point x="30" y="529" type="curve" smooth="yes"/>
      <point x="30.0" y="422.0"/>
      <point x="105.8918918918919" y="345.0"/>
      <point x="210" y="345" type="curve" smooth="yes"/>
      <point x="318.1969696969697" y="345.0"/>
      <point x="403.0" y="424.0"/>
      <point x="403" y="539" type="curve" smooth="yes"/>
      <point x="403.0" y="641.0"/>
      <point x="327.0744680851064" y="715.0"/>
    </contour>
    <contour>
      <point x="276.06349206349205" y="672.0"/>
      <point x="326.0" y="599.0"/>
      <point x="326" y="507" type="curve" smooth="yes"/>
      <point x="326.0" y="434.0"/>
      <point x="286.99029126213594" y="389.0"/>
      <point x="228" y="389" type="curve" smooth="yes"/>
      <point x="158.85714285714286" y="389.0"/>
      <point x="107.0" y="461.0"/>
      <point x="107" y="552" type="curve" smooth="yes"/>
      <point x="107.0" y="624.0"/>
      <point x="146.9611650485437" y="672.0"/>
      <point x="205" y="672" type="curve" smooth="yes"/>
    </contour>
  </outline>
</glyph>
<glyph name="Aring" format="2">
  <advance width="705"/>
  <unicode hex="00C5"/>
  <outline>
    <contour>
      <point x="358" y="669" type="curve" smooth="yes"/>
      <point x="412" y="669"/>
      <point x="454" y="713"/>
      <point x="454" y="766" type="curve" smooth="yes"/>
      <point x="454" y="819"/>
      <point x="412" y="861"/>
      <point x="358" y="861" type="curve" smooth="yes"/>
      <point x="305" y="861"/>
      <point x="263" y="819"/>
      <point x="263" y="766" type="curve" smooth="yes"/>
      <point x="263" y="713"/>
      <point x="305" y="669"/>
    </contour>
    <contour>
      <point x="359" y="709" type="curve" smooth="yes"/>
      <point x="327" y="709"/>
      <point x="303" y="734"/>
      <point x="303" y="766" type="curve" smooth="yes"/>
      <point x="303" y="797"/>
      <point x="327" y="822"/>
      <point x="359" y="822" type="curve" smooth="yes"/>
      <point x="389" y="822"/>
      <point x="415" y="797"/>
      <point x="415" y="766" type="curve" smooth="yes"/>
      <point x="415" y="734"/>
      <point x="389" y="709"/>
    </contour>
    <contour>
      <point x="168" y="289" type="line"/>
      <point x="171" y="241" type="line"/>
      <point x="489" y="241" type="line"/>
      <point x="483" y="289" type="line"/>
    </contour>
    <contour>
      <point x="241" y="21" type="curve" smooth="yes"/>
      <point x="241" y="32"/>
      <point x="229" y="41"/>
      <point x="200" y="53" type="curve" smooth="yes"/>
      <point x="177" y="63" type="line" smooth="yes"/>
      <point x="159" y="70"/>
      <point x="146" y="82"/>
      <point x="163" y="133" type="curve" smooth="yes"/>
      <point x="330" y="620" type="line"/>
      <point x="342" y="620" type="line"/>
      <point x="508" y="113" type="line" smooth="yes"/>
      <point x="519" y="79"/>
      <point x="505" y="55"/>
      <point x="484" y="50" type="curve" smooth="yes"/>
      <point x="463" y="46" type="line" smooth="yes"/>
      <point x="448" y="42"/>
      <point x="439" y="35"/>
      <point x="439" y="21" type="curve" smooth="yes"/>
      <point x="439" y="7"/>
      <point x="449" y="0"/>
      <point x="464" y="0" type="curve" smooth="yes"/>
      <point x="674" y="0" type="line" smooth="yes"/>
      <point x="692" y="0"/>
      <point x="704" y="7"/>
      <point x="704" y="20" type="curve" smooth="yes"/>
      <point x="704" y="32"/>
      <point x="696" y="39"/>
      <point x="670" y="49" type="curve" smooth="yes"/>
      <point x="644" y="58"/>
      <point x="634" y="72"/>
      <point x="621" y="109" type="curve"/>
      <point x="419" y="705" type="line"/>
      <point x="298" y="703" type="line"/>
      <point x="100" y="133" type="line" smooth="yes"/>
      <point x="80" y="76"/>
      <point x="55" y="63"/>
      <point x="33" y="52" type="curve" smooth="yes"/>
      <point x="9" y="41"/>
      <point x="0" y="32"/>
      <point x="0" y="18" type="curve" smooth="yes"/>
      <point x="0" y="5"/>
      <point x="10" y="0"/>
      <point x="34" y="0" type="curve" smooth="yes"/>
      <point x="212" y="0" type="line" smooth="yes"/>
      <point x="230" y="0"/>
      <point x="241" y="8"/>
    </contour>
  </outline>
</glyph>
<glyph name="AE" format="2">
  <advance width="983"/>
  <unicode hex="00C6"/>
  <outline>
    <contour>
      <point x="238" y="339" type="line"/>
      <point x="221" y="291" type="line"/>
      <point x="539" y="291" type="line"/>
      <point x="533" y="339" type="line"/>
    </contour>
    <contour>
      <point x="568" y="700" type="line"/>
      <point x="351" y="700" type="line" smooth="yes"/>
      <point x="334" y="700"/>
      <point x="320" y="690"/>
      <point x="320" y="676" type="curve" smooth="yes"/>
      <point x="320" y="646"/>
      <point x="355" y="626"/>
      <point x="338" y="592" type="curve" smooth="yes"/>
      <point x="100" y="133" type="line" smooth="yes"/>
      <point x="72" y="79"/>
      <point x="55" y="63"/>
      <point x="33" y="52" type="curve" smooth="yes"/>
      <point x="9" y="41"/>
      <point x="0" y="32"/>
      <point x="0" y="18" type="curve" smooth="yes"/>
      <point x="0" y="5"/>
      <point x="10" y="0"/>
      <point x="34" y="0" type="curve" smooth="yes"/>
      <point x="222" y="0" type="line" smooth="yes"/>
      <point x="240" y="0"/>
      <point x="251" y="8"/>
      <point x="251" y="21" type="curve" smooth="yes"/>
      <point x="251" y="32"/>
      <point x="239" y="41"/>
      <point x="210" y="53" type="curve" smooth="yes"/>
      <point x="187" y="63" type="line" smooth="yes"/>
      <point x="169" y="70"/>
      <point x="148" y="84"/>
      <point x="173" y="133" type="curve" smooth="yes"/>
      <point x="405" y="586" type="line" smooth="yes"/>
      <point x="427" y="628"/>
      <point x="451" y="650"/>
      <point x="482" y="650" type="curve" smooth="yes"/>
      <point x="511" y="650" type="line"/>
    </contour>
    <contour>
      <point x="569" y="375" type="line"/>
      <point x="563" y="329" type="line"/>
      <point x="740" y="329" type="line" smooth="yes"/>
      <point x="769" y="329"/>
      <point x="793" y="316"/>
      <point x="799" y="304" type="curve" smooth="yes"/>
      <point x="813" y="282" type="line" smooth="yes"/>
      <point x="819" y="270"/>
      <point x="830" y="263"/>
      <point x="840" y="263" type="curve" smooth="yes"/>
      <point x="855" y="263"/>
      <point x="860" y="274"/>
      <point x="860" y="288" type="curve" smooth="yes"/>
      <point x="860" y="420" type="line" smooth="yes"/>
      <point x="860" y="434"/>
      <point x="854" y="446"/>
      <point x="840" y="446" type="curve" smooth="yes"/>
      <point x="824" y="446"/>
      <point x="816" y="436"/>
      <point x="806" y="417" type="curve" smooth="yes"/>
      <point x="795" y="397" type="line" smooth="yes"/>
      <point x="786" y="382"/>
      <point x="762" y="375"/>
      <point x="736" y="375" type="curve" smooth="yes"/>
    </contour>
    <contour>
      <point x="491" y="104" type="line" smooth="yes"/>
      <point x="491" y="74"/>
      <point x="479" y="60"/>
      <point x="453" y="52" type="curve" smooth="yes"/>
      <point x="434" y="47" type="line" smooth="yes"/>
      <point x="412" y="40"/>
      <point x="401" y="35"/>
      <point x="401" y="21" type="curve" smooth="yes"/>
      <point x="401" y="7"/>
      <point x="413" y="0"/>
      <point x="432" y="0" type="curve" smooth="yes"/>
      <point x="805" y="0" type="line" smooth="yes"/>
      <point x="826" y="0"/>
      <point x="846" y="-25"/>
      <point x="868" y="-25" type="curve" smooth="yes"/>
      <point x="886" y="-25"/>
      <point x="897" y="-15"/>
      <point x="900" y="-3" type="curve" smooth="yes"/>
      <point x="936" y="146" type="line" smooth="yes"/>
      <point x="939" y="161"/>
      <point x="933" y="174"/>
      <point x="920" y="174" type="curve" smooth="yes"/>
      <point x="908" y="174"/>
      <point x="896" y="164"/>
      <point x="882" y="141" type="curve" smooth="yes"/>
      <point x="857" y="101" type="line" smooth="yes"/>
      <point x="836" y="67"/>
      <point x="806" y="52"/>
      <point x="762" y="52" type="curve" smooth="yes"/>
      <point x="665" y="52" type="line" smooth="yes"/>
      <point x="620" y="52"/>
      <point x="595" y="75"/>
      <point x="595" y="110" type="curve" smooth="yes"/>
      <point x="595" y="650" type="line"/>
      <point x="747" y="650" type="line" smooth="yes"/>
      <point x="789" y="650"/>
      <point x="826" y="634"/>
      <point x="851" y="602" type="curve" smooth="yes"/>
      <point x="878" y="568" type="line" smooth="yes"/>
      <point x="894" y="549"/>
      <point x="903" y="541"/>
      <point x="918" y="541" type="curve" smooth="yes"/>
      <point x="929" y="541"/>
      <point x="938" y="552"/>
      <point x="932" y="573" type="curve" smooth="yes"/>
      <point x="896" y="702" type="line" smooth="yes"/>
      <point x="892" y="720"/>
      <point x="886" y="727"/>
      <point x="870" y="727" type="curve" smooth="yes"/>
      <point x="860" y="727"/>
      <point x="852" y="722"/>
      <point x="843" y="713" type="curve" smooth="yes"/>
      <point x="836" y="705"/>
      <point x="824" y="700"/>
      <point x="814" y="700" type="curve" smooth="yes"/>
      <point x="491" y="700" type="line"/>
    </contour>
  </outline>
</glyph>
<glyph name="Eth" format="2">
  <advance width="769"/>
  <unicode hex="00D0"/>
  <outline>
    <contour>
      <point x="50" y="349" type="curve" smooth="yes"/>
      <point x="50" y="334"/>
      <point x="59" y="324"/>
      <point x="75" y="324" type="curve" smooth="yes"/>
      <point x="358" y="323" type="line" smooth="yes"/>
      <point x="374" y="323"/>
      <point x="384" y="333"/>
      <point x="384" y="348" type="curve" smooth="yes"/>
      <point x="384" y="364"/>
      <point x="373" y="375"/>
      <point x="358" y="375" type="curve" smooth="yes"/>
      <point x="76" y="376" type="line" smooth="yes"/>
      <point x="61" y="376"/>
      <point x="50" y="365"/>
    </contour>
    <component base="D"/>
  </outline>
</glyph>
<glyph name="Oslash" format="2">
  <advance width="788"/>
  <unicode hex="00D8"/>
  <outline>
    <contour>
      <point x="694" y="698" type="curve" smooth="yes"/>
      <point x="78" y="31" type="line" smooth="yes"/>
      <point x="61" y="13"/>
      <point x="61" y="-3"/>
      <point x="79" y="-13" type="curve" smooth="yes"/>
      <point x="95" y="-22"/>
      <point x="113" y="-12"/>
      <point x="125" y="1" type="curve" smooth="yes"/>
      <point x="736" y="664" type="line" smooth="yes"/>
      <point x="757" y="687"/>
      <point x="757" y="703"/>
      <point x="736" y="713" type="curve" smooth="yes"/>
      <point x="721" y="720"/>
      <point x="705" y="709"/>
    </contour>
    <component base="O"/>
  </outline>
</glyph>
<glyph name="germandbls" format="2">
  <advance width="675"/>
  <unicode hex="00DF"/>
  <outline>
    <contour>
      <point x="422" y="366" type="curve" smooth="yes"/>
      <point x="422.0" y="340.1276595744681"/>
      <point x="444.2772907487775" y="324.2291698416953"/>
      <point x="501" y="302" type="curve" smooth="yes"/>
      <point x="587.8201651891624" y="269.69482225519545"/>
      <point x="635.0" y="217.08474576271186"/>
      <point x="635" y="135" type="curve" smooth="yes"/>
      <point x="635.0" y="55.71428571428571"/>
      <point x="562.0" y="-15.0"/>
      <point x="471" y="-15" type="curve" smooth="yes"/>
      <point x="442" y="-15"/>
      <point x="419" y="-10"/>
      <point x="398" y="-2" type="curve" smooth="yes"/>
      <point x="392" y="0"/>
      <point x="384" y="3"/>
      <point x="378" y="3" type="curve" smooth="yes"/>
      <point x="373" y="3"/>
      <point x="369" y="0"/>
      <point x="364" y="-6" type="curve" smooth="yes"/>
      <point x="359" y="-14"/>
      <point x="352" y="-16"/>
      <point x="345" y="-16" type="curve" smooth="yes"/>
      <point x="339" y="-16"/>
      <point x="329" y="-12"/>
      <point x="325" y="3" type="curve" smooth="yes"/>
      <point x="303" y="83" type="line" smooth="yes"/>
      <point x="299" y="97"/>
      <point x="298" y="107"/>
      <point x="298" y="113" type="curve" smooth="yes"/>
      <point x="298" y="124"/>
      <point x="303" y="131"/>
      <point x="317" y="131" type="curve" smooth="yes"/>
      <point x="331" y="131"/>
      <point x="344" y="120"/>
      <point x="357" y="103" type="curve" smooth="yes"/>
      <point x="397" y="51"/>
      <point x="435" y="31"/>
      <point x="473" y="31" type="curve" smooth="yes"/>
      <point x="517.0" y="31.0"/>
      <point x="553.0" y="59.96825396825397"/>
      <point x="553" y="104" type="curve" smooth="yes"/>
      <point x="553.0" y="156.546875"/>
      <point x="518.3616420903119" y="188.47136248258477"/>
      <point x="432" y="222" type="curve" smooth="yes"/>
      <point x="359.2159554108523" y="250.6229388833727"/>
      <point x="327.0" y="279.30827067669173"/>
      <point x="327" y="325" type="curve" smooth="yes"/>
      <point x="327.0" y="364.375"/>
      <point x="351.51843768827536" y="415.91106261296517"/>
      <point x="410" y="451" type="curve" smooth="yes"/>
      <point x="484" y="494"/>
      <point x="522.0" y="520"/>
      <point x="522" y="574" type="curve" smooth="yes"/>
      <point x="522.0" y="623"/>
      <point x="484" y="662.0"/>
      <point x="411" y="662" type="curve" smooth="yes"/>
      <point x="294.0" y="662.0"/>
      <point x="206" y="596.2954545454545"/>
      <point x="206" y="466" type="curve" smooth="yes"/>
      <point x="206" y="83" type="line"/>
      <point x="206" y="65"/>
      <point x="218" y="50"/>
      <point x="235" y="44" type="curve" smooth="yes"/>
      <point x="249" y="39"/>
      <point x="258" y="35"/>
      <point x="258" y="24" type="curve" smooth="yes"/>
      <point x="258" y="8"/>
      <point x="250" y="0"/>
      <point x="230" y="0" type="curve" smooth="yes"/>
      <point x="71" y="0" type="line" smooth="yes"/>
      <point x="54" y="0"/>
      <point x="44" y="7"/>
      <point x="44" y="22" type="curve" smooth="yes"/>
      <point x="44" y="35"/>
      <point x="53" y="42"/>
      <point x="72" y="47" type="curve" smooth="yes"/>
      <point x="89" y="50" type="line" smooth="yes"/>
      <point x="105" y="54"/>
      <point x="118" y="67"/>
      <point x="118" y="93" type="curve" smooth="yes"/>
      <point x="118" y="370" type="line" smooth="yes"/>
      <point x="118" y="399"/>
      <point x="105" y="407"/>
      <point x="89" y="411" type="curve" smooth="yes"/>
      <point x="56" y="420" type="line" smooth="yes"/>
      <point x="42" y="424"/>
      <point x="30" y="432"/>
      <point x="30" y="443" type="curve" smooth="yes"/>
      <point x="30" y="457"/>
      <point x="42" y="465"/>
      <point x="60" y="465" type="curve"/>
      <point x="135" y="465" type="line"/>
      <point x="122" y="438" type="line"/>
      <point x="122" y="455" type="line" smooth="yes"/>
      <point x="122" y="462" type="line" smooth="yes"/>
      <point x="122" y="599.0"/>
      <point x="245.0" y="715.0"/>
      <point x="455" y="715" type="curve" smooth="yes"/>
      <point x="559" y="715.0"/>
      <point x="623.0" y="660"/>
      <point x="623" y="581" type="curve" smooth="yes"/>
      <point x="623.0" y="537"/>
      <point x="584" y="507"/>
      <point x="502" y="456" type="curve" smooth="yes"/>
      <point x="427.09412735753165" y="408.59121984653905"/>
      <point x="422.0" y="391.5"/>
    </contour>
  </outline>
</glyph>
<glyph name="ae" format="2">
  <advance width="788"/>
  <unicode hex="00E6"/>
  <outline>
    <contour>
      <point x="70" y="351" type="curve" smooth="yes"/>
      <point x="70" y="320"/>
      <point x="89" y="303"/>
      <point x="116" y="303" type="curve" smooth="yes"/>
      <point x="149" y="303"/>
      <point x="178" y="330"/>
      <point x="178" y="367" type="curve" smooth="yes"/>
      <point x="178" y="385" type="line" smooth="yes"/>
      <point x="178" y="417"/>
      <point x="201" y="431"/>
      <point x="238" y="431" type="curve" smooth="yes"/>
      <point x="286" y="431"/>
      <point x="314" y="399"/>
      <point x="322" y="333" type="curve"/>
      <point x="336" y="208" type="line"/>
      <point x="410" y="355" type="line"/>
      <point x="401" y="438"/>
      <point x="352" y="479"/>
      <point x="273" y="479" type="curve" smooth="yes"/>
      <point x="225" y="479"/>
      <point x="186" y="467"/>
      <point x="147" y="441" type="curve" smooth="yes"/>
      <point x="96" y="407"/>
      <point x="70" y="376"/>
    </contour>
    <contour>
      <point x="377" y="205" type="line"/>
      <point x="373" y="246" type="line"/>
      <point x="213" y="220" type="line" smooth="yes"/>
      <point x="103.18641292823747" y="202.15529210083858"/>
      <point x="48.0" y="163.6521739130435"/>
      <point x="48" y="100" type="curve" smooth="yes"/>
      <point x="48.0" y="31.95833333333333"/>
      <point x="109.42068965517241" y="-15.0"/>
      <point x="194" y="-15" type="curve" smooth="yes"/>
      <point x="278" y="-15"/>
      <point x="358" y="12"/>
      <point x="402" y="68" type="curve"/>
      <point x="389" y="103" type="line"/>
      <point x="364" y="64"/>
      <point x="296" y="50"/>
      <point x="243" y="50" type="curve" smooth="yes"/>
      <point x="189.42391304347825" y="50.0"/>
      <point x="150.0" y="78.93333333333334"/>
      <point x="150" y="120" type="curve" smooth="yes"/>
      <point x="150.0" y="150.59259259259258"/>
      <point x="170.20416001369748" y="172.41398885064325"/>
      <point x="212" y="179" type="curve" smooth="yes"/>
    </contour>
    <contour>
      <point x="732" y="267"/>
      <point x="748" y="278"/>
      <point x="748" y="309" type="curve" smooth="yes"/>
      <point x="748.0" y="391.1666666666667"/>
      <point x="681.0" y="479.0"/>
      <point x="566" y="479" type="curve" smooth="yes"/>
      <point x="440" y="479"/>
      <point x="336" y="363"/>
      <point x="336" y="218" type="curve" smooth="yes"/>
      <point x="336" y="89"/>
      <point x="438" y="-15"/>
      <point x="562" y="-15" type="curve" smooth="yes"/>
      <point x="614" y="-15"/>
      <point x="660" y="3"/>
      <point x="705" y="33" type="curve" smooth="yes"/>
      <point x="738" y="53"/>
      <point x="755" y="66"/>
      <point x="755" y="83" type="curve" smooth="yes"/>
      <point x="755" y="94"/>
      <point x="746" y="101"/>
      <point x="736" y="101" type="curve" smooth="yes"/>
      <point x="726" y="101"/>
      <point x="715" y="94"/>
      <point x="700" y="87" type="curve" smooth="yes"/>
      <point x="674" y="73"/>
      <point x="641" y="67"/>
      <point x="610" y="67" type="curve" smooth="yes"/>
      <point x="501" y="67"/>
      <point x="411" y="151"/>
      <point x="411" y="253" type="curve" smooth="yes"/>
      <point x="411" y="350"/>
      <point x="462" y="418"/>
      <point x="538" y="418" type="curve" smooth="yes"/>
      <point x="603" y="418"/>
      <point x="644" y="370"/>
      <point x="644" y="318" type="curve" smooth="yes"/>
      <point x="644" y="301"/>
      <point x="634" y="296"/>
      <point x="616" y="294" type="curve" smooth="yes"/>
      <point x="396" y="264" type="line"/>
      <point x="396" y="222" type="line"/>
      <point x="693" y="262" type="line" smooth="yes"/>
    </contour>
  </outline>
</glyph>
<glyph name="eth" format="2">
  <advance width="555"/>
  <unicode hex="00F0"/>
  <outline>
    <contour>
      <point x="428" y="207" type="curve"/>
      <point x="428.0" y="107.70059880239522"/>
      <point x="377.0" y="46.0"/>
      <point x="299" y="46" type="curve" smooth="yes"/>
      <point x="202.0" y="46.0"/>
      <point x="128.0" y="143.34513274336285"/>
      <point x="128" y="266" type="curve" smooth="yes"/>
      <point x="128.0" y="365.0"/>
      <point x="181.04958677685948" y="431.0"/>
      <point x="259" y="431" type="curve" smooth="yes"/>
      <point x="353.44444444444446" y="431.0"/>
      <point x="429.0" y="347.11926605504584"/>
      <point x="429" y="208" type="curve"/>
      <point x="469" y="291" type="line"/>
      <point x="454" y="394"/>
      <point x="371" y="479"/>
      <point x="258" y="479" type="curve" smooth="yes"/>
      <point x="123" y="479"/>
      <point x="33.0" y="371.0"/>
      <point x="33" y="237" type="curve" smooth="yes"/>
      <point x="33" y="91"/>
      <point x="136" y="-15"/>
      <point x="277" y="-15" type="curve" smooth="yes"/>
      <point x="416.0" y="-15.0"/>
      <point x="524.0" y="107.34042553191489"/>
      <point x="524" y="285" type="curve"/>
      <point x="524.0" y="512.9098360655738"/>
      <point x="357.0" y="700"/>
      <point x="136" y="700" type="curve" smooth="yes"/>
      <point x="116" y="700" type="line" smooth="yes"/>
      <point x="102" y="700"/>
      <point x="91.0" y="690"/>
      <point x="91" y="678" type="curve" smooth="yes"/>
      <point x="91.0" y="666.0"/>
      <point x="103" y="659"/>
      <point x="115" y="658" type="curve" smooth="yes"/>
      <point x="143" y="656" type="line" smooth="yes"/>
      <point x="304.93976618996476" y="644.4328738435739"/>
      <point x="428.0" y="469.8075396825397"/>
    </contour>
    <contour>
      <point x="147" y="539" type="curve" smooth="yes"/>
      <point x="156" y="530"/>
      <point x="167" y="529"/>
      <point x="177" y="539" type="curve" smooth="yes"/>
      <point x="350" y="712" type="line" smooth="yes"/>
      <point x="359.0" y="721.0"/>
      <point x="359" y="733"/>
      <point x="351.0" y="741.0" type="curve" smooth="yes"/>
      <point x="342.0" y="751"/>
      <point x="329.0" y="751.0"/>
      <point x="320" y="742" type="curve" smooth="yes"/>
      <point x="147" y="569" type="line" smooth="yes"/>
      <point x="141" y="563"/>
      <point x="141" y="545"/>
    </contour>
  </outline>
</glyph>
<glyph name="oslash" format="2">
  <advance width="575"/>
  <unicode hex="00F8"/>
  <outline>
    <contour>
      <point x="356" y="533" type="curve" smooth="yes"/>
      <point x="162" y="-66" type="line" smooth="yes"/>
      <point x="154" y="-90"/>
      <point x="160" y="-105"/>
      <point x="182" y="-106" type="curve" smooth="yes"/>
      <point x="200" y="-107"/>
      <point x="211" y="-91"/>
      <point x="217" y="-74" type="curve" smooth="yes"/>
      <point x="410" y="520" type="line" smooth="yes"/>
      <point x="420" y="550"/>
      <point x="412" y="565"/>
      <point x="389" y="565" type="curve" smooth="yes"/>
      <point x="372" y="565"/>
      <point x="361" y="549"/>
    </contour>
    <component base="o"/>
  </outline>
</glyph>
<glyph name="thorn" format="2">
  <advance width="574"/>
  <unicode hex="00FE"/>
  <outline>
    <contour>
      <point x="158" y="351" type="line"/>
      <point x="199" y="381"/>
      <point x="243" y="394"/>
      <point x="285" y="394" type="curve" smooth="yes"/>
      <point x="381" y="394"/>
      <point x="450" y="311"/>
      <point x="450" y="198" type="curve" smooth="yes"/>
      <point x="450" y="96"/>
      <point x="388" y="26"/>
      <point x="300" y="26" type="curve" smooth="yes"/>
      <point x="239" y="26"/>
      <point x="185" y="47"/>
      <point x="147" y="88" type="curve"/>
      <point x="118" y="43" type="line"/>
      <point x="163" y="-3"/>
      <point x="228" y="-29"/>
      <point x="298" y="-29" type="curve" smooth="yes"/>
      <point x="443" y="-29"/>
      <point x="546" y="81"/>
      <point x="546" y="236" type="curve" smooth="yes"/>
      <point x="546" y="369"/>
      <point x="457" y="465"/>
      <point x="336" y="465" type="curve" smooth="yes"/>
      <point x="268" y="465"/>
      <point x="202" y="432"/>
      <point x="142" y="372" type="curve"/>
    </contour>
    <contour>
      <point x="182" y="688" type="line" smooth="yes"/>
      <point x="182.0" y="705.0"/>
      <point x="173" y="715"/>
      <point x="159" y="715" type="curve" smooth="yes"/>
      <point x="146" y="715"/>
      <point x="133" y="709"/>
      <point x="116" y="701" type="curve" smooth="yes"/>
      <point x="40" y="666" type="line" smooth="yes"/>
      <point x="27" y="660"/>
      <point x="17" y="648"/>
      <point x="17" y="639" type="curve" smooth="yes"/>
      <point x="17" y="631"/>
      <point x="23" y="624"/>
      <point x="35" y="624" type="curve" smooth="yes"/>
      <point x="55" y="624" type="line" smooth="yes"/>
      <point x="79" y="624"/>
      <point x="94.0" y="614.0"/>
      <point x="94" y="589" type="curve" smooth="yes"/>
      <point x="94" y="-149" type="line" smooth="yes"/>
      <point x="94" y="-169"/>
      <point x="86" y="-192"/>
      <point x="68" y="-195" type="curve" smooth="yes"/>
      <point x="46" y="-199" type="line" smooth="yes"/>
      <point x="31" y="-202"/>
      <point x="21" y="-207"/>
      <point x="20" y="-221" type="curve" smooth="yes"/>
      <point x="19" y="-236"/>
      <point x="28" y="-245"/>
      <point x="51" y="-245" type="curve" smooth="yes"/>
      <point x="245" y="-245" type="line" smooth="yes"/>
      <point x="262" y="-245"/>
      <point x="270" y="-235"/>
      <point x="270" y="-222" type="curve" smooth="yes"/>
      <point x="270" y="-210"/>
      <point x="261" y="-205"/>
      <point x="246" y="-202" type="curve" smooth="yes"/>
      <point x="224" y="-198" type="line" smooth="yes"/>
      <point x="197" y="-193"/>
      <point x="182" y="-178"/>
      <point x="182" y="-147" type="curve" smooth="yes"/>
    </contour>
  </outline>
</glyph>
<glyph name="Hbar" format="2">
  <advance width="803"/>
  <unicode hex="0126"/>
  <outline>
    <contour>
      <point x="50" y="504" type="curve" smooth="yes"/>
      <point x="50" y="489"/>
      <point x="59" y="479"/>
      <point x="75" y="479" type="curve" smooth="yes"/>
      <point x="737" y="479" type="line" smooth="yes"/>
      <point x="753.0" y="479.0"/>
      <point x="763" y="489"/>
      <point x="763" y="504" type="curve" smooth="yes"/>
      <point x="763" y="519"/>
      <point x="752.0" y="530.0"/>
      <point x="737" y="530" type="curve" smooth="yes"/>
      <point x="76" y="530" type="line" smooth="yes"/>
      <point x="61" y="530"/>
      <point x="50" y="519"/>
    </contour>
    <component base="H"/>
  </outline>
</glyph>
<glyph name="hbar" format="2">
  <advance width="607"/>
  <unicode hex="0127"/>
  <outline>
    <contour>
      <point x="31.0" y="556" type="curve" smooth="yes"/>
      <point x="31.0" y="568"/>
      <point x="40.0" y="577.0"/>
      <point x="52" y="577" type="curve" smooth="yes"/>
      <point x="291" y="577" type="line" smooth="yes"/>
      <point x="304" y="577"/>
      <point x="313" y="568"/>
      <point x="313" y="556" type="curve" smooth="yes"/>
      <point x="313" y="543"/>
      <point x="304" y="535"/>
      <point x="291" y="535.0" type="curve" smooth="yes"/>
      <point x="51" y="535.0" type="line" smooth="yes"/>
      <point x="38.0" y="535.0"/>
      <point x="31.0" y="543"/>
    </contour>
    <component base="h"/>
  </outline>
</glyph>
<glyph name="dotlessi" format="2">
  <advance width="302"/>
  <unicode hex="0131"/>
  <outline>
    <contour>
      <point x="59" y="390" type="line" smooth="yes"/>
      <point x="45" y="390"/>
      <point x="35" y="396"/>
      <point x="35" y="407" type="curve" smooth="yes"/>
      <point x="35" y="415"/>
      <point x="44" y="425"/>
      <point x="58" y="431" type="curve" smooth="yes"/>
      <point x="134" y="466" type="line" smooth="yes"/>
      <point x="153" y="475"/>
      <point x="165" y="480"/>
      <point x="178" y="480" type="curve" smooth="yes"/>
      <point x="192" y="480"/>
      <point x="200" y="468"/>
      <point x="200" y="453" type="curve" smooth="yes"/>
      <point x="200" y="90" type="line" smooth="yes"/>
      <point x="200" y="63"/>
      <point x="211" y="50"/>
      <point x="233" y="46" type="curve" smooth="yes"/>
      <point x="246" y="43" type="line" smooth="yes"/>
      <point x="266" y="38"/>
      <point x="276" y="32"/>
      <point x="276" y="20" type="curve" smooth="yes"/>
      <point x="276" y="7"/>
      <point x="268" y="0"/>
      <point x="245" y="0" type="curve" smooth="yes"/>
      <point x="59" y="0" type="line" smooth="yes"/>
      <point x="44" y="0"/>
      <point x="35" y="7"/>
      <point x="35" y="21" type="curve" smooth="yes"/>
      <point x="35" y="33"/>
      <point x="42" y="40"/>
      <point x="59" y="43" type="curve" smooth="yes"/>
      <point x="78" y="47" type="line" smooth="yes"/>
      <point x="101" y="51"/>
      <point x="112" y="62"/>
      <point x="112" y="90" type="curve" smooth="yes"/>
      <point x="112" y="355" type="line" smooth="yes"/>
      <point x="112" y="380"/>
      <point x="96" y="390"/>
      <point x="82" y="390" type="curve" smooth="yes"/>
    </contour>
  </outline>
</glyph>
